G04 Layer_Color=2752767*
%FSLAX25Y25*%
%MOIN*%
G70*
G01*
G75*
%ADD18C,0.01000*%
%ADD96C,0.00200*%
%ADD97C,0.01500*%
%ADD98C,0.01600*%
D18*
X7701785Y7448472D02*
G03*
X7701785Y7448472I-2222J0D01*
G01*
X1354285Y1178472D02*
G03*
X1354285Y1178472I-2222J0D01*
G01*
X7697340Y7436250D02*
X7699563Y7437361D01*
X7701785Y7436250D01*
X7700674Y7438472D02*
X7701785Y7436250D01*
X7700674Y7438472D02*
X7701785Y7440694D01*
X7699563Y7439584D02*
X7701785Y7440694D01*
X7697340D02*
X7699563Y7439584D01*
X7697340Y7440694D02*
X7698451Y7438472D01*
X7697340Y7436250D02*
X7698451Y7438472D01*
X7699563Y7426250D02*
X7701785Y7430695D01*
X7697340D02*
X7701785D01*
X7697340D02*
X7699563Y7426250D01*
X7698451Y7417361D02*
X7699563Y7416250D01*
X7697340Y7417361D02*
X7698451D01*
X7697340D02*
X7698451Y7418472D01*
X7697340Y7419583D02*
X7698451Y7418472D01*
X7697340Y7419583D02*
X7698451D01*
X7699563Y7420695D01*
X7700674Y7419583D01*
X7701785D01*
X7700674Y7418472D02*
X7701785Y7419583D01*
X7700674Y7418472D02*
X7701785Y7417361D01*
X7700674D02*
X7701785D01*
X7699563Y7416250D02*
X7700674Y7417361D01*
X7697340Y7406250D02*
X7701785D01*
Y7410694D01*
X7697340D02*
X7701785D01*
X7697340Y7406250D02*
Y7410694D01*
X1352063Y1216250D02*
X1354285Y1220694D01*
X1349840D02*
X1354285D01*
X1349840D02*
X1352063Y1216250D01*
X1350951Y1207361D02*
X1352063Y1206250D01*
X1349840Y1207361D02*
X1350951D01*
X1349840D02*
X1350951Y1208472D01*
X1349840Y1209583D02*
X1350951Y1208472D01*
X1349840Y1209583D02*
X1350951D01*
X1352063Y1210694D01*
X1353174Y1209583D01*
X1354285D01*
X1353174Y1208472D02*
X1354285Y1209583D01*
X1353174Y1208472D02*
X1354285Y1207361D01*
X1353174D02*
X1354285D01*
X1352063Y1206250D02*
X1353174Y1207361D01*
X1349840Y1196250D02*
X1354285D01*
Y1200694D01*
X1349840D02*
X1354285D01*
X1349840Y1196250D02*
Y1200694D01*
Y1186250D02*
X1352063Y1187361D01*
X1354285Y1186250D01*
X1353174Y1188472D02*
X1354285Y1186250D01*
X1353174Y1188472D02*
X1354285Y1190694D01*
X1352063Y1189583D02*
X1354285Y1190694D01*
X1349840D02*
X1352063Y1189583D01*
X1349840Y1190694D02*
X1350951Y1188472D01*
X1349840Y1186250D02*
X1350951Y1188472D01*
X7907195Y7446250D02*
Y7450249D01*
X7909194D01*
X7909860Y7449583D01*
Y7448249D01*
X7909194Y7447583D01*
X7907195D01*
X7908527D02*
X7909860Y7446250D01*
X7911860D02*
X7913193D01*
X7913860Y7446916D01*
Y7448249D01*
X7913193Y7448916D01*
X7911860D01*
X7911193Y7448249D01*
Y7446916D01*
X7911860Y7446250D01*
X7915192Y7448916D02*
Y7446916D01*
X7915858Y7446250D01*
X7917858D01*
Y7448916D01*
X7919191Y7446250D02*
Y7448916D01*
X7921190D01*
X7921857Y7448249D01*
Y7446250D01*
X7925855Y7450249D02*
Y7446250D01*
X7923856D01*
X7923190Y7446916D01*
Y7448249D01*
X7923856Y7448916D01*
X7925855D01*
X7907195Y7436250D02*
Y7440249D01*
X7909194D01*
X7909860Y7439582D01*
Y7438249D01*
X7909194Y7437583D01*
X7907195D01*
X7908527D02*
X7909860Y7436250D01*
X7911860D02*
X7913193D01*
X7913860Y7436916D01*
Y7438249D01*
X7913193Y7438916D01*
X7911860D01*
X7911193Y7438249D01*
Y7436916D01*
X7911860Y7436250D01*
X7915192Y7438916D02*
Y7436916D01*
X7915858Y7436250D01*
X7917858D01*
Y7438916D01*
X7919191Y7436250D02*
Y7438916D01*
X7921190D01*
X7921857Y7438249D01*
Y7436250D01*
X7925855Y7440249D02*
Y7436250D01*
X7923856D01*
X7923190Y7436916D01*
Y7438249D01*
X7923856Y7438916D01*
X7925855D01*
X7907195Y7426250D02*
Y7430249D01*
X7909194D01*
X7909860Y7429582D01*
Y7428249D01*
X7909194Y7427583D01*
X7907195D01*
X7908527D02*
X7909860Y7426250D01*
X7911860D02*
X7913193D01*
X7913860Y7426917D01*
Y7428249D01*
X7913193Y7428916D01*
X7911860D01*
X7911193Y7428249D01*
Y7426917D01*
X7911860Y7426250D01*
X7915192Y7428916D02*
Y7426917D01*
X7915858Y7426250D01*
X7917858D01*
Y7428916D01*
X7919191Y7426250D02*
Y7428916D01*
X7921190D01*
X7921857Y7428249D01*
Y7426250D01*
X7925855Y7430249D02*
Y7426250D01*
X7923856D01*
X7923190Y7426917D01*
Y7428249D01*
X7923856Y7428916D01*
X7925855D01*
X7907195Y7416250D02*
Y7420248D01*
X7909194D01*
X7909860Y7419582D01*
Y7418250D01*
X7909194Y7417583D01*
X7907195D01*
X7908527D02*
X7909860Y7416250D01*
X7911860D02*
X7913193D01*
X7913860Y7416917D01*
Y7418250D01*
X7913193Y7418916D01*
X7911860D01*
X7911193Y7418250D01*
Y7416917D01*
X7911860Y7416250D01*
X7915192Y7418916D02*
Y7416917D01*
X7915858Y7416250D01*
X7917858D01*
Y7418916D01*
X7919191Y7416250D02*
Y7418916D01*
X7921190D01*
X7921857Y7418250D01*
Y7416250D01*
X7925855Y7420248D02*
Y7416250D01*
X7923856D01*
X7923190Y7416917D01*
Y7418250D01*
X7923856Y7418916D01*
X7925855D01*
X7907195Y7406250D02*
Y7410249D01*
X7909194D01*
X7909860Y7409583D01*
Y7408250D01*
X7909194Y7407583D01*
X7907195D01*
X7908527D02*
X7909860Y7406250D01*
X7911860D02*
X7913193D01*
X7913860Y7406916D01*
Y7408250D01*
X7913193Y7408916D01*
X7911860D01*
X7911193Y7408250D01*
Y7406916D01*
X7911860Y7406250D01*
X7915192Y7408916D02*
Y7406916D01*
X7915858Y7406250D01*
X7917858D01*
Y7408916D01*
X7919191Y7406250D02*
Y7408916D01*
X7921190D01*
X7921857Y7408250D01*
Y7406250D01*
X7925855Y7410249D02*
Y7406250D01*
X7923856D01*
X7923190Y7406916D01*
Y7408250D01*
X7923856Y7408916D01*
X7925855D01*
X7872403Y7446250D02*
Y7450249D01*
X7874403D01*
X7875069Y7449583D01*
Y7448249D01*
X7874403Y7447583D01*
X7872403D01*
X7876402Y7450249D02*
X7879067D01*
X7877734D01*
Y7446250D01*
X7880400Y7450249D02*
Y7446250D01*
Y7448249D01*
X7883067D01*
Y7450249D01*
Y7446250D01*
X7872403Y7436250D02*
Y7440249D01*
X7875069Y7436250D01*
Y7440249D01*
X7876402Y7436250D02*
Y7440249D01*
X7878401D01*
X7879067Y7439582D01*
Y7438249D01*
X7878401Y7437583D01*
X7876402D01*
X7880400Y7440249D02*
X7883067D01*
X7881733D01*
Y7436250D01*
X7884399Y7440249D02*
Y7436250D01*
Y7438249D01*
X7887065D01*
Y7440249D01*
Y7436250D01*
X7872403Y7426250D02*
Y7430249D01*
X7874403D01*
X7875069Y7429582D01*
Y7428249D01*
X7874403Y7427583D01*
X7872403D01*
X7876402Y7430249D02*
X7879067D01*
X7877734D01*
Y7426250D01*
X7880400Y7430249D02*
Y7426250D01*
Y7428249D01*
X7883067D01*
Y7430249D01*
Y7426250D01*
X7872403Y7416250D02*
Y7420248D01*
X7874403D01*
X7875069Y7419582D01*
Y7418250D01*
X7874403Y7417583D01*
X7872403D01*
X7876402Y7420248D02*
X7879067D01*
X7877734D01*
Y7416250D01*
X7880400Y7420248D02*
Y7416250D01*
Y7418250D01*
X7883067D01*
Y7420248D01*
Y7416250D01*
X7872403Y7406250D02*
Y7410249D01*
X7874403D01*
X7875069Y7409583D01*
Y7408250D01*
X7874403Y7407583D01*
X7872403D01*
X7876402Y7410249D02*
X7879067D01*
X7877734D01*
Y7406250D01*
X7880400Y7410249D02*
Y7406250D01*
Y7408250D01*
X7883067D01*
Y7410249D01*
Y7406250D01*
X7781629Y7446250D02*
X7782962D01*
X7782296D01*
Y7450249D01*
X7781629Y7449583D01*
X7784962D02*
X7785628Y7450249D01*
X7786961D01*
X7787627Y7449583D01*
Y7448916D01*
X7786961Y7448249D01*
X7786295D01*
X7786961D01*
X7787627Y7447583D01*
Y7446916D01*
X7786961Y7446250D01*
X7785628D01*
X7784962Y7446916D01*
X7788960Y7449583D02*
X7789627Y7450249D01*
X7790960D01*
X7791626Y7449583D01*
Y7448916D01*
X7790960Y7448249D01*
X7790293D01*
X7790960D01*
X7791626Y7447583D01*
Y7446916D01*
X7790960Y7446250D01*
X7789627D01*
X7788960Y7446916D01*
X7792959Y7446250D02*
Y7446916D01*
X7793626D01*
Y7446250D01*
X7792959D01*
X7796291Y7449583D02*
X7796957Y7450249D01*
X7798290D01*
X7798957Y7449583D01*
Y7448916D01*
X7798290Y7448249D01*
X7798957Y7447583D01*
Y7446916D01*
X7798290Y7446250D01*
X7796957D01*
X7796291Y7446916D01*
Y7447583D01*
X7796957Y7448249D01*
X7796291Y7448916D01*
Y7449583D01*
X7796957Y7448249D02*
X7798290D01*
X7802956Y7450249D02*
X7801623Y7449583D01*
X7800290Y7448249D01*
Y7446916D01*
X7800957Y7446250D01*
X7802290D01*
X7802956Y7446916D01*
Y7447583D01*
X7802290Y7448249D01*
X7800290D01*
X7804288Y7446250D02*
Y7448916D01*
X7804955D01*
X7805621Y7448249D01*
Y7446250D01*
Y7448249D01*
X7806288Y7448916D01*
X7806954Y7448249D01*
Y7446250D01*
X7808287D02*
X7809621D01*
X7808954D01*
Y7448916D01*
X7808287D01*
X7811620Y7446250D02*
X7812952D01*
X7812286D01*
Y7450249D01*
X7811620D01*
X7820284Y7446250D02*
X7818951Y7447583D01*
Y7448916D01*
X7820284Y7450249D01*
X7822283Y7449583D02*
X7822949Y7450249D01*
X7824282D01*
X7824949Y7449583D01*
Y7448916D01*
X7824282Y7448249D01*
X7823616D01*
X7824282D01*
X7824949Y7447583D01*
Y7446916D01*
X7824282Y7446250D01*
X7822949D01*
X7822283Y7446916D01*
X7826282Y7446250D02*
Y7446916D01*
X7826948D01*
Y7446250D01*
X7826282D01*
X7831613D02*
Y7450249D01*
X7829614Y7448249D01*
X7832280D01*
X7833613Y7449583D02*
X7834279Y7450249D01*
X7835612D01*
X7836279Y7449583D01*
Y7446916D01*
X7835612Y7446250D01*
X7834279D01*
X7833613Y7446916D01*
Y7449583D01*
X7837611D02*
X7838277Y7450249D01*
X7839610D01*
X7840277Y7449583D01*
Y7446916D01*
X7839610Y7446250D01*
X7838277D01*
X7837611Y7446916D01*
Y7449583D01*
X7841610Y7446250D02*
Y7448916D01*
X7842277D01*
X7842943Y7448249D01*
Y7446250D01*
Y7448249D01*
X7843610Y7448916D01*
X7844276Y7448249D01*
Y7446250D01*
X7845609D02*
Y7448916D01*
X7846275D01*
X7846941Y7448249D01*
Y7446250D01*
Y7448249D01*
X7847608Y7448916D01*
X7848274Y7448249D01*
Y7446250D01*
X7849607D02*
X7850940Y7447583D01*
Y7448916D01*
X7849607Y7450249D01*
X7781629Y7436250D02*
X7782962D01*
X7782296D01*
Y7440249D01*
X7781629Y7439582D01*
X7784962D02*
X7785628Y7440249D01*
X7786961D01*
X7787627Y7439582D01*
Y7438916D01*
X7786961Y7438249D01*
X7786295D01*
X7786961D01*
X7787627Y7437583D01*
Y7436916D01*
X7786961Y7436250D01*
X7785628D01*
X7784962Y7436916D01*
X7788960Y7439582D02*
X7789627Y7440249D01*
X7790960D01*
X7791626Y7439582D01*
Y7438916D01*
X7790960Y7438249D01*
X7790293D01*
X7790960D01*
X7791626Y7437583D01*
Y7436916D01*
X7790960Y7436250D01*
X7789627D01*
X7788960Y7436916D01*
X7792959Y7436250D02*
Y7436916D01*
X7793626D01*
Y7436250D01*
X7792959D01*
X7796291Y7439582D02*
X7796957Y7440249D01*
X7798290D01*
X7798957Y7439582D01*
Y7438916D01*
X7798290Y7438249D01*
X7798957Y7437583D01*
Y7436916D01*
X7798290Y7436250D01*
X7796957D01*
X7796291Y7436916D01*
Y7437583D01*
X7796957Y7438249D01*
X7796291Y7438916D01*
Y7439582D01*
X7796957Y7438249D02*
X7798290D01*
X7802956Y7440249D02*
X7801623Y7439582D01*
X7800290Y7438249D01*
Y7436916D01*
X7800957Y7436250D01*
X7802290D01*
X7802956Y7436916D01*
Y7437583D01*
X7802290Y7438249D01*
X7800290D01*
X7804288Y7436250D02*
Y7438916D01*
X7804955D01*
X7805621Y7438249D01*
Y7436250D01*
Y7438249D01*
X7806288Y7438916D01*
X7806954Y7438249D01*
Y7436250D01*
X7808287D02*
X7809621D01*
X7808954D01*
Y7438916D01*
X7808287D01*
X7811620Y7436250D02*
X7812952D01*
X7812286D01*
Y7440249D01*
X7811620D01*
X7820284Y7436250D02*
X7818951Y7437583D01*
Y7438916D01*
X7820284Y7440249D01*
X7822283Y7439582D02*
X7822949Y7440249D01*
X7824282D01*
X7824949Y7439582D01*
Y7438916D01*
X7824282Y7438249D01*
X7823616D01*
X7824282D01*
X7824949Y7437583D01*
Y7436916D01*
X7824282Y7436250D01*
X7822949D01*
X7822283Y7436916D01*
X7826282Y7436250D02*
Y7436916D01*
X7826948D01*
Y7436250D01*
X7826282D01*
X7831613D02*
Y7440249D01*
X7829614Y7438249D01*
X7832280D01*
X7833613Y7439582D02*
X7834279Y7440249D01*
X7835612D01*
X7836279Y7439582D01*
Y7436916D01*
X7835612Y7436250D01*
X7834279D01*
X7833613Y7436916D01*
Y7439582D01*
X7837611D02*
X7838277Y7440249D01*
X7839610D01*
X7840277Y7439582D01*
Y7436916D01*
X7839610Y7436250D01*
X7838277D01*
X7837611Y7436916D01*
Y7439582D01*
X7841610Y7436250D02*
Y7438916D01*
X7842277D01*
X7842943Y7438249D01*
Y7436250D01*
Y7438249D01*
X7843610Y7438916D01*
X7844276Y7438249D01*
Y7436250D01*
X7845609D02*
Y7438916D01*
X7846275D01*
X7846941Y7438249D01*
Y7436250D01*
Y7438249D01*
X7847608Y7438916D01*
X7848274Y7438249D01*
Y7436250D01*
X7849607D02*
X7850940Y7437583D01*
Y7438916D01*
X7849607Y7440249D01*
X7781629Y7426250D02*
X7782962D01*
X7782296D01*
Y7430249D01*
X7781629Y7429582D01*
X7787627Y7430249D02*
X7784962D01*
Y7428249D01*
X7786295Y7428916D01*
X7786961D01*
X7787627Y7428249D01*
Y7426917D01*
X7786961Y7426250D01*
X7785628D01*
X7784962Y7426917D01*
X7788960Y7426250D02*
Y7426917D01*
X7789627D01*
Y7426250D01*
X7788960D01*
X7792293Y7429582D02*
X7792959Y7430249D01*
X7794292D01*
X7794958Y7429582D01*
Y7426917D01*
X7794292Y7426250D01*
X7792959D01*
X7792293Y7426917D01*
Y7429582D01*
X7796291D02*
X7796957Y7430249D01*
X7798290D01*
X7798957Y7429582D01*
Y7426917D01*
X7798290Y7426250D01*
X7796957D01*
X7796291Y7426917D01*
Y7429582D01*
X7800290Y7426250D02*
Y7428916D01*
X7800957D01*
X7801623Y7428249D01*
Y7426250D01*
Y7428249D01*
X7802290Y7428916D01*
X7802956Y7428249D01*
Y7426250D01*
X7804288D02*
X7805621D01*
X7804955D01*
Y7428916D01*
X7804288D01*
X7807621Y7426250D02*
X7808954D01*
X7808287D01*
Y7430249D01*
X7807621D01*
X7816285Y7426250D02*
X7814952Y7427583D01*
Y7428916D01*
X7816285Y7430249D01*
X7818284Y7429582D02*
X7818951Y7430249D01*
X7820284D01*
X7820950Y7429582D01*
Y7426917D01*
X7820284Y7426250D01*
X7818951D01*
X7818284Y7426917D01*
Y7429582D01*
X7822283Y7426250D02*
Y7426917D01*
X7822949D01*
Y7426250D01*
X7822283D01*
X7825615Y7429582D02*
X7826282Y7430249D01*
X7827615D01*
X7828281Y7429582D01*
Y7428916D01*
X7827615Y7428249D01*
X7826948D01*
X7827615D01*
X7828281Y7427583D01*
Y7426917D01*
X7827615Y7426250D01*
X7826282D01*
X7825615Y7426917D01*
X7829614Y7429582D02*
X7830280Y7430249D01*
X7831613D01*
X7832280Y7429582D01*
Y7428916D01*
X7831613Y7428249D01*
X7832280Y7427583D01*
Y7426917D01*
X7831613Y7426250D01*
X7830280D01*
X7829614Y7426917D01*
Y7427583D01*
X7830280Y7428249D01*
X7829614Y7428916D01*
Y7429582D01*
X7830280Y7428249D02*
X7831613D01*
X7833613Y7426250D02*
X7834946D01*
X7834279D01*
Y7430249D01*
X7833613Y7429582D01*
X7836945Y7426250D02*
Y7428916D01*
X7837611D01*
X7838277Y7428249D01*
Y7426250D01*
Y7428249D01*
X7838944Y7428916D01*
X7839610Y7428249D01*
Y7426250D01*
X7840943D02*
Y7428916D01*
X7841610D01*
X7842277Y7428249D01*
Y7426250D01*
Y7428249D01*
X7842943Y7428916D01*
X7843610Y7428249D01*
Y7426250D01*
X7844942D02*
X7846275Y7427583D01*
Y7428916D01*
X7844942Y7430249D01*
X7781629Y7416250D02*
X7782962D01*
X7782296D01*
Y7420248D01*
X7781629Y7419582D01*
X7787627Y7416250D02*
X7784962D01*
X7787627Y7418916D01*
Y7419582D01*
X7786961Y7420248D01*
X7785628D01*
X7784962Y7419582D01*
X7788960Y7416250D02*
Y7416917D01*
X7789627D01*
Y7416250D01*
X7788960D01*
X7792293Y7416917D02*
X7792959Y7416250D01*
X7794292D01*
X7794958Y7416917D01*
Y7419582D01*
X7794292Y7420248D01*
X7792959D01*
X7792293Y7419582D01*
Y7418916D01*
X7792959Y7418250D01*
X7794958D01*
X7796291Y7416917D02*
X7796957Y7416250D01*
X7798290D01*
X7798957Y7416917D01*
Y7419582D01*
X7798290Y7420248D01*
X7796957D01*
X7796291Y7419582D01*
Y7418916D01*
X7796957Y7418250D01*
X7798957D01*
X7800290Y7416250D02*
Y7418916D01*
X7800957D01*
X7801623Y7418250D01*
Y7416250D01*
Y7418250D01*
X7802290Y7418916D01*
X7802956Y7418250D01*
Y7416250D01*
X7804288D02*
X7805621D01*
X7804955D01*
Y7418916D01*
X7804288D01*
X7807621Y7416250D02*
X7808954D01*
X7808287D01*
Y7420248D01*
X7807621D01*
X7816285Y7416250D02*
X7814952Y7417583D01*
Y7418916D01*
X7816285Y7420248D01*
X7818284Y7419582D02*
X7818951Y7420248D01*
X7820284D01*
X7820950Y7419582D01*
Y7416917D01*
X7820284Y7416250D01*
X7818951D01*
X7818284Y7416917D01*
Y7419582D01*
X7822283Y7416250D02*
Y7416917D01*
X7822949D01*
Y7416250D01*
X7822283D01*
X7825615Y7419582D02*
X7826282Y7420248D01*
X7827615D01*
X7828281Y7419582D01*
Y7418916D01*
X7827615Y7418250D01*
X7826948D01*
X7827615D01*
X7828281Y7417583D01*
Y7416917D01*
X7827615Y7416250D01*
X7826282D01*
X7825615Y7416917D01*
X7829614Y7419582D02*
X7830280Y7420248D01*
X7831613D01*
X7832280Y7419582D01*
Y7418916D01*
X7831613Y7418250D01*
X7830947D01*
X7831613D01*
X7832280Y7417583D01*
Y7416917D01*
X7831613Y7416250D01*
X7830280D01*
X7829614Y7416917D01*
X7833613Y7419582D02*
X7834279Y7420248D01*
X7835612D01*
X7836279Y7419582D01*
Y7416917D01*
X7835612Y7416250D01*
X7834279D01*
X7833613Y7416917D01*
Y7419582D01*
X7837611Y7416250D02*
Y7418916D01*
X7838277D01*
X7838944Y7418250D01*
Y7416250D01*
Y7418250D01*
X7839610Y7418916D01*
X7840277Y7418250D01*
Y7416250D01*
X7841610D02*
Y7418916D01*
X7842277D01*
X7842943Y7418250D01*
Y7416250D01*
Y7418250D01*
X7843610Y7418916D01*
X7844276Y7418250D01*
Y7416250D01*
X7845609D02*
X7846941Y7417583D01*
Y7418916D01*
X7845609Y7420248D01*
X7781629Y7406250D02*
X7782962D01*
X7782296D01*
Y7410249D01*
X7781629Y7409583D01*
X7787627Y7410249D02*
X7784962D01*
Y7408250D01*
X7786295Y7408916D01*
X7786961D01*
X7787627Y7408250D01*
Y7406916D01*
X7786961Y7406250D01*
X7785628D01*
X7784962Y7406916D01*
X7788960Y7406250D02*
Y7406916D01*
X7789627D01*
Y7406250D01*
X7788960D01*
X7792293Y7410249D02*
X7794958D01*
Y7409583D01*
X7792293Y7406916D01*
Y7406250D01*
X7798957Y7410249D02*
X7796291D01*
Y7408250D01*
X7797624Y7408916D01*
X7798290D01*
X7798957Y7408250D01*
Y7406916D01*
X7798290Y7406250D01*
X7796957D01*
X7796291Y7406916D01*
X7800290Y7406250D02*
Y7408916D01*
X7800957D01*
X7801623Y7408250D01*
Y7406250D01*
Y7408250D01*
X7802290Y7408916D01*
X7802956Y7408250D01*
Y7406250D01*
X7804288D02*
X7805621D01*
X7804955D01*
Y7408916D01*
X7804288D01*
X7807621Y7406250D02*
X7808954D01*
X7808287D01*
Y7410249D01*
X7807621D01*
X7816285Y7406250D02*
X7814952Y7407583D01*
Y7408916D01*
X7816285Y7410249D01*
X7818284Y7409583D02*
X7818951Y7410249D01*
X7820284D01*
X7820950Y7409583D01*
Y7406916D01*
X7820284Y7406250D01*
X7818951D01*
X7818284Y7406916D01*
Y7409583D01*
X7822283Y7406250D02*
Y7406916D01*
X7822949D01*
Y7406250D01*
X7822283D01*
X7827615D02*
Y7410249D01*
X7825615Y7408250D01*
X7828281D01*
X7829614Y7409583D02*
X7830280Y7410249D01*
X7831613D01*
X7832280Y7409583D01*
Y7406916D01*
X7831613Y7406250D01*
X7830280D01*
X7829614Y7406916D01*
Y7409583D01*
X7833613D02*
X7834279Y7410249D01*
X7835612D01*
X7836279Y7409583D01*
Y7406916D01*
X7835612Y7406250D01*
X7834279D01*
X7833613Y7406916D01*
Y7409583D01*
X7837611Y7406250D02*
Y7408916D01*
X7838277D01*
X7838944Y7408250D01*
Y7406250D01*
Y7408250D01*
X7839610Y7408916D01*
X7840277Y7408250D01*
Y7406250D01*
X7841610D02*
Y7408916D01*
X7842277D01*
X7842943Y7408250D01*
Y7406250D01*
Y7408250D01*
X7843610Y7408916D01*
X7844276Y7408250D01*
Y7406250D01*
X7845609D02*
X7846941Y7407583D01*
Y7408916D01*
X7845609Y7410249D01*
X7734042Y7396916D02*
X7734708Y7396250D01*
X7736041D01*
X7736707Y7396916D01*
Y7399583D01*
X7736041Y7400249D01*
X7734708D01*
X7734042Y7399583D01*
Y7398916D01*
X7734708Y7398249D01*
X7736707D01*
X7740706Y7396250D02*
X7738040D01*
X7740706Y7398916D01*
Y7399583D01*
X7740040Y7400249D01*
X7738707D01*
X7738040Y7399583D01*
X7746038Y7400249D02*
X7748704D01*
X7747371D01*
Y7396250D01*
X7750703D02*
X7752036D01*
X7752702Y7396916D01*
Y7398249D01*
X7752036Y7398916D01*
X7750703D01*
X7750037Y7398249D01*
Y7396916D01*
X7750703Y7396250D01*
X7754702Y7399583D02*
Y7398916D01*
X7754035D01*
X7755368D01*
X7754702D01*
Y7396916D01*
X7755368Y7396250D01*
X7758034Y7398916D02*
X7759367D01*
X7760033Y7398249D01*
Y7396250D01*
X7758034D01*
X7757368Y7396916D01*
X7758034Y7397583D01*
X7760033D01*
X7761366Y7396250D02*
X7762699D01*
X7762033D01*
Y7400249D01*
X7761366D01*
X7734042Y7446250D02*
X7735374D01*
X7734708D01*
Y7450249D01*
X7734042Y7449583D01*
X7736707Y7436250D02*
X7734042D01*
X7736707Y7438916D01*
Y7439582D01*
X7736041Y7440249D01*
X7734708D01*
X7734042Y7439582D01*
X7736041Y7426250D02*
Y7430249D01*
X7734042Y7428249D01*
X7736707D01*
X7734042Y7416250D02*
X7735374D01*
X7734708D01*
Y7420248D01*
X7734042Y7419582D01*
X7740040Y7420248D02*
X7738707Y7419582D01*
X7737374Y7418250D01*
Y7416917D01*
X7738040Y7416250D01*
X7739373D01*
X7740040Y7416917D01*
Y7417583D01*
X7739373Y7418250D01*
X7737374D01*
X7736707Y7410249D02*
X7735374Y7409583D01*
X7734042Y7408250D01*
Y7406916D01*
X7734708Y7406250D01*
X7736041D01*
X7736707Y7406916D01*
Y7407583D01*
X7736041Y7408250D01*
X7734042D01*
X7738040Y7406916D02*
X7738707Y7406250D01*
X7740040D01*
X7740706Y7406916D01*
Y7409583D01*
X7740040Y7410249D01*
X7738707D01*
X7738040Y7409583D01*
Y7408916D01*
X7738707Y7408250D01*
X7740706D01*
X1609682Y1218249D02*
X1612347D01*
X1611015Y1219582D02*
Y1216916D01*
X1613680Y1216250D02*
X1616346Y1218916D01*
X1617679Y1218249D02*
X1620345D01*
X1625676Y1216250D02*
Y1216916D01*
X1626343D01*
Y1216250D01*
X1625676D01*
X1629009Y1219582D02*
X1629675Y1220249D01*
X1631008D01*
X1631675Y1219582D01*
Y1216916D01*
X1631008Y1216250D01*
X1629675D01*
X1629009Y1216916D01*
Y1219582D01*
X1633007D02*
X1633674Y1220249D01*
X1635007D01*
X1635673Y1219582D01*
Y1216916D01*
X1635007Y1216250D01*
X1633674D01*
X1633007Y1216916D01*
Y1219582D01*
X1637006D02*
X1637672Y1220249D01*
X1639005D01*
X1639672Y1219582D01*
Y1218916D01*
X1639005Y1218249D01*
X1638339D01*
X1639005D01*
X1639672Y1217583D01*
Y1216916D01*
X1639005Y1216250D01*
X1637672D01*
X1637006Y1216916D01*
X1559695Y1216250D02*
Y1220249D01*
X1561694D01*
X1562360Y1219582D01*
Y1218249D01*
X1561694Y1217583D01*
X1559695D01*
X1561028D02*
X1562360Y1216250D01*
X1564360D02*
X1565693D01*
X1566359Y1216916D01*
Y1218249D01*
X1565693Y1218916D01*
X1564360D01*
X1563693Y1218249D01*
Y1216916D01*
X1564360Y1216250D01*
X1567692Y1218916D02*
Y1216916D01*
X1568359Y1216250D01*
X1570358D01*
Y1218916D01*
X1571691Y1216250D02*
Y1218916D01*
X1573690D01*
X1574357Y1218249D01*
Y1216250D01*
X1578355Y1220249D02*
Y1216250D01*
X1576356D01*
X1575690Y1216916D01*
Y1218249D01*
X1576356Y1218916D01*
X1578355D01*
X1559695Y1206250D02*
Y1210249D01*
X1561694D01*
X1562360Y1209582D01*
Y1208249D01*
X1561694Y1207583D01*
X1559695D01*
X1561028D02*
X1562360Y1206250D01*
X1564360D02*
X1565693D01*
X1566359Y1206917D01*
Y1208249D01*
X1565693Y1208916D01*
X1564360D01*
X1563693Y1208249D01*
Y1206917D01*
X1564360Y1206250D01*
X1567692Y1208916D02*
Y1206917D01*
X1568359Y1206250D01*
X1570358D01*
Y1208916D01*
X1571691Y1206250D02*
Y1208916D01*
X1573690D01*
X1574357Y1208249D01*
Y1206250D01*
X1578355Y1210249D02*
Y1206250D01*
X1576356D01*
X1575690Y1206917D01*
Y1208249D01*
X1576356Y1208916D01*
X1578355D01*
X1559695Y1196250D02*
Y1200249D01*
X1561694D01*
X1562360Y1199582D01*
Y1198249D01*
X1561694Y1197583D01*
X1559695D01*
X1561028D02*
X1562360Y1196250D01*
X1564360D02*
X1565693D01*
X1566359Y1196916D01*
Y1198249D01*
X1565693Y1198916D01*
X1564360D01*
X1563693Y1198249D01*
Y1196916D01*
X1564360Y1196250D01*
X1567692Y1198916D02*
Y1196916D01*
X1568359Y1196250D01*
X1570358D01*
Y1198916D01*
X1571691Y1196250D02*
Y1198916D01*
X1573690D01*
X1574357Y1198249D01*
Y1196250D01*
X1578355Y1200249D02*
Y1196250D01*
X1576356D01*
X1575690Y1196916D01*
Y1198249D01*
X1576356Y1198916D01*
X1578355D01*
X1559695Y1186250D02*
Y1190249D01*
X1561694D01*
X1562360Y1189582D01*
Y1188249D01*
X1561694Y1187583D01*
X1559695D01*
X1561028D02*
X1562360Y1186250D01*
X1564360D02*
X1565693D01*
X1566359Y1186917D01*
Y1188249D01*
X1565693Y1188916D01*
X1564360D01*
X1563693Y1188249D01*
Y1186917D01*
X1564360Y1186250D01*
X1567692Y1188916D02*
Y1186917D01*
X1568359Y1186250D01*
X1570358D01*
Y1188916D01*
X1571691Y1186250D02*
Y1188916D01*
X1573690D01*
X1574357Y1188249D01*
Y1186250D01*
X1578355Y1190249D02*
Y1186250D01*
X1576356D01*
X1575690Y1186917D01*
Y1188249D01*
X1576356Y1188916D01*
X1578355D01*
X1559695Y1176250D02*
Y1180249D01*
X1561694D01*
X1562360Y1179582D01*
Y1178249D01*
X1561694Y1177583D01*
X1559695D01*
X1561028D02*
X1562360Y1176250D01*
X1564360D02*
X1565693D01*
X1566359Y1176917D01*
Y1178249D01*
X1565693Y1178916D01*
X1564360D01*
X1563693Y1178249D01*
Y1176917D01*
X1564360Y1176250D01*
X1567692Y1178916D02*
Y1176917D01*
X1568359Y1176250D01*
X1570358D01*
Y1178916D01*
X1571691Y1176250D02*
Y1178916D01*
X1573690D01*
X1574357Y1178249D01*
Y1176250D01*
X1578355Y1180249D02*
Y1176250D01*
X1576356D01*
X1575690Y1176917D01*
Y1178249D01*
X1576356Y1178916D01*
X1578355D01*
X1524903Y1216250D02*
Y1220249D01*
X1526902D01*
X1527569Y1219582D01*
Y1218249D01*
X1526902Y1217583D01*
X1524903D01*
X1528902Y1220249D02*
X1531567D01*
X1530235D01*
Y1216250D01*
X1532900Y1220249D02*
Y1216250D01*
Y1218249D01*
X1535566D01*
Y1220249D01*
Y1216250D01*
X1524903Y1206250D02*
Y1210249D01*
X1526902D01*
X1527569Y1209582D01*
Y1208249D01*
X1526902Y1207583D01*
X1524903D01*
X1528902Y1210249D02*
X1531567D01*
X1530235D01*
Y1206250D01*
X1532900Y1210249D02*
Y1206250D01*
Y1208249D01*
X1535566D01*
Y1210249D01*
Y1206250D01*
X1524903Y1196250D02*
Y1200249D01*
X1526902D01*
X1527569Y1199582D01*
Y1198249D01*
X1526902Y1197583D01*
X1524903D01*
X1528902Y1200249D02*
X1531567D01*
X1530235D01*
Y1196250D01*
X1532900Y1200249D02*
Y1196250D01*
Y1198249D01*
X1535566D01*
Y1200249D01*
Y1196250D01*
X1524903Y1186250D02*
Y1190249D01*
X1527569Y1186250D01*
Y1190249D01*
X1528902Y1186250D02*
Y1190249D01*
X1530901D01*
X1531567Y1189582D01*
Y1188249D01*
X1530901Y1187583D01*
X1528902D01*
X1532900Y1190249D02*
X1535566D01*
X1534233D01*
Y1186250D01*
X1536899Y1190249D02*
Y1186250D01*
Y1188249D01*
X1539565D01*
Y1190249D01*
Y1186250D01*
X1524903Y1176250D02*
Y1180249D01*
X1526902D01*
X1527569Y1179582D01*
Y1178249D01*
X1526902Y1177583D01*
X1524903D01*
X1528902Y1180249D02*
X1531567D01*
X1530235D01*
Y1176250D01*
X1532900Y1180249D02*
Y1176250D01*
Y1178249D01*
X1535566D01*
Y1180249D01*
Y1176250D01*
X1434129Y1216250D02*
X1435462D01*
X1434796D01*
Y1220249D01*
X1434129Y1219582D01*
X1440127Y1220249D02*
X1437462D01*
Y1218249D01*
X1438795Y1218916D01*
X1439461D01*
X1440127Y1218249D01*
Y1216916D01*
X1439461Y1216250D01*
X1438128D01*
X1437462Y1216916D01*
X1441460Y1216250D02*
Y1216916D01*
X1442127D01*
Y1216250D01*
X1441460D01*
X1444793Y1219582D02*
X1445459Y1220249D01*
X1446792D01*
X1447458Y1219582D01*
Y1216916D01*
X1446792Y1216250D01*
X1445459D01*
X1444793Y1216916D01*
Y1219582D01*
X1448791D02*
X1449458Y1220249D01*
X1450791D01*
X1451457Y1219582D01*
Y1216916D01*
X1450791Y1216250D01*
X1449458D01*
X1448791Y1216916D01*
Y1219582D01*
X1452790Y1216250D02*
Y1218916D01*
X1453456D01*
X1454123Y1218249D01*
Y1216250D01*
Y1218249D01*
X1454789Y1218916D01*
X1455456Y1218249D01*
Y1216250D01*
X1456789D02*
X1458122D01*
X1457455D01*
Y1218916D01*
X1456789D01*
X1460121Y1216250D02*
X1461454D01*
X1460787D01*
Y1220249D01*
X1460121D01*
X1468785Y1216250D02*
X1467452Y1217583D01*
Y1218916D01*
X1468785Y1220249D01*
X1470784Y1219582D02*
X1471451Y1220249D01*
X1472783D01*
X1473450Y1219582D01*
Y1216916D01*
X1472783Y1216250D01*
X1471451D01*
X1470784Y1216916D01*
Y1219582D01*
X1474783Y1216250D02*
Y1216916D01*
X1475449D01*
Y1216250D01*
X1474783D01*
X1478115Y1219582D02*
X1478782Y1220249D01*
X1480114D01*
X1480781Y1219582D01*
Y1218916D01*
X1480114Y1218249D01*
X1479448D01*
X1480114D01*
X1480781Y1217583D01*
Y1216916D01*
X1480114Y1216250D01*
X1478782D01*
X1478115Y1216916D01*
X1482114Y1219582D02*
X1482780Y1220249D01*
X1484113D01*
X1484780Y1219582D01*
Y1218916D01*
X1484113Y1218249D01*
X1484780Y1217583D01*
Y1216916D01*
X1484113Y1216250D01*
X1482780D01*
X1482114Y1216916D01*
Y1217583D01*
X1482780Y1218249D01*
X1482114Y1218916D01*
Y1219582D01*
X1482780Y1218249D02*
X1484113D01*
X1486113Y1216250D02*
X1487446D01*
X1486779D01*
Y1220249D01*
X1486113Y1219582D01*
X1489445Y1216250D02*
Y1218916D01*
X1490111D01*
X1490778Y1218249D01*
Y1216250D01*
Y1218249D01*
X1491444Y1218916D01*
X1492111Y1218249D01*
Y1216250D01*
X1493443D02*
Y1218916D01*
X1494110D01*
X1494776Y1218249D01*
Y1216250D01*
Y1218249D01*
X1495443Y1218916D01*
X1496109Y1218249D01*
Y1216250D01*
X1497442D02*
X1498775Y1217583D01*
Y1218916D01*
X1497442Y1220249D01*
X1434129Y1206250D02*
X1435462D01*
X1434796D01*
Y1210249D01*
X1434129Y1209582D01*
X1440127Y1206250D02*
X1437462D01*
X1440127Y1208916D01*
Y1209582D01*
X1439461Y1210249D01*
X1438128D01*
X1437462Y1209582D01*
X1441460Y1206250D02*
Y1206917D01*
X1442127D01*
Y1206250D01*
X1441460D01*
X1444793Y1206917D02*
X1445459Y1206250D01*
X1446792D01*
X1447458Y1206917D01*
Y1209582D01*
X1446792Y1210249D01*
X1445459D01*
X1444793Y1209582D01*
Y1208916D01*
X1445459Y1208249D01*
X1447458D01*
X1448791Y1206917D02*
X1449458Y1206250D01*
X1450791D01*
X1451457Y1206917D01*
Y1209582D01*
X1450791Y1210249D01*
X1449458D01*
X1448791Y1209582D01*
Y1208916D01*
X1449458Y1208249D01*
X1451457D01*
X1452790Y1206250D02*
Y1208916D01*
X1453456D01*
X1454123Y1208249D01*
Y1206250D01*
Y1208249D01*
X1454789Y1208916D01*
X1455456Y1208249D01*
Y1206250D01*
X1456789D02*
X1458122D01*
X1457455D01*
Y1208916D01*
X1456789D01*
X1460121Y1206250D02*
X1461454D01*
X1460787D01*
Y1210249D01*
X1460121D01*
X1468785Y1206250D02*
X1467452Y1207583D01*
Y1208916D01*
X1468785Y1210249D01*
X1470784Y1209582D02*
X1471451Y1210249D01*
X1472783D01*
X1473450Y1209582D01*
Y1206917D01*
X1472783Y1206250D01*
X1471451D01*
X1470784Y1206917D01*
Y1209582D01*
X1474783Y1206250D02*
Y1206917D01*
X1475449D01*
Y1206250D01*
X1474783D01*
X1478115Y1209582D02*
X1478782Y1210249D01*
X1480114D01*
X1480781Y1209582D01*
Y1208916D01*
X1480114Y1208249D01*
X1479448D01*
X1480114D01*
X1480781Y1207583D01*
Y1206917D01*
X1480114Y1206250D01*
X1478782D01*
X1478115Y1206917D01*
X1482114Y1209582D02*
X1482780Y1210249D01*
X1484113D01*
X1484780Y1209582D01*
Y1208916D01*
X1484113Y1208249D01*
X1483447D01*
X1484113D01*
X1484780Y1207583D01*
Y1206917D01*
X1484113Y1206250D01*
X1482780D01*
X1482114Y1206917D01*
X1486113Y1209582D02*
X1486779Y1210249D01*
X1488112D01*
X1488778Y1209582D01*
Y1206917D01*
X1488112Y1206250D01*
X1486779D01*
X1486113Y1206917D01*
Y1209582D01*
X1490111Y1206250D02*
Y1208916D01*
X1490778D01*
X1491444Y1208249D01*
Y1206250D01*
Y1208249D01*
X1492111Y1208916D01*
X1492777Y1208249D01*
Y1206250D01*
X1494110D02*
Y1208916D01*
X1494776D01*
X1495443Y1208249D01*
Y1206250D01*
Y1208249D01*
X1496109Y1208916D01*
X1496776Y1208249D01*
Y1206250D01*
X1498109D02*
X1499442Y1207583D01*
Y1208916D01*
X1498109Y1210249D01*
X1434129Y1196250D02*
X1435462D01*
X1434796D01*
Y1200249D01*
X1434129Y1199582D01*
X1440127Y1200249D02*
X1437462D01*
Y1198249D01*
X1438795Y1198916D01*
X1439461D01*
X1440127Y1198249D01*
Y1196916D01*
X1439461Y1196250D01*
X1438128D01*
X1437462Y1196916D01*
X1441460Y1196250D02*
Y1196916D01*
X1442127D01*
Y1196250D01*
X1441460D01*
X1444793Y1200249D02*
X1447458D01*
Y1199582D01*
X1444793Y1196916D01*
Y1196250D01*
X1451457Y1200249D02*
X1448791D01*
Y1198249D01*
X1450124Y1198916D01*
X1450791D01*
X1451457Y1198249D01*
Y1196916D01*
X1450791Y1196250D01*
X1449458D01*
X1448791Y1196916D01*
X1452790Y1196250D02*
Y1198916D01*
X1453456D01*
X1454123Y1198249D01*
Y1196250D01*
Y1198249D01*
X1454789Y1198916D01*
X1455456Y1198249D01*
Y1196250D01*
X1456789D02*
X1458122D01*
X1457455D01*
Y1198916D01*
X1456789D01*
X1460121Y1196250D02*
X1461454D01*
X1460787D01*
Y1200249D01*
X1460121D01*
X1468785Y1196250D02*
X1467452Y1197583D01*
Y1198916D01*
X1468785Y1200249D01*
X1470784Y1199582D02*
X1471451Y1200249D01*
X1472783D01*
X1473450Y1199582D01*
Y1196916D01*
X1472783Y1196250D01*
X1471451D01*
X1470784Y1196916D01*
Y1199582D01*
X1474783Y1196250D02*
Y1196916D01*
X1475449D01*
Y1196250D01*
X1474783D01*
X1480114D02*
Y1200249D01*
X1478115Y1198249D01*
X1480781D01*
X1482114Y1199582D02*
X1482780Y1200249D01*
X1484113D01*
X1484780Y1199582D01*
Y1196916D01*
X1484113Y1196250D01*
X1482780D01*
X1482114Y1196916D01*
Y1199582D01*
X1486113D02*
X1486779Y1200249D01*
X1488112D01*
X1488778Y1199582D01*
Y1196916D01*
X1488112Y1196250D01*
X1486779D01*
X1486113Y1196916D01*
Y1199582D01*
X1490111Y1196250D02*
Y1198916D01*
X1490778D01*
X1491444Y1198249D01*
Y1196250D01*
Y1198249D01*
X1492111Y1198916D01*
X1492777Y1198249D01*
Y1196250D01*
X1494110D02*
Y1198916D01*
X1494776D01*
X1495443Y1198249D01*
Y1196250D01*
Y1198249D01*
X1496109Y1198916D01*
X1496776Y1198249D01*
Y1196250D01*
X1498109D02*
X1499442Y1197583D01*
Y1198916D01*
X1498109Y1200249D01*
X1434129Y1186250D02*
X1435462D01*
X1434796D01*
Y1190249D01*
X1434129Y1189582D01*
X1437462D02*
X1438128Y1190249D01*
X1439461D01*
X1440127Y1189582D01*
Y1188916D01*
X1439461Y1188249D01*
X1438795D01*
X1439461D01*
X1440127Y1187583D01*
Y1186917D01*
X1439461Y1186250D01*
X1438128D01*
X1437462Y1186917D01*
X1441460Y1189582D02*
X1442127Y1190249D01*
X1443460D01*
X1444126Y1189582D01*
Y1188916D01*
X1443460Y1188249D01*
X1442793D01*
X1443460D01*
X1444126Y1187583D01*
Y1186917D01*
X1443460Y1186250D01*
X1442127D01*
X1441460Y1186917D01*
X1445459Y1186250D02*
Y1186917D01*
X1446126D01*
Y1186250D01*
X1445459D01*
X1448791Y1189582D02*
X1449458Y1190249D01*
X1450791D01*
X1451457Y1189582D01*
Y1188916D01*
X1450791Y1188249D01*
X1451457Y1187583D01*
Y1186917D01*
X1450791Y1186250D01*
X1449458D01*
X1448791Y1186917D01*
Y1187583D01*
X1449458Y1188249D01*
X1448791Y1188916D01*
Y1189582D01*
X1449458Y1188249D02*
X1450791D01*
X1455456Y1190249D02*
X1454123Y1189582D01*
X1452790Y1188249D01*
Y1186917D01*
X1453456Y1186250D01*
X1454789D01*
X1455456Y1186917D01*
Y1187583D01*
X1454789Y1188249D01*
X1452790D01*
X1456789Y1186250D02*
Y1188916D01*
X1457455D01*
X1458122Y1188249D01*
Y1186250D01*
Y1188249D01*
X1458788Y1188916D01*
X1459455Y1188249D01*
Y1186250D01*
X1460787D02*
X1462120D01*
X1461454D01*
Y1188916D01*
X1460787D01*
X1464120Y1186250D02*
X1465453D01*
X1464786D01*
Y1190249D01*
X1464120D01*
X1472783Y1186250D02*
X1471451Y1187583D01*
Y1188916D01*
X1472783Y1190249D01*
X1474783Y1189582D02*
X1475449Y1190249D01*
X1476782D01*
X1477449Y1189582D01*
Y1188916D01*
X1476782Y1188249D01*
X1476116D01*
X1476782D01*
X1477449Y1187583D01*
Y1186917D01*
X1476782Y1186250D01*
X1475449D01*
X1474783Y1186917D01*
X1478782Y1186250D02*
Y1186917D01*
X1479448D01*
Y1186250D01*
X1478782D01*
X1484113D02*
Y1190249D01*
X1482114Y1188249D01*
X1484780D01*
X1486113Y1189582D02*
X1486779Y1190249D01*
X1488112D01*
X1488778Y1189582D01*
Y1186917D01*
X1488112Y1186250D01*
X1486779D01*
X1486113Y1186917D01*
Y1189582D01*
X1490111D02*
X1490778Y1190249D01*
X1492111D01*
X1492777Y1189582D01*
Y1186917D01*
X1492111Y1186250D01*
X1490778D01*
X1490111Y1186917D01*
Y1189582D01*
X1494110Y1186250D02*
Y1188916D01*
X1494776D01*
X1495443Y1188249D01*
Y1186250D01*
Y1188249D01*
X1496109Y1188916D01*
X1496776Y1188249D01*
Y1186250D01*
X1498109D02*
Y1188916D01*
X1498775D01*
X1499442Y1188249D01*
Y1186250D01*
Y1188249D01*
X1500108Y1188916D01*
X1500774Y1188249D01*
Y1186250D01*
X1502107D02*
X1503440Y1187583D01*
Y1188916D01*
X1502107Y1190249D01*
X1434129Y1176250D02*
X1435462D01*
X1434796D01*
Y1180249D01*
X1434129Y1179582D01*
X1437462D02*
X1438128Y1180249D01*
X1439461D01*
X1440127Y1179582D01*
Y1178916D01*
X1439461Y1178249D01*
X1438795D01*
X1439461D01*
X1440127Y1177583D01*
Y1176917D01*
X1439461Y1176250D01*
X1438128D01*
X1437462Y1176917D01*
X1441460Y1179582D02*
X1442127Y1180249D01*
X1443460D01*
X1444126Y1179582D01*
Y1178916D01*
X1443460Y1178249D01*
X1442793D01*
X1443460D01*
X1444126Y1177583D01*
Y1176917D01*
X1443460Y1176250D01*
X1442127D01*
X1441460Y1176917D01*
X1445459Y1176250D02*
Y1176917D01*
X1446126D01*
Y1176250D01*
X1445459D01*
X1448791Y1179582D02*
X1449458Y1180249D01*
X1450791D01*
X1451457Y1179582D01*
Y1178916D01*
X1450791Y1178249D01*
X1451457Y1177583D01*
Y1176917D01*
X1450791Y1176250D01*
X1449458D01*
X1448791Y1176917D01*
Y1177583D01*
X1449458Y1178249D01*
X1448791Y1178916D01*
Y1179582D01*
X1449458Y1178249D02*
X1450791D01*
X1455456Y1180249D02*
X1454123Y1179582D01*
X1452790Y1178249D01*
Y1176917D01*
X1453456Y1176250D01*
X1454789D01*
X1455456Y1176917D01*
Y1177583D01*
X1454789Y1178249D01*
X1452790D01*
X1456789Y1176250D02*
Y1178916D01*
X1457455D01*
X1458122Y1178249D01*
Y1176250D01*
Y1178249D01*
X1458788Y1178916D01*
X1459455Y1178249D01*
Y1176250D01*
X1460787D02*
X1462120D01*
X1461454D01*
Y1178916D01*
X1460787D01*
X1464120Y1176250D02*
X1465453D01*
X1464786D01*
Y1180249D01*
X1464120D01*
X1472783Y1176250D02*
X1471451Y1177583D01*
Y1178916D01*
X1472783Y1180249D01*
X1474783Y1179582D02*
X1475449Y1180249D01*
X1476782D01*
X1477449Y1179582D01*
Y1178916D01*
X1476782Y1178249D01*
X1476116D01*
X1476782D01*
X1477449Y1177583D01*
Y1176917D01*
X1476782Y1176250D01*
X1475449D01*
X1474783Y1176917D01*
X1478782Y1176250D02*
Y1176917D01*
X1479448D01*
Y1176250D01*
X1478782D01*
X1484113D02*
Y1180249D01*
X1482114Y1178249D01*
X1484780D01*
X1486113Y1179582D02*
X1486779Y1180249D01*
X1488112D01*
X1488778Y1179582D01*
Y1176917D01*
X1488112Y1176250D01*
X1486779D01*
X1486113Y1176917D01*
Y1179582D01*
X1490111D02*
X1490778Y1180249D01*
X1492111D01*
X1492777Y1179582D01*
Y1176917D01*
X1492111Y1176250D01*
X1490778D01*
X1490111Y1176917D01*
Y1179582D01*
X1494110Y1176250D02*
Y1178916D01*
X1494776D01*
X1495443Y1178249D01*
Y1176250D01*
Y1178249D01*
X1496109Y1178916D01*
X1496776Y1178249D01*
Y1176250D01*
X1498109D02*
Y1178916D01*
X1498775D01*
X1499442Y1178249D01*
Y1176250D01*
Y1178249D01*
X1500108Y1178916D01*
X1500774Y1178249D01*
Y1176250D01*
X1502107D02*
X1503440Y1177583D01*
Y1178916D01*
X1502107Y1180249D01*
X1386542Y1166916D02*
X1387208Y1166250D01*
X1388541D01*
X1389207Y1166916D01*
Y1169582D01*
X1388541Y1170249D01*
X1387208D01*
X1386542Y1169582D01*
Y1168916D01*
X1387208Y1168249D01*
X1389207D01*
X1393206Y1166250D02*
X1390540D01*
X1393206Y1168916D01*
Y1169582D01*
X1392540Y1170249D01*
X1391207D01*
X1390540Y1169582D01*
X1398538Y1170249D02*
X1401204D01*
X1399871D01*
Y1166250D01*
X1403203D02*
X1404536D01*
X1405202Y1166916D01*
Y1168249D01*
X1404536Y1168916D01*
X1403203D01*
X1402537Y1168249D01*
Y1166916D01*
X1403203Y1166250D01*
X1407202Y1169582D02*
Y1168916D01*
X1406535D01*
X1407868D01*
X1407202D01*
Y1166916D01*
X1407868Y1166250D01*
X1410534Y1168916D02*
X1411867D01*
X1412533Y1168249D01*
Y1166250D01*
X1410534D01*
X1409867Y1166916D01*
X1410534Y1167583D01*
X1412533D01*
X1413866Y1166250D02*
X1415199D01*
X1414533D01*
Y1170249D01*
X1413866D01*
X1388541Y1216250D02*
Y1220249D01*
X1386542Y1218249D01*
X1389207D01*
X1386542Y1206250D02*
X1387875D01*
X1387208D01*
Y1210249D01*
X1386542Y1209582D01*
X1392540Y1210249D02*
X1391207Y1209582D01*
X1389874Y1208249D01*
Y1206917D01*
X1390540Y1206250D01*
X1391873D01*
X1392540Y1206917D01*
Y1207583D01*
X1391873Y1208249D01*
X1389874D01*
X1389207Y1200249D02*
X1387875Y1199582D01*
X1386542Y1198249D01*
Y1196916D01*
X1387208Y1196250D01*
X1388541D01*
X1389207Y1196916D01*
Y1197583D01*
X1388541Y1198249D01*
X1386542D01*
X1390540Y1196916D02*
X1391207Y1196250D01*
X1392540D01*
X1393206Y1196916D01*
Y1199582D01*
X1392540Y1200249D01*
X1391207D01*
X1390540Y1199582D01*
Y1198916D01*
X1391207Y1198249D01*
X1393206D01*
X1389207Y1186250D02*
X1386542D01*
X1389207Y1188916D01*
Y1189582D01*
X1388541Y1190249D01*
X1387208D01*
X1386542Y1189582D01*
Y1176250D02*
X1387875D01*
X1387208D01*
Y1180249D01*
X1386542Y1179582D01*
D96*
X1555587Y1644665D02*
G03*
X1555587Y1644665I-1000J0D01*
G01*
X1549693Y1530921D02*
X1551693D01*
Y1532921D01*
X1549693D02*
X1551693D01*
X1549693Y1530921D02*
Y1532921D01*
X1522658Y1554894D02*
X1524658D01*
Y1556894D01*
X1522658D02*
X1524658D01*
X1522658Y1554894D02*
Y1556894D01*
X1669494Y1528022D02*
X1671494D01*
Y1530022D01*
X1669494D02*
X1671494D01*
X1669494Y1528022D02*
Y1530022D01*
X1572648Y1519565D02*
X1574648D01*
Y1521565D01*
X1572648D02*
X1574648D01*
X1572648Y1519565D02*
Y1521565D01*
X1547433Y1513171D02*
X1549433D01*
Y1515171D01*
X1547433D02*
X1549433D01*
X1547433Y1513171D02*
Y1515171D01*
X1495865Y1518204D02*
X1497865D01*
Y1520204D01*
X1495865D02*
X1497865D01*
X1495865Y1518204D02*
Y1520204D01*
X1520209Y1493968D02*
X1520709Y1493468D01*
X1519709Y1493968D02*
X1520209D01*
X1519709D02*
X1520209Y1494468D01*
X1519709Y1494968D02*
X1520209Y1494468D01*
X1519709Y1494968D02*
X1520209D01*
X1520709Y1495468D01*
X1521209Y1494968D01*
X1521709D01*
X1521209Y1494468D02*
X1521709Y1494968D01*
X1521209Y1494468D02*
X1521709Y1493968D01*
X1521209D02*
X1521709D01*
X1520709Y1493468D02*
X1521209Y1493968D01*
X1524933D02*
X1525433Y1493468D01*
X1524433Y1493968D02*
X1524933D01*
X1524433D02*
X1524933Y1494468D01*
X1524433Y1494968D02*
X1524933Y1494468D01*
X1524433Y1494968D02*
X1524933D01*
X1525433Y1495468D01*
X1525933Y1494968D01*
X1526433D01*
X1525933Y1494468D02*
X1526433Y1494968D01*
X1525933Y1494468D02*
X1526433Y1493968D01*
X1525933D02*
X1526433D01*
X1525433Y1493468D02*
X1525933Y1493968D01*
X1520209Y1489244D02*
X1520709Y1488744D01*
X1519709Y1489244D02*
X1520209D01*
X1519709D02*
X1520209Y1489744D01*
X1519709Y1490244D02*
X1520209Y1489744D01*
X1519709Y1490244D02*
X1520209D01*
X1520709Y1490744D01*
X1521209Y1490244D01*
X1521709D01*
X1521209Y1489744D02*
X1521709Y1490244D01*
X1521209Y1489744D02*
X1521709Y1489244D01*
X1521209D02*
X1521709D01*
X1520709Y1488744D02*
X1521209Y1489244D01*
X1524933D02*
X1525433Y1488744D01*
X1524433Y1489244D02*
X1524933D01*
X1524433D02*
X1524933Y1489744D01*
X1524433Y1490244D02*
X1524933Y1489744D01*
X1524433Y1490244D02*
X1524933D01*
X1525433Y1490744D01*
X1525933Y1490244D01*
X1526433D01*
X1525933Y1489744D02*
X1526433Y1490244D01*
X1525933Y1489744D02*
X1526433Y1489244D01*
X1525933D02*
X1526433D01*
X1525433Y1488744D02*
X1525933Y1489244D01*
X1515484Y1493968D02*
X1515984Y1493468D01*
X1514984Y1493968D02*
X1515484D01*
X1514984D02*
X1515484Y1494468D01*
X1514984Y1494968D02*
X1515484Y1494468D01*
X1514984Y1494968D02*
X1515484D01*
X1515984Y1495468D01*
X1516484Y1494968D01*
X1516984D01*
X1516484Y1494468D02*
X1516984Y1494968D01*
X1516484Y1494468D02*
X1516984Y1493968D01*
X1516484D02*
X1516984D01*
X1515984Y1493468D02*
X1516484Y1493968D01*
X1515484Y1489244D02*
X1515984Y1488744D01*
X1514984Y1489244D02*
X1515484D01*
X1514984D02*
X1515484Y1489744D01*
X1514984Y1490244D02*
X1515484Y1489744D01*
X1514984Y1490244D02*
X1515484D01*
X1515984Y1490744D01*
X1516484Y1490244D01*
X1516984D01*
X1516484Y1489744D02*
X1516984Y1490244D01*
X1516484Y1489744D02*
X1516984Y1489244D01*
X1516484D02*
X1516984D01*
X1515984Y1488744D02*
X1516484Y1489244D01*
X1510760Y1493968D02*
X1511260Y1493468D01*
X1510260Y1493968D02*
X1510760D01*
X1510260D02*
X1510760Y1494468D01*
X1510260Y1494968D02*
X1510760Y1494468D01*
X1510260Y1494968D02*
X1510760D01*
X1511260Y1495468D01*
X1511760Y1494968D01*
X1512260D01*
X1511760Y1494468D02*
X1512260Y1494968D01*
X1511760Y1494468D02*
X1512260Y1493968D01*
X1511760D02*
X1512260D01*
X1511260Y1493468D02*
X1511760Y1493968D01*
X1510760Y1489244D02*
X1511260Y1488744D01*
X1510260Y1489244D02*
X1510760D01*
X1510260D02*
X1510760Y1489744D01*
X1510260Y1490244D02*
X1510760Y1489744D01*
X1510260Y1490244D02*
X1510760D01*
X1511260Y1490744D01*
X1511760Y1490244D01*
X1512260D01*
X1511760Y1489744D02*
X1512260Y1490244D01*
X1511760Y1489744D02*
X1512260Y1489244D01*
X1511760D02*
X1512260D01*
X1511260Y1488744D02*
X1511760Y1489244D01*
X1524933Y1484520D02*
X1525433Y1484020D01*
X1524433Y1484520D02*
X1524933D01*
X1524433D02*
X1524933Y1485020D01*
X1524433Y1485520D02*
X1524933Y1485020D01*
X1524433Y1485520D02*
X1524933D01*
X1525433Y1486020D01*
X1525933Y1485520D01*
X1526433D01*
X1525933Y1485020D02*
X1526433Y1485520D01*
X1525933Y1485020D02*
X1526433Y1484520D01*
X1525933D02*
X1526433D01*
X1525433Y1484020D02*
X1525933Y1484520D01*
X1520209D02*
X1520709Y1484020D01*
X1519709Y1484520D02*
X1520209D01*
X1519709D02*
X1520209Y1485020D01*
X1519709Y1485520D02*
X1520209Y1485020D01*
X1519709Y1485520D02*
X1520209D01*
X1520709Y1486020D01*
X1521209Y1485520D01*
X1521709D01*
X1521209Y1485020D02*
X1521709Y1485520D01*
X1521209Y1485020D02*
X1521709Y1484520D01*
X1521209D02*
X1521709D01*
X1520709Y1484020D02*
X1521209Y1484520D01*
X1520209Y1479795D02*
X1520709Y1479295D01*
X1519709Y1479795D02*
X1520209D01*
X1519709D02*
X1520209Y1480295D01*
X1519709Y1480795D02*
X1520209Y1480295D01*
X1519709Y1480795D02*
X1520209D01*
X1520709Y1481295D01*
X1521209Y1480795D01*
X1521709D01*
X1521209Y1480295D02*
X1521709Y1480795D01*
X1521209Y1480295D02*
X1521709Y1479795D01*
X1521209D02*
X1521709D01*
X1520709Y1479295D02*
X1521209Y1479795D01*
X1524933D02*
X1525433Y1479295D01*
X1524433Y1479795D02*
X1524933D01*
X1524433D02*
X1524933Y1480295D01*
X1524433Y1480795D02*
X1524933Y1480295D01*
X1524433Y1480795D02*
X1524933D01*
X1525433Y1481295D01*
X1525933Y1480795D01*
X1526433D01*
X1525933Y1480295D02*
X1526433Y1480795D01*
X1525933Y1480295D02*
X1526433Y1479795D01*
X1525933D02*
X1526433D01*
X1525433Y1479295D02*
X1525933Y1479795D01*
X1515484Y1484520D02*
X1515984Y1484020D01*
X1514984Y1484520D02*
X1515484D01*
X1514984D02*
X1515484Y1485020D01*
X1514984Y1485520D02*
X1515484Y1485020D01*
X1514984Y1485520D02*
X1515484D01*
X1515984Y1486020D01*
X1516484Y1485520D01*
X1516984D01*
X1516484Y1485020D02*
X1516984Y1485520D01*
X1516484Y1485020D02*
X1516984Y1484520D01*
X1516484D02*
X1516984D01*
X1515984Y1484020D02*
X1516484Y1484520D01*
X1510760D02*
X1511260Y1484020D01*
X1510260Y1484520D02*
X1510760D01*
X1510260D02*
X1510760Y1485020D01*
X1510260Y1485520D02*
X1510760Y1485020D01*
X1510260Y1485520D02*
X1510760D01*
X1511260Y1486020D01*
X1511760Y1485520D01*
X1512260D01*
X1511760Y1485020D02*
X1512260Y1485520D01*
X1511760Y1485020D02*
X1512260Y1484520D01*
X1511760D02*
X1512260D01*
X1511260Y1484020D02*
X1511760Y1484520D01*
X1510760Y1479795D02*
X1511260Y1479295D01*
X1510260Y1479795D02*
X1510760D01*
X1510260D02*
X1510760Y1480295D01*
X1510260Y1480795D02*
X1510760Y1480295D01*
X1510260Y1480795D02*
X1510760D01*
X1511260Y1481295D01*
X1511760Y1480795D01*
X1512260D01*
X1511760Y1480295D02*
X1512260Y1480795D01*
X1511760Y1480295D02*
X1512260Y1479795D01*
X1511760D02*
X1512260D01*
X1511260Y1479295D02*
X1511760Y1479795D01*
X1515484D02*
X1515984Y1479295D01*
X1514984Y1479795D02*
X1515484D01*
X1514984D02*
X1515484Y1480295D01*
X1514984Y1480795D02*
X1515484Y1480295D01*
X1514984Y1480795D02*
X1515484D01*
X1515984Y1481295D01*
X1516484Y1480795D01*
X1516984D01*
X1516484Y1480295D02*
X1516984Y1480795D01*
X1516484Y1480295D02*
X1516984Y1479795D01*
X1516484D02*
X1516984D01*
X1515984Y1479295D02*
X1516484Y1479795D01*
X1609213Y1643764D02*
X1610213Y1645764D01*
X1608213D02*
X1610213D01*
X1608213D02*
X1609213Y1643764D01*
Y1639039D02*
X1610213Y1641039D01*
X1608213D02*
X1610213D01*
X1608213D02*
X1609213Y1639039D01*
X1613937Y1643764D02*
X1614937Y1645764D01*
X1612937D02*
X1614937D01*
X1612937D02*
X1613937Y1643764D01*
Y1639039D02*
X1614937Y1641039D01*
X1612937D02*
X1614937D01*
X1612937D02*
X1613937Y1639039D01*
X1538160Y1499473D02*
X1540160D01*
Y1501472D01*
X1538160D02*
X1540160D01*
X1538160Y1499473D02*
Y1501472D01*
X1631404Y1686677D02*
X1633404D01*
Y1688677D01*
X1631404D02*
X1633404D01*
X1631404Y1686677D02*
Y1688677D01*
X1618449Y1656431D02*
X1620449D01*
Y1658431D01*
X1618449D02*
X1620449D01*
X1618449Y1656431D02*
Y1658431D01*
X1621671Y1648274D02*
X1623671D01*
Y1650274D01*
X1621671D02*
X1623671D01*
X1621671Y1648274D02*
Y1650274D01*
X1617695Y1670467D02*
X1619695D01*
Y1672467D01*
X1617695D02*
X1619695D01*
X1617695Y1670467D02*
Y1672467D01*
X1570417Y1585890D02*
X1572417D01*
Y1587890D01*
X1570417D02*
X1572417D01*
X1570417Y1585890D02*
Y1587890D01*
X1548173Y1574571D02*
X1550173D01*
Y1576571D01*
X1548173D02*
X1550173D01*
X1548173Y1574571D02*
Y1576571D01*
X1559689Y1582445D02*
X1561689D01*
Y1584445D01*
X1559689D02*
X1561689D01*
X1559689Y1582445D02*
Y1584445D01*
X1548173Y1550850D02*
X1550173D01*
Y1552850D01*
X1548173D02*
X1550173D01*
X1548173Y1550850D02*
Y1552850D01*
X1535575Y1538646D02*
X1537575D01*
Y1540646D01*
X1535575D02*
X1537575D01*
X1535575Y1538646D02*
Y1540646D01*
X1531638Y1549669D02*
X1533638D01*
Y1551669D01*
X1531638D02*
X1533638D01*
X1531638Y1549669D02*
Y1551669D01*
X1535673Y1581854D02*
X1537673D01*
Y1583854D01*
X1535673D02*
X1537673D01*
X1535673Y1581854D02*
Y1583854D01*
X1539118Y1586185D02*
X1541118D01*
Y1588185D01*
X1539118D02*
X1541118D01*
X1539118Y1586185D02*
Y1588185D01*
X1579177Y1582740D02*
X1581177D01*
Y1584740D01*
X1579177D02*
X1581177D01*
X1579177Y1582740D02*
Y1584740D01*
X1579374Y1558528D02*
X1581374D01*
Y1560528D01*
X1579374D02*
X1581374D01*
X1579374Y1558528D02*
Y1560528D01*
X1580752Y1538744D02*
X1582752D01*
Y1540744D01*
X1580752D02*
X1582752D01*
X1580752Y1538744D02*
Y1540744D01*
X1590594Y1551638D02*
X1592595D01*
Y1553638D01*
X1590594D02*
X1592595D01*
X1590594Y1551638D02*
Y1553638D01*
X1603094Y1582543D02*
X1605095D01*
Y1584543D01*
X1603094D02*
X1605095D01*
X1603094Y1582543D02*
Y1584543D01*
X1591185Y1574374D02*
X1593185D01*
Y1576374D01*
X1591185D02*
X1593185D01*
X1591185Y1574374D02*
Y1576374D01*
X1541972Y1592583D02*
X1543972D01*
Y1594583D01*
X1541972D02*
X1543972D01*
X1541972Y1592583D02*
Y1594583D01*
X1536756Y1593272D02*
X1538756D01*
Y1595272D01*
X1536756D02*
X1538756D01*
X1536756Y1593272D02*
Y1595272D01*
X1489321Y1489047D02*
X1491321D01*
Y1491047D01*
X1489321D02*
X1491321D01*
X1489321Y1489047D02*
Y1491047D01*
X1484295Y1492484D02*
X1486295D01*
Y1494484D01*
X1484295D02*
X1486295D01*
X1484295Y1492484D02*
Y1494484D01*
X1493843Y1514532D02*
X1495842D01*
Y1516531D01*
X1493843D02*
X1495842D01*
X1493843Y1514532D02*
Y1516531D01*
X1490890Y1509807D02*
X1492890D01*
Y1511807D01*
X1490890D02*
X1492890D01*
X1490890Y1509807D02*
Y1511807D01*
X1533606Y1479886D02*
X1535606D01*
Y1481886D01*
X1533606D02*
X1535606D01*
X1533606Y1479886D02*
Y1481886D01*
X1538823Y1479787D02*
X1540823D01*
Y1481787D01*
X1538823D02*
X1540823D01*
X1538823Y1479787D02*
Y1481787D01*
X1538429Y1511579D02*
X1540429D01*
Y1513579D01*
X1538429D02*
X1540429D01*
X1538429Y1511579D02*
Y1513579D01*
X1533705Y1510791D02*
X1535705D01*
Y1512791D01*
X1533705D02*
X1535705D01*
X1533705Y1510791D02*
Y1512791D01*
X1479571Y1494354D02*
X1481571D01*
Y1496354D01*
X1479571D02*
X1481571D01*
X1479571Y1494354D02*
Y1496354D01*
X1469728Y1487760D02*
X1471728D01*
Y1489760D01*
X1469728D02*
X1471728D01*
X1469728Y1487760D02*
Y1489760D01*
X1744630Y1591500D02*
X1746630D01*
Y1593500D01*
X1744630D02*
X1746630D01*
X1744630Y1591500D02*
Y1593500D01*
X1727209Y1591500D02*
X1729209D01*
Y1593500D01*
X1727209D02*
X1729209D01*
X1727209Y1591500D02*
Y1593500D01*
X1556146Y1526441D02*
X1558146D01*
Y1528441D01*
X1556146D02*
X1558146D01*
X1556146Y1526441D02*
Y1528441D01*
Y1532150D02*
X1558146D01*
Y1534150D01*
X1556146D02*
X1558146D01*
X1556146Y1532150D02*
Y1534150D01*
X1717957Y1544354D02*
X1719957D01*
Y1546354D01*
X1717957D02*
X1719957D01*
X1717957Y1544354D02*
Y1546354D01*
X1723665Y1544221D02*
X1725665D01*
Y1546220D01*
X1723665D02*
X1725665D01*
X1723665Y1544221D02*
Y1546220D01*
X1727898Y1550161D02*
X1729898D01*
Y1552161D01*
X1727898D02*
X1729898D01*
X1727898Y1550161D02*
Y1552161D01*
X1543252Y1475063D02*
X1545252D01*
Y1477063D01*
X1543252D02*
X1545252D01*
X1543252Y1475063D02*
Y1477063D01*
X1493843Y1474472D02*
X1495842D01*
Y1476472D01*
X1493843D02*
X1495842D01*
X1493843Y1474472D02*
Y1476472D01*
X1467858Y1483429D02*
X1469858D01*
Y1485429D01*
X1467858D02*
X1469858D01*
X1467858Y1483429D02*
Y1485429D01*
X1451520Y1525161D02*
X1453520D01*
Y1527161D01*
X1451520D02*
X1453520D01*
X1451520Y1525161D02*
Y1527161D01*
X1700634Y1582347D02*
X1702634D01*
Y1584346D01*
X1700634D02*
X1702634D01*
X1700634Y1582347D02*
Y1584346D01*
X1482720Y1467878D02*
X1484721D01*
Y1469878D01*
X1482720D02*
X1484721D01*
X1482720Y1467878D02*
Y1469878D01*
X1467858Y1478606D02*
X1469858D01*
Y1480606D01*
X1467858D02*
X1469858D01*
X1467858Y1478606D02*
Y1480606D01*
X1580850Y1610693D02*
X1582850D01*
Y1612693D01*
X1580850D02*
X1582850D01*
X1580850Y1610693D02*
Y1612693D01*
X1608114Y1583528D02*
X1610114D01*
Y1585528D01*
X1608114D02*
X1610114D01*
X1608114Y1583528D02*
Y1585528D01*
X1599354Y1631067D02*
X1601354D01*
Y1633067D01*
X1599354D02*
X1601354D01*
X1599354Y1631067D02*
Y1633067D01*
X1647878Y1529886D02*
X1649878D01*
Y1531886D01*
X1647878D02*
X1649878D01*
X1647878Y1529886D02*
Y1531886D01*
X1569728Y1523685D02*
X1571728D01*
Y1525685D01*
X1569728D02*
X1571728D01*
X1569728Y1523685D02*
Y1525685D01*
X1493449Y1465614D02*
X1495449D01*
Y1467614D01*
X1493449D02*
X1495449D01*
X1493449Y1465614D02*
Y1467614D01*
X1538331Y1463449D02*
X1540331D01*
Y1465449D01*
X1538331D02*
X1540331D01*
X1538331Y1463449D02*
Y1465449D01*
X1498475Y1521628D02*
X1500475D01*
Y1523627D01*
X1498475D02*
X1500475D01*
X1498475Y1521628D02*
Y1523627D01*
X1493646Y1504689D02*
X1495646D01*
Y1506689D01*
X1493646D02*
X1495646D01*
X1493646Y1504689D02*
Y1506689D01*
X1496008Y1492780D02*
X1498008D01*
Y1494779D01*
X1496008D02*
X1498008D01*
X1496008Y1492780D02*
Y1494779D01*
X1497779Y1504197D02*
X1499780D01*
Y1506197D01*
X1497779D02*
X1499780D01*
X1497779Y1504197D02*
Y1506197D01*
X1679276Y1565221D02*
X1681276D01*
Y1567220D01*
X1679276D02*
X1681276D01*
X1679276Y1565221D02*
Y1567220D01*
X1679374Y1559315D02*
X1681374D01*
Y1561315D01*
X1679374D02*
X1681374D01*
X1679374Y1559315D02*
Y1561315D01*
X1508114Y1470339D02*
X1510114D01*
Y1472339D01*
X1508114D02*
X1510114D01*
X1508114Y1470339D02*
Y1472339D01*
X1604859Y1654131D02*
X1606859D01*
Y1656131D01*
X1604859D02*
X1606859D01*
X1604859Y1654131D02*
Y1656131D01*
X1613921Y1654394D02*
X1615921D01*
Y1656394D01*
X1613921D02*
X1615921D01*
X1613921Y1654394D02*
Y1656394D01*
X1622386Y1638252D02*
X1624386D01*
Y1640252D01*
X1622386D02*
X1624386D01*
X1622386Y1638252D02*
Y1640252D01*
X1599945Y1651244D02*
X1601945D01*
Y1653244D01*
X1599945D02*
X1601945D01*
X1599945Y1651244D02*
Y1653244D01*
X1491874Y1426441D02*
X1492874Y1426941D01*
X1493874Y1426441D01*
X1493374Y1427441D02*
X1493874Y1426441D01*
X1493374Y1427441D02*
X1493874Y1428441D01*
X1492874Y1427941D02*
X1493874Y1428441D01*
X1491874D02*
X1492874Y1427941D01*
X1491874Y1428441D02*
X1492374Y1427441D01*
X1491874Y1426441D02*
X1492374Y1427441D01*
X1773370Y1563252D02*
X1774370Y1563752D01*
X1775370Y1563252D01*
X1774870Y1564252D02*
X1775370Y1563252D01*
X1774870Y1564252D02*
X1775370Y1565252D01*
X1774370Y1564752D02*
X1775370Y1565252D01*
X1773370D02*
X1774370Y1564752D01*
X1773370Y1565252D02*
X1773870Y1564252D01*
X1773370Y1563252D02*
X1773870Y1564252D01*
D97*
X7693250Y7453250D02*
X7957182D01*
X7693250Y7403250D02*
X7957182D01*
X7693250Y7393250D02*
X7957182D01*
Y7463250D01*
X7693250D02*
X7957182D01*
X7693250Y7393250D02*
Y7463250D01*
X7904195Y7393250D02*
Y7463250D01*
X7869403Y7393250D02*
Y7463250D01*
X7778629Y7393250D02*
Y7463250D01*
X7731042Y7393250D02*
Y7463250D01*
X1345750Y1223250D02*
X1659668D01*
X1345750Y1173250D02*
X1659668D01*
X1345750Y1163250D02*
X1659668D01*
Y1233250D01*
X1345750D02*
X1659668D01*
X1345750Y1163250D02*
Y1233250D01*
X1606682Y1163250D02*
Y1233250D01*
X1556695Y1163250D02*
Y1233250D01*
X1521903Y1163250D02*
Y1233250D01*
X1431129Y1163250D02*
Y1233250D01*
X1383542Y1163250D02*
Y1233250D01*
D98*
X7907195Y7461048D02*
Y7456250D01*
Y7458649D01*
X7910394D01*
Y7461048D01*
Y7456250D01*
X7912793D02*
X7914392D01*
X7915192Y7457050D01*
Y7458649D01*
X7914392Y7459449D01*
X7912793D01*
X7911993Y7458649D01*
Y7457050D01*
X7912793Y7456250D01*
X7916792D02*
X7918391D01*
X7917591D01*
Y7461048D01*
X7916792D01*
X7923190Y7456250D02*
X7921590D01*
X7920790Y7457050D01*
Y7458649D01*
X7921590Y7459449D01*
X7923190D01*
X7923989Y7458649D01*
Y7457849D01*
X7920790D01*
X7930387Y7461048D02*
X7933586D01*
X7931987D01*
Y7456250D01*
X7935186Y7459449D02*
Y7457050D01*
X7935986Y7456250D01*
X7938385D01*
Y7455450D01*
X7937585Y7454651D01*
X7936785D01*
X7938385Y7456250D02*
Y7459449D01*
X7939984Y7454651D02*
Y7459449D01*
X7942384D01*
X7943183Y7458649D01*
Y7457050D01*
X7942384Y7456250D01*
X7939984D01*
X7947182D02*
X7945583D01*
X7944782Y7457050D01*
Y7458649D01*
X7945583Y7459449D01*
X7947182D01*
X7947981Y7458649D01*
Y7457849D01*
X7944782D01*
X7872403Y7456250D02*
Y7461048D01*
X7874802D01*
X7875602Y7460249D01*
Y7458649D01*
X7874802Y7457849D01*
X7872403D01*
X7877201Y7456250D02*
X7878801D01*
X7878001D01*
Y7461048D01*
X7877201D01*
X7882000Y7459449D02*
X7883599D01*
X7884399Y7458649D01*
Y7456250D01*
X7882000D01*
X7881200Y7457050D01*
X7882000Y7457849D01*
X7884399D01*
X7886798Y7460249D02*
Y7459449D01*
X7885999D01*
X7887598D01*
X7886798D01*
Y7457050D01*
X7887598Y7456250D01*
X7892397D02*
X7890797D01*
X7889997Y7457050D01*
Y7458649D01*
X7890797Y7459449D01*
X7892397D01*
X7893196Y7458649D01*
Y7457849D01*
X7889997D01*
X7897995Y7461048D02*
Y7456250D01*
X7895596D01*
X7894796Y7457050D01*
Y7458649D01*
X7895596Y7459449D01*
X7897995D01*
X7784828Y7461048D02*
X7781629D01*
Y7458649D01*
X7783229D01*
X7781629D01*
Y7456250D01*
X7786428D02*
X7788027D01*
X7787228D01*
Y7459449D01*
X7786428D01*
X7790427Y7456250D02*
Y7459449D01*
X7792826D01*
X7793626Y7458649D01*
Y7456250D01*
X7795225D02*
X7796825D01*
X7796024D01*
Y7459449D01*
X7795225D01*
X7799223Y7456250D02*
X7801623D01*
X7802422Y7457050D01*
X7801623Y7457849D01*
X7800024D01*
X7799223Y7458649D01*
X7800024Y7459449D01*
X7802422D01*
X7804022Y7461048D02*
Y7456250D01*
Y7458649D01*
X7804822Y7459449D01*
X7806422D01*
X7807221Y7458649D01*
Y7456250D01*
X7811220D02*
X7809621D01*
X7808820Y7457050D01*
Y7458649D01*
X7809621Y7459449D01*
X7811220D01*
X7812019Y7458649D01*
Y7457849D01*
X7808820D01*
X7816818Y7461048D02*
Y7456250D01*
X7814419D01*
X7813619Y7457050D01*
Y7458649D01*
X7814419Y7459449D01*
X7816818D01*
X7823216Y7461048D02*
Y7456250D01*
Y7458649D01*
X7826415D01*
Y7461048D01*
Y7456250D01*
X7828814D02*
X7830414D01*
X7831213Y7457050D01*
Y7458649D01*
X7830414Y7459449D01*
X7828814D01*
X7828014Y7458649D01*
Y7457050D01*
X7828814Y7456250D01*
X7832812D02*
X7834412D01*
X7833613D01*
Y7461048D01*
X7832812D01*
X7839211Y7456250D02*
X7837611D01*
X7836812Y7457050D01*
Y7458649D01*
X7837611Y7459449D01*
X7839211D01*
X7840011Y7458649D01*
Y7457849D01*
X7836812D01*
X7849607Y7460249D02*
X7848808Y7461048D01*
X7847208D01*
X7846408Y7460249D01*
Y7459449D01*
X7847208Y7458649D01*
X7848808D01*
X7849607Y7457849D01*
Y7457050D01*
X7848808Y7456250D01*
X7847208D01*
X7846408Y7457050D01*
X7851207Y7456250D02*
X7852806D01*
X7852007D01*
Y7459449D01*
X7851207D01*
X7855206D02*
X7858405D01*
X7855206Y7456250D01*
X7858405D01*
X7862403D02*
X7860804D01*
X7860004Y7457050D01*
Y7458649D01*
X7860804Y7459449D01*
X7862403D01*
X7863203Y7458649D01*
Y7457849D01*
X7860004D01*
X7734042Y7461048D02*
Y7456250D01*
Y7458649D01*
X7737241D01*
Y7461048D01*
Y7456250D01*
X7738840D02*
X7740440D01*
X7739640D01*
Y7459449D01*
X7738840D01*
X7743639Y7460249D02*
Y7459449D01*
X7742839D01*
X7744438D01*
X7743639D01*
Y7457050D01*
X7744438Y7456250D01*
X7754835Y7460249D02*
X7754035Y7461048D01*
X7752436D01*
X7751636Y7460249D01*
Y7457050D01*
X7752436Y7456250D01*
X7754035D01*
X7754835Y7457050D01*
X7757234Y7456250D02*
X7758834D01*
X7759634Y7457050D01*
Y7458649D01*
X7758834Y7459449D01*
X7757234D01*
X7756435Y7458649D01*
Y7457050D01*
X7757234Y7456250D01*
X7761233Y7459449D02*
Y7457050D01*
X7762033Y7456250D01*
X7764432D01*
Y7459449D01*
X7766032Y7456250D02*
Y7459449D01*
X7768430D01*
X7769231Y7458649D01*
Y7456250D01*
X7771629Y7460249D02*
Y7459449D01*
X7770830D01*
X7772430D01*
X7771629D01*
Y7457050D01*
X7772430Y7456250D01*
X7702449Y7460249D02*
X7701649Y7461048D01*
X7700050D01*
X7699250Y7460249D01*
Y7459449D01*
X7700050Y7458649D01*
X7701649D01*
X7702449Y7457849D01*
Y7457050D01*
X7701649Y7456250D01*
X7700050D01*
X7699250Y7457050D01*
X7704048Y7459449D02*
Y7457050D01*
X7704848Y7456250D01*
X7707247D01*
Y7455450D01*
X7706448Y7454651D01*
X7705648D01*
X7707247Y7456250D02*
Y7459449D01*
X7708847Y7456250D02*
Y7459449D01*
X7709647D01*
X7710446Y7458649D01*
Y7456250D01*
Y7458649D01*
X7711246Y7459449D01*
X7712046Y7458649D01*
Y7456250D01*
X7713645Y7461048D02*
Y7456250D01*
X7716045D01*
X7716844Y7457050D01*
Y7457849D01*
Y7458649D01*
X7716045Y7459449D01*
X7713645D01*
X7719244Y7456250D02*
X7720843D01*
X7721643Y7457050D01*
Y7458649D01*
X7720843Y7459449D01*
X7719244D01*
X7718444Y7458649D01*
Y7457050D01*
X7719244Y7456250D01*
X7723242D02*
X7724842D01*
X7724042D01*
Y7461048D01*
X7723242D01*
X1609682Y1231048D02*
X1612881D01*
X1611281D01*
Y1226250D01*
X1615280D02*
X1616879D01*
X1617679Y1227050D01*
Y1228649D01*
X1616879Y1229449D01*
X1615280D01*
X1614480Y1228649D01*
Y1227050D01*
X1615280Y1226250D01*
X1619279D02*
X1620878D01*
X1620078D01*
Y1231048D01*
X1619279D01*
X1625676Y1226250D02*
X1624077D01*
X1623277Y1227050D01*
Y1228649D01*
X1624077Y1229449D01*
X1625676D01*
X1626476Y1228649D01*
Y1227849D01*
X1623277D01*
X1628076Y1229449D02*
Y1226250D01*
Y1227849D01*
X1628875Y1228649D01*
X1629675Y1229449D01*
X1630475D01*
X1633674D02*
X1635273D01*
X1636073Y1228649D01*
Y1226250D01*
X1633674D01*
X1632874Y1227050D01*
X1633674Y1227849D01*
X1636073D01*
X1637672Y1226250D02*
Y1229449D01*
X1640072D01*
X1640871Y1228649D01*
Y1226250D01*
X1645670Y1229449D02*
X1643271D01*
X1642471Y1228649D01*
Y1227050D01*
X1643271Y1226250D01*
X1645670D01*
X1649669D02*
X1648069D01*
X1647269Y1227050D01*
Y1228649D01*
X1648069Y1229449D01*
X1649669D01*
X1650468Y1228649D01*
Y1227849D01*
X1647269D01*
X1559695Y1231048D02*
Y1226250D01*
Y1228649D01*
X1562894D01*
Y1231048D01*
Y1226250D01*
X1565293D02*
X1566892D01*
X1567692Y1227050D01*
Y1228649D01*
X1566892Y1229449D01*
X1565293D01*
X1564493Y1228649D01*
Y1227050D01*
X1565293Y1226250D01*
X1569292D02*
X1570891D01*
X1570091D01*
Y1231048D01*
X1569292D01*
X1575690Y1226250D02*
X1574090D01*
X1573290Y1227050D01*
Y1228649D01*
X1574090Y1229449D01*
X1575690D01*
X1576489Y1228649D01*
Y1227849D01*
X1573290D01*
X1582887Y1231048D02*
X1586086D01*
X1584487D01*
Y1226250D01*
X1587686Y1229449D02*
Y1227050D01*
X1588485Y1226250D01*
X1590885D01*
Y1225450D01*
X1590085Y1224650D01*
X1589285D01*
X1590885Y1226250D02*
Y1229449D01*
X1592484Y1224650D02*
Y1229449D01*
X1594883D01*
X1595683Y1228649D01*
Y1227050D01*
X1594883Y1226250D01*
X1592484D01*
X1599682D02*
X1598082D01*
X1597283Y1227050D01*
Y1228649D01*
X1598082Y1229449D01*
X1599682D01*
X1600482Y1228649D01*
Y1227849D01*
X1597283D01*
X1524903Y1226250D02*
Y1231048D01*
X1527302D01*
X1528102Y1230249D01*
Y1228649D01*
X1527302Y1227849D01*
X1524903D01*
X1529701Y1226250D02*
X1531301D01*
X1530501D01*
Y1231048D01*
X1529701D01*
X1534500Y1229449D02*
X1536099D01*
X1536899Y1228649D01*
Y1226250D01*
X1534500D01*
X1533700Y1227050D01*
X1534500Y1227849D01*
X1536899D01*
X1539298Y1230249D02*
Y1229449D01*
X1538499D01*
X1540098D01*
X1539298D01*
Y1227050D01*
X1540098Y1226250D01*
X1544897D02*
X1543297D01*
X1542497Y1227050D01*
Y1228649D01*
X1543297Y1229449D01*
X1544897D01*
X1545696Y1228649D01*
Y1227849D01*
X1542497D01*
X1550495Y1231048D02*
Y1226250D01*
X1548096D01*
X1547296Y1227050D01*
Y1228649D01*
X1548096Y1229449D01*
X1550495D01*
X1437328Y1231048D02*
X1434129D01*
Y1228649D01*
X1435729D01*
X1434129D01*
Y1226250D01*
X1438928D02*
X1440527D01*
X1439727D01*
Y1229449D01*
X1438928D01*
X1442927Y1226250D02*
Y1229449D01*
X1445326D01*
X1446126Y1228649D01*
Y1226250D01*
X1447725D02*
X1449324D01*
X1448525D01*
Y1229449D01*
X1447725D01*
X1451724Y1226250D02*
X1454123D01*
X1454923Y1227050D01*
X1454123Y1227849D01*
X1452523D01*
X1451724Y1228649D01*
X1452523Y1229449D01*
X1454923D01*
X1456522Y1231048D02*
Y1226250D01*
Y1228649D01*
X1457322Y1229449D01*
X1458921D01*
X1459721Y1228649D01*
Y1226250D01*
X1463720D02*
X1462120D01*
X1461321Y1227050D01*
Y1228649D01*
X1462120Y1229449D01*
X1463720D01*
X1464520Y1228649D01*
Y1227849D01*
X1461321D01*
X1469318Y1231048D02*
Y1226250D01*
X1466919D01*
X1466119Y1227050D01*
Y1228649D01*
X1466919Y1229449D01*
X1469318D01*
X1475716Y1231048D02*
Y1226250D01*
Y1228649D01*
X1478915D01*
Y1231048D01*
Y1226250D01*
X1481314D02*
X1482914D01*
X1483713Y1227050D01*
Y1228649D01*
X1482914Y1229449D01*
X1481314D01*
X1480514Y1228649D01*
Y1227050D01*
X1481314Y1226250D01*
X1485313D02*
X1486912D01*
X1486112D01*
Y1231048D01*
X1485313D01*
X1491711Y1226250D02*
X1490111D01*
X1489312Y1227050D01*
Y1228649D01*
X1490111Y1229449D01*
X1491711D01*
X1492511Y1228649D01*
Y1227849D01*
X1489312D01*
X1502107Y1230249D02*
X1501308Y1231048D01*
X1499708D01*
X1498908Y1230249D01*
Y1229449D01*
X1499708Y1228649D01*
X1501308D01*
X1502107Y1227849D01*
Y1227050D01*
X1501308Y1226250D01*
X1499708D01*
X1498908Y1227050D01*
X1503707Y1226250D02*
X1505306D01*
X1504507D01*
Y1229449D01*
X1503707D01*
X1507706D02*
X1510905D01*
X1507706Y1226250D01*
X1510905D01*
X1514903D02*
X1513304D01*
X1512504Y1227050D01*
Y1228649D01*
X1513304Y1229449D01*
X1514903D01*
X1515703Y1228649D01*
Y1227849D01*
X1512504D01*
X1386542Y1231048D02*
Y1226250D01*
Y1228649D01*
X1389741D01*
Y1231048D01*
Y1226250D01*
X1391340D02*
X1392940D01*
X1392140D01*
Y1229449D01*
X1391340D01*
X1396139Y1230249D02*
Y1229449D01*
X1395339D01*
X1396938D01*
X1396139D01*
Y1227050D01*
X1396938Y1226250D01*
X1407335Y1230249D02*
X1406535Y1231048D01*
X1404936D01*
X1404136Y1230249D01*
Y1227050D01*
X1404936Y1226250D01*
X1406535D01*
X1407335Y1227050D01*
X1409734Y1226250D02*
X1411334D01*
X1412134Y1227050D01*
Y1228649D01*
X1411334Y1229449D01*
X1409734D01*
X1408934Y1228649D01*
Y1227050D01*
X1409734Y1226250D01*
X1413733Y1229449D02*
Y1227050D01*
X1414533Y1226250D01*
X1416932D01*
Y1229449D01*
X1418531Y1226250D02*
Y1229449D01*
X1420931D01*
X1421730Y1228649D01*
Y1226250D01*
X1424130Y1230249D02*
Y1229449D01*
X1423330D01*
X1424929D01*
X1424130D01*
Y1227050D01*
X1424929Y1226250D01*
X1354949Y1230249D02*
X1354149Y1231048D01*
X1352550D01*
X1351750Y1230249D01*
Y1229449D01*
X1352550Y1228649D01*
X1354149D01*
X1354949Y1227849D01*
Y1227050D01*
X1354149Y1226250D01*
X1352550D01*
X1351750Y1227050D01*
X1356549Y1229449D02*
Y1227050D01*
X1357348Y1226250D01*
X1359747D01*
Y1225450D01*
X1358948Y1224650D01*
X1358148D01*
X1359747Y1226250D02*
Y1229449D01*
X1361347Y1226250D02*
Y1229449D01*
X1362147D01*
X1362946Y1228649D01*
Y1226250D01*
Y1228649D01*
X1363746Y1229449D01*
X1364546Y1228649D01*
Y1226250D01*
X1366145Y1231048D02*
Y1226250D01*
X1368545D01*
X1369344Y1227050D01*
Y1227849D01*
Y1228649D01*
X1368545Y1229449D01*
X1366145D01*
X1371743Y1226250D02*
X1373343D01*
X1374143Y1227050D01*
Y1228649D01*
X1373343Y1229449D01*
X1371743D01*
X1370944Y1228649D01*
Y1227050D01*
X1371743Y1226250D01*
X1375742D02*
X1377342D01*
X1376542D01*
Y1231048D01*
X1375742D01*
M02*
