G04 Layer_Color=128*
%FSLAX25Y25*%
%MOIN*%
G70*
G01*
G75*
%ADD96C,0.00200*%
D96*
X1767677Y1564252D02*
X1781063D01*
X1774370Y1557559D02*
Y1570945D01*
X1486181Y1427441D02*
X1499567D01*
X1492874Y1420748D02*
Y1434134D01*
X1547894Y1644665D02*
X1561279D01*
X1554587Y1637972D02*
Y1651358D01*
X1600158Y1652244D02*
X1601732D01*
X1600945Y1651457D02*
Y1653032D01*
X1622598Y1639252D02*
X1624173D01*
X1623386Y1638465D02*
Y1640039D01*
X1614134Y1655394D02*
X1615709D01*
X1614921Y1654606D02*
Y1656181D01*
X1605071Y1655131D02*
X1606646D01*
X1605859Y1654344D02*
Y1655919D01*
X1508327Y1471339D02*
X1509902D01*
X1509114Y1470551D02*
Y1472126D01*
X1679587Y1560315D02*
X1681161D01*
X1680374Y1559528D02*
Y1561102D01*
X1679488Y1566220D02*
X1681063D01*
X1680276Y1565433D02*
Y1567008D01*
X1497992Y1505197D02*
X1499567D01*
X1498779Y1504409D02*
Y1505984D01*
X1496220Y1493779D02*
X1497795D01*
X1497008Y1492992D02*
Y1494567D01*
X1493858Y1505689D02*
X1495433D01*
X1494646Y1504902D02*
Y1506476D01*
X1498688Y1522628D02*
X1500263D01*
X1499475Y1521840D02*
Y1523415D01*
X1538543Y1464449D02*
X1540118D01*
X1539331Y1463661D02*
Y1465236D01*
X1493661Y1466614D02*
X1495236D01*
X1494449Y1465827D02*
Y1467402D01*
X1569941Y1524685D02*
X1571516D01*
X1570728Y1523898D02*
Y1525472D01*
X1648091Y1530886D02*
X1649665D01*
X1648878Y1530098D02*
Y1531673D01*
X1599567Y1632067D02*
X1601142D01*
X1600354Y1631280D02*
Y1632854D01*
X1608327Y1584528D02*
X1609902D01*
X1609114Y1583740D02*
Y1585315D01*
X1581063Y1611693D02*
X1582638D01*
X1581850Y1610905D02*
Y1612480D01*
X1468071Y1479606D02*
X1469646D01*
X1468858Y1478819D02*
Y1480394D01*
X1482933Y1468878D02*
X1484508D01*
X1483720Y1468091D02*
Y1469665D01*
X1700846Y1583346D02*
X1702421D01*
X1701634Y1582559D02*
Y1584134D01*
X1451732Y1526161D02*
X1453307D01*
X1452520Y1525374D02*
Y1526949D01*
X1468071Y1484429D02*
X1469646D01*
X1468858Y1483642D02*
Y1485217D01*
X1494055Y1475472D02*
X1495630D01*
X1494843Y1474685D02*
Y1476260D01*
X1543465Y1476063D02*
X1545039D01*
X1544252Y1475276D02*
Y1476850D01*
X1728110Y1551161D02*
X1729685D01*
X1728898Y1550374D02*
Y1551949D01*
X1723878Y1545220D02*
X1725453D01*
X1724665Y1544433D02*
Y1546008D01*
X1718169Y1545354D02*
X1719744D01*
X1718957Y1544567D02*
Y1546142D01*
X1556358Y1533150D02*
X1557933D01*
X1557146Y1532362D02*
Y1533937D01*
X1556358Y1527441D02*
X1557933D01*
X1557146Y1526653D02*
Y1528228D01*
X1727421Y1592500D02*
X1728996D01*
X1728209Y1591713D02*
Y1593287D01*
X1744843Y1592500D02*
X1746417D01*
X1745630Y1591713D02*
Y1593287D01*
X1469941Y1488760D02*
X1471516D01*
X1470728Y1487972D02*
Y1489547D01*
X1479784Y1495354D02*
X1481358D01*
X1480571Y1494567D02*
Y1496142D01*
X1533917Y1511791D02*
X1535492D01*
X1534705Y1511004D02*
Y1512579D01*
X1538642D02*
X1540217D01*
X1539429Y1511791D02*
Y1513366D01*
X1539035Y1480787D02*
X1540610D01*
X1539823Y1480000D02*
Y1481575D01*
X1533819Y1480886D02*
X1535394D01*
X1534606Y1480098D02*
Y1481673D01*
X1491102Y1510807D02*
X1492677D01*
X1491890Y1510020D02*
Y1511594D01*
X1494055Y1515532D02*
X1495630D01*
X1494843Y1514744D02*
Y1516319D01*
X1484508Y1493484D02*
X1486083D01*
X1485295Y1492697D02*
Y1494272D01*
X1489534Y1490047D02*
X1491109D01*
X1490321Y1489260D02*
Y1490835D01*
X1536969Y1594272D02*
X1538543D01*
X1537756Y1593484D02*
Y1595059D01*
X1542185Y1593583D02*
X1543760D01*
X1542972Y1592795D02*
Y1594370D01*
X1591398Y1575374D02*
X1592972D01*
X1592185Y1574587D02*
Y1576161D01*
X1603307Y1583543D02*
X1604882D01*
X1604095Y1582756D02*
Y1584331D01*
X1590807Y1552638D02*
X1592382D01*
X1591595Y1551850D02*
Y1553425D01*
X1580965Y1539744D02*
X1582539D01*
X1581752Y1538957D02*
Y1540532D01*
X1579587Y1559528D02*
X1581161D01*
X1580374Y1558740D02*
Y1560315D01*
X1579390Y1583740D02*
X1580965D01*
X1580177Y1582953D02*
Y1584528D01*
X1539331Y1587185D02*
X1540905D01*
X1540118Y1586398D02*
Y1587972D01*
X1535886Y1582854D02*
X1537461D01*
X1536673Y1582067D02*
Y1583642D01*
X1531850Y1550669D02*
X1533425D01*
X1532638Y1549882D02*
Y1551457D01*
X1535787Y1539646D02*
X1537362D01*
X1536575Y1538858D02*
Y1540433D01*
X1548386Y1551850D02*
X1549961D01*
X1549173Y1551063D02*
Y1552638D01*
X1559902Y1583445D02*
X1561476D01*
X1560689Y1582658D02*
Y1584232D01*
X1548386Y1575571D02*
X1549961D01*
X1549173Y1574784D02*
Y1576358D01*
X1570630Y1586890D02*
X1572205D01*
X1571417Y1586102D02*
Y1587677D01*
X1617908Y1671467D02*
X1619483D01*
X1618695Y1670680D02*
Y1672255D01*
X1621883Y1649274D02*
X1623458D01*
X1622671Y1648487D02*
Y1650062D01*
X1618661Y1657431D02*
X1620236D01*
X1619449Y1656644D02*
Y1658219D01*
X1631617Y1687677D02*
X1633192D01*
X1632404Y1686890D02*
Y1688465D01*
X1538372Y1500473D02*
X1539947D01*
X1539160Y1499685D02*
Y1501260D01*
X1613187Y1640039D02*
X1614687D01*
X1613937Y1639289D02*
Y1640789D01*
X1613187Y1644764D02*
X1614687D01*
X1613937Y1644014D02*
Y1645514D01*
X1608463Y1640039D02*
X1609963D01*
X1609213Y1639289D02*
Y1640789D01*
X1608463Y1644764D02*
X1609963D01*
X1609213Y1644014D02*
Y1645514D01*
X1515335Y1480295D02*
X1516634D01*
X1515984Y1479646D02*
Y1480945D01*
X1510610Y1480295D02*
X1511909D01*
X1511260Y1479646D02*
Y1480945D01*
X1510610Y1485020D02*
X1511909D01*
X1511260Y1484370D02*
Y1485669D01*
X1515335Y1485020D02*
X1516634D01*
X1515984Y1484370D02*
Y1485669D01*
X1524784Y1480295D02*
X1526083D01*
X1525433Y1479646D02*
Y1480945D01*
X1520059Y1480295D02*
X1521358D01*
X1520709Y1479646D02*
Y1480945D01*
X1520059Y1485020D02*
X1521358D01*
X1520709Y1484370D02*
Y1485669D01*
X1524784Y1485020D02*
X1526083D01*
X1525433Y1484370D02*
Y1485669D01*
X1510610Y1489744D02*
X1511909D01*
X1511260Y1489094D02*
Y1490394D01*
X1510610Y1494468D02*
X1511909D01*
X1511260Y1493819D02*
Y1495118D01*
X1515335Y1489744D02*
X1516634D01*
X1515984Y1489094D02*
Y1490394D01*
X1515335Y1494468D02*
X1516634D01*
X1515984Y1493819D02*
Y1495118D01*
X1524784Y1489744D02*
X1526083D01*
X1525433Y1489094D02*
Y1490394D01*
X1520059Y1489744D02*
X1521358D01*
X1520709Y1489094D02*
Y1490394D01*
X1524784Y1494468D02*
X1526083D01*
X1525433Y1493819D02*
Y1495118D01*
X1520059Y1494468D02*
X1521358D01*
X1520709Y1493819D02*
Y1495118D01*
X1496078Y1519204D02*
X1497652D01*
X1496865Y1518417D02*
Y1519992D01*
X1547646Y1514171D02*
X1549220D01*
X1548433Y1513384D02*
Y1514958D01*
X1572860Y1520565D02*
X1574435D01*
X1573648Y1519778D02*
Y1521353D01*
X1669707Y1529022D02*
X1671282D01*
X1670494Y1528235D02*
Y1529810D01*
X1522871Y1555894D02*
X1524446D01*
X1523658Y1555107D02*
Y1556682D01*
X1549905Y1531921D02*
X1551480D01*
X1550693Y1531133D02*
Y1532708D01*
M02*
