G04 Layer_Color=12566463*
%FSLAX25Y25*%
%MOIN*%
G70*
G01*
G75*
%ADD14C,0.00700*%
%ADD18C,0.01000*%
%ADD52C,0.00800*%
%ADD54C,0.00787*%
%ADD55C,0.01181*%
%ADD91C,0.00984*%
%ADD92C,0.02362*%
%ADD93C,0.00500*%
%ADD94C,0.00600*%
%ADD95C,0.01969*%
D14*
X1645669Y1526779D02*
X1647201Y1528065D01*
X1648140Y1527983D01*
X1648997Y1526962D01*
X1648914Y1526023D01*
X1647383Y1524737D01*
X1645851Y1523452D02*
X1644830Y1522596D01*
X1643891Y1522678D01*
X1643035Y1523699D01*
X1643117Y1524638D01*
X1644138Y1525494D01*
X1645077Y1525412D01*
X1645933Y1524391D01*
X1645851Y1523452D01*
X1643299Y1521310D02*
X1641585Y1523352D01*
X1640053Y1522067D01*
X1639971Y1521128D01*
X1641256Y1519597D01*
X1638522Y1520782D02*
X1638011Y1520354D01*
X1638440Y1519843D01*
X1638950Y1520272D01*
X1638522Y1520782D01*
X1639807Y1519250D02*
X1639297Y1518822D01*
X1639725Y1518312D01*
X1640235Y1518740D01*
X1639807Y1519250D01*
X1632906Y1516070D02*
X1634620Y1514028D01*
X1633763Y1515049D01*
X1632824Y1515131D01*
X1631885Y1515213D01*
X1631374Y1514785D01*
X1631556Y1511457D02*
X1630535Y1510601D01*
X1631046Y1511029D01*
X1629332Y1513071D01*
X1629843Y1513500D01*
X1625248Y1509644D02*
X1626780Y1510929D01*
X1627719Y1510847D01*
X1628575Y1509826D01*
X1628493Y1508887D01*
X1626962Y1507602D01*
X1623370Y1509808D02*
X1625941Y1506745D01*
X1624655Y1508277D01*
X1623716Y1508359D01*
X1622695Y1507502D01*
X1622613Y1506563D01*
X1623898Y1505032D01*
X1622367Y1503746D02*
X1621346Y1502890D01*
X1620407Y1502972D01*
X1619550Y1503993D01*
X1619632Y1504932D01*
X1620653Y1505789D01*
X1621592Y1505706D01*
X1622449Y1504685D01*
X1622367Y1503746D01*
X1617426Y1501340D02*
X1616997Y1501851D01*
X1617508Y1502279D01*
X1617936Y1501769D01*
X1617426Y1501340D01*
X1616487Y1501423D01*
X1615630Y1502444D01*
X1615712Y1503382D01*
X1616733Y1504239D01*
X1617672Y1504157D01*
X1619386Y1502115D01*
X1619304Y1501176D01*
X1617772Y1499891D01*
X1617608Y1498013D02*
X1615037Y1501076D01*
X1613506Y1499791D01*
X1613424Y1498852D01*
X1614280Y1497831D01*
X1615219Y1497749D01*
X1616751Y1499034D01*
X1613688Y1496464D02*
X1612156Y1495179D01*
X1611217Y1495261D01*
X1611299Y1496200D01*
X1612320Y1497056D01*
X1612403Y1497995D01*
X1611464Y1498078D01*
X1609932Y1496792D01*
X1608911Y1495936D02*
X1610196Y1494404D01*
X1610114Y1493465D01*
X1608582Y1492180D01*
X1609011Y1491669D01*
X1609950Y1491587D01*
X1610460Y1492016D01*
X1608582Y1492180D02*
X1606869Y1494222D01*
X1603806Y1491652D02*
X1605337Y1492937D01*
X1606276Y1492855D01*
X1607133Y1491834D01*
X1607051Y1490895D01*
X1605519Y1489610D01*
X1601928Y1491816D02*
X1604498Y1488753D01*
X1603213Y1490285D01*
X1602274Y1490367D01*
X1601253Y1489510D01*
X1601171Y1488571D01*
X1602456Y1487039D01*
X1599293Y1488735D02*
X1598354Y1488817D01*
X1597333Y1487961D01*
X1597251Y1487022D01*
X1598965Y1484980D01*
X1599903Y1484897D01*
X1600924Y1485754D01*
X1601007Y1486693D01*
X1599293Y1488735D01*
X1595719Y1485736D02*
X1596148Y1485226D01*
X1596658Y1485654D01*
X1595637Y1484798D01*
X1596148Y1485226D01*
X1597433Y1483694D01*
X1597351Y1482755D01*
X1595819Y1481470D02*
X1594798Y1480614D01*
X1595309Y1481042D01*
X1593595Y1483084D01*
X1594106Y1483512D01*
X1593266Y1479328D02*
X1590696Y1482392D01*
X1592410Y1480350D02*
X1590021Y1480085D01*
X1592410Y1480350D02*
X1591735Y1478043D01*
X1590203Y1476758D02*
X1589775Y1477269D01*
X1589264Y1476840D01*
X1589693Y1476330D01*
X1590203Y1476758D01*
X1587651Y1474616D02*
X1585937Y1476658D01*
X1584406Y1475373D01*
X1584323Y1474434D01*
X1585608Y1472903D01*
X1583056Y1470761D02*
X1584077Y1471617D01*
X1584159Y1472556D01*
X1583302Y1473577D01*
X1582363Y1473660D01*
X1581342Y1472803D01*
X1581260Y1471864D01*
X1581688Y1471353D01*
X1583731Y1473067D01*
X1578872Y1471600D02*
X1579300Y1471089D01*
X1579811Y1471518D01*
X1578790Y1470661D01*
X1579300Y1471089D01*
X1580585Y1469558D01*
X1580503Y1468619D01*
X1645204Y1531482D02*
X1643672Y1530197D01*
X1642733Y1530279D01*
X1642815Y1531218D01*
X1643836Y1532075D01*
X1643918Y1533013D01*
X1642979Y1533095D01*
X1641448Y1531810D01*
X1640427Y1530954D02*
X1641712Y1529422D01*
X1641630Y1528483D01*
X1640691Y1528565D01*
X1640609Y1527626D01*
X1639670Y1527709D01*
X1638385Y1529240D01*
X1637364Y1528383D02*
X1636853Y1527955D01*
X1637281Y1527444D01*
X1637792Y1527873D01*
X1637364Y1528383D01*
X1638649Y1526852D02*
X1638138Y1526423D01*
X1638567Y1525913D01*
X1639077Y1526341D01*
X1638649Y1526852D01*
X1630398Y1519059D02*
X1628685Y1521101D01*
X1628174Y1520672D01*
X1628092Y1519733D01*
X1629377Y1518202D01*
X1628092Y1519733D01*
X1627153Y1519816D01*
X1627071Y1518877D01*
X1628356Y1517345D01*
X1627335Y1516488D02*
X1626314Y1515631D01*
X1626824Y1516060D01*
X1625111Y1518102D01*
X1625621Y1518530D01*
X1624782Y1514346D02*
X1622212Y1517410D01*
X1623926Y1515367D02*
X1621537Y1515103D01*
X1623926Y1515367D02*
X1623251Y1513061D01*
X1620188Y1510491D02*
X1621209Y1511348D01*
X1621291Y1512286D01*
X1620434Y1513308D01*
X1619495Y1513390D01*
X1618474Y1512533D01*
X1618392Y1511594D01*
X1618820Y1511084D01*
X1620862Y1512797D01*
X1616268Y1508942D02*
X1615839Y1509452D01*
X1616350Y1509881D01*
X1616778Y1509370D01*
X1616268Y1508942D01*
X1615329Y1509024D01*
X1614472Y1510045D01*
X1614554Y1510984D01*
X1615575Y1511841D01*
X1616514Y1511758D01*
X1618228Y1509716D01*
X1618145Y1508777D01*
X1616614Y1507492D01*
X1615593Y1506635D02*
X1614572Y1505779D01*
X1615082Y1506207D01*
X1613369Y1508249D01*
X1613879Y1508677D01*
X1609284Y1504822D02*
X1610816Y1506107D01*
X1611755Y1506025D01*
X1612612Y1505004D01*
X1612530Y1504065D01*
X1610998Y1502780D01*
X1608445Y1500638D02*
X1609466Y1501495D01*
X1609549Y1502434D01*
X1608692Y1503455D01*
X1607753Y1503537D01*
X1606732Y1502680D01*
X1606650Y1501741D01*
X1607078Y1501231D01*
X1609120Y1502944D01*
X1606485Y1499863D02*
X1606403Y1498924D01*
X1605382Y1498068D01*
X1604443Y1498150D01*
X1602730Y1500192D01*
X1602812Y1501131D01*
X1603833Y1501988D01*
X1604772Y1501905D01*
X1605200Y1501395D01*
X1605118Y1500456D01*
X1603586Y1499171D01*
X1603851Y1496782D02*
X1603422Y1497293D01*
X1602912Y1496865D01*
X1603340Y1496354D01*
X1603851Y1496782D01*
X1599584Y1496683D02*
X1600869Y1495151D01*
X1600787Y1494212D01*
X1599256Y1492927D01*
X1597542Y1494969D01*
X1598235Y1492070D02*
X1596703Y1490785D01*
X1595764Y1490867D01*
X1595846Y1491806D01*
X1596867Y1492663D01*
X1596949Y1493602D01*
X1596011Y1493684D01*
X1594479Y1492399D01*
X1638412Y1539576D02*
X1640982Y1536513D01*
X1639697Y1538044D01*
X1638758Y1538126D01*
X1637737Y1537270D01*
X1637655Y1536331D01*
X1638940Y1534799D01*
X1636205Y1535984D02*
X1637491Y1534453D01*
X1637408Y1533514D01*
X1636469Y1533596D01*
X1636387Y1532657D01*
X1635448Y1532739D01*
X1634163Y1534271D01*
X1633142Y1533414D02*
X1632632Y1532986D01*
X1633060Y1532475D01*
X1633571Y1532904D01*
X1633142Y1533414D01*
X1634427Y1531882D02*
X1633917Y1531454D01*
X1634345Y1530944D01*
X1634856Y1531372D01*
X1634427Y1531882D01*
X1626177Y1524089D02*
X1624463Y1526132D01*
X1622932Y1524846D01*
X1622849Y1523907D01*
X1624135Y1522376D01*
X1623114Y1521519D02*
X1622092Y1520662D01*
X1622603Y1521091D01*
X1620889Y1523133D01*
X1621400Y1523561D01*
X1616805Y1519706D02*
X1618337Y1520991D01*
X1619276Y1520909D01*
X1620132Y1519888D01*
X1620050Y1518949D01*
X1618519Y1517664D01*
X1616987Y1516378D02*
X1615966Y1515522D01*
X1615027Y1515604D01*
X1614170Y1516625D01*
X1614253Y1517564D01*
X1615274Y1518421D01*
X1616213Y1518338D01*
X1617069Y1517317D01*
X1616987Y1516378D01*
X1612046Y1513972D02*
X1611618Y1514483D01*
X1612128Y1514911D01*
X1612557Y1514401D01*
X1612046Y1513972D01*
X1611107Y1514055D01*
X1610250Y1515076D01*
X1610333Y1516015D01*
X1611354Y1516871D01*
X1612293Y1516789D01*
X1614006Y1514747D01*
X1613924Y1513808D01*
X1612392Y1512523D01*
X1609658Y1513708D02*
X1611371Y1511666D01*
X1610515Y1512687D01*
X1609576Y1512769D01*
X1608637Y1512852D01*
X1608126Y1512423D01*
X1607798Y1508667D02*
X1606776Y1507811D01*
X1605838Y1507893D01*
X1604981Y1508914D01*
X1605063Y1509853D01*
X1606084Y1510710D01*
X1607023Y1510627D01*
X1607880Y1509606D01*
X1607798Y1508667D01*
X1603531Y1508568D02*
X1604817Y1507036D01*
X1604734Y1506097D01*
X1603203Y1504812D01*
X1601489Y1506854D01*
X1599529Y1506079D02*
X1599958Y1505569D01*
X1600468Y1505997D01*
X1599447Y1505141D01*
X1599958Y1505569D01*
X1601243Y1504037D01*
X1601161Y1503098D01*
X1598098Y1500528D02*
X1599119Y1501385D01*
X1599201Y1502324D01*
X1598344Y1503345D01*
X1597405Y1503427D01*
X1596384Y1502570D01*
X1596302Y1501631D01*
X1596730Y1501121D01*
X1598772Y1502834D01*
X1591953Y1500593D02*
X1594524Y1497529D01*
X1596055Y1498815D01*
X1596138Y1499753D01*
X1595281Y1500775D01*
X1594342Y1500857D01*
X1592810Y1499572D01*
X1593503Y1496673D02*
X1593074Y1497183D01*
X1592564Y1496755D01*
X1592992Y1496244D01*
X1593503Y1496673D01*
X1590950Y1494531D02*
X1589237Y1496573D01*
X1587705Y1495288D01*
X1587623Y1494349D01*
X1588908Y1492817D01*
X1586355Y1490675D02*
X1587376Y1491532D01*
X1587459Y1492471D01*
X1586602Y1493492D01*
X1585663Y1493574D01*
X1584642Y1492717D01*
X1584560Y1491778D01*
X1584988Y1491268D01*
X1587030Y1492982D01*
X1582171Y1491514D02*
X1582600Y1491004D01*
X1583110Y1491432D01*
X1582089Y1490575D01*
X1582600Y1491004D01*
X1583885Y1489472D01*
X1583803Y1488533D01*
D18*
X1615210Y1548774D02*
G03*
X1615210Y1548774I-44000J0D01*
G01*
X1606210D02*
G03*
X1606210Y1548774I-35000J0D01*
G01*
X1712658Y1573209D02*
X1716595D01*
X1712658Y1569272D02*
Y1573209D01*
X1714626Y1559429D02*
Y1571240D01*
Y1559429D02*
X1726437D01*
Y1571240D01*
X1714626D02*
X1726437D01*
X1515709Y1434527D02*
Y1436890D01*
X1511378Y1442008D02*
X1520039D01*
Y1423110D02*
Y1442008D01*
X1511378Y1423110D02*
X1520039D01*
X1511378D02*
Y1442008D01*
X1509803Y1447126D02*
X1521614D01*
X1514882Y1464492D02*
X1519882D01*
X1520882D01*
X1513882D02*
X1519882D01*
X1513882D02*
Y1471492D01*
X1520882D01*
Y1464492D02*
Y1471492D01*
X1513882Y1462992D02*
X1520882D01*
X1551210Y1538774D02*
X1620422D01*
X1551210Y1548774D02*
X1601209D01*
X1551210Y1538774D02*
Y1548774D01*
X1616209D02*
X1620422D01*
Y1538774D02*
Y1548774D01*
X1626209Y1531174D02*
Y1536174D01*
X1623709Y1533674D02*
X1628709D01*
X1595827Y1693386D02*
X1631260D01*
X1442677Y1529311D02*
X1455374D01*
X1442677Y1509232D02*
Y1529311D01*
Y1509232D02*
X1455276D01*
X1479882Y1529311D02*
X1492480D01*
Y1509232D02*
Y1529311D01*
X1479980Y1509232D02*
X1492480D01*
X1612756Y1591024D02*
X1618661D01*
X1612756Y1592008D02*
X1618661D01*
X1612756Y1592992D02*
X1618661D01*
D52*
X1534974Y1475332D02*
Y1479147D01*
X1532171Y1472529D02*
X1534974Y1475332D01*
X1521919Y1472529D02*
X1532171D01*
X1520882Y1471492D02*
X1521919Y1472529D01*
X1608905Y1608421D02*
Y1604422D01*
X1606905D01*
X1606239Y1605088D01*
Y1607754D01*
X1606905Y1608421D01*
X1608905D01*
X1604906Y1604422D02*
X1603573D01*
X1604240D01*
Y1608421D01*
X1604906Y1607754D01*
X1601574D02*
X1600907Y1608421D01*
X1599574D01*
X1598908Y1607754D01*
Y1607088D01*
X1599574Y1606421D01*
X1598908Y1605755D01*
Y1605088D01*
X1599574Y1604422D01*
X1600907D01*
X1601574Y1605088D01*
Y1605755D01*
X1600907Y1606421D01*
X1601574Y1607088D01*
Y1607754D01*
X1600907Y1606421D02*
X1599574D01*
X1584409Y1595810D02*
Y1591811D01*
X1582410D01*
X1581744Y1592478D01*
Y1595143D01*
X1582410Y1595810D01*
X1584409D01*
X1580411Y1591811D02*
X1579078D01*
X1579744D01*
Y1595810D01*
X1580411Y1595143D01*
X1577079D02*
X1576412Y1595810D01*
X1575079D01*
X1574413Y1595143D01*
Y1594477D01*
X1575079Y1593810D01*
X1575746D01*
X1575079D01*
X1574413Y1593144D01*
Y1592478D01*
X1575079Y1591811D01*
X1576412D01*
X1577079Y1592478D01*
X1667374Y1535104D02*
X1668040Y1535770D01*
X1669373D01*
X1670039Y1535104D01*
Y1534437D01*
X1669373Y1533771D01*
X1668040D01*
X1667374Y1533105D01*
Y1532438D01*
X1668040Y1531772D01*
X1669373D01*
X1670039Y1532438D01*
X1666041Y1535770D02*
Y1531772D01*
X1664708Y1533105D01*
X1663375Y1531772D01*
Y1535770D01*
X1662042Y1535104D02*
X1661375Y1535770D01*
X1660043D01*
X1659376Y1535104D01*
Y1534437D01*
X1660043Y1533771D01*
X1660709D01*
X1660043D01*
X1659376Y1533105D01*
Y1532438D01*
X1660043Y1531772D01*
X1661375D01*
X1662042Y1532438D01*
X1728397Y1555773D02*
X1729064Y1556440D01*
X1730396D01*
X1731063Y1555773D01*
Y1553107D01*
X1730396Y1552441D01*
X1729064D01*
X1728397Y1553107D01*
X1724398Y1552441D02*
X1727064D01*
X1724398Y1555107D01*
Y1555773D01*
X1725065Y1556440D01*
X1726398D01*
X1727064Y1555773D01*
X1718555Y1583332D02*
X1719221Y1583999D01*
X1720554D01*
X1721221Y1583332D01*
Y1580667D01*
X1720554Y1580000D01*
X1719221D01*
X1718555Y1580667D01*
X1717222Y1580000D02*
X1715889D01*
X1716555D01*
Y1583999D01*
X1717222Y1583332D01*
X1710689Y1573270D02*
Y1569938D01*
X1710023Y1569272D01*
X1708690D01*
X1708023Y1569938D01*
Y1573270D01*
X1706690Y1569272D02*
X1705357D01*
X1706024D01*
Y1573270D01*
X1706690Y1572604D01*
X1593797Y1673898D02*
X1597795D01*
Y1671898D01*
X1597129Y1671232D01*
X1594463D01*
X1593797Y1671898D01*
Y1673898D01*
X1597795Y1667233D02*
Y1669899D01*
X1595129Y1667233D01*
X1594463D01*
X1593797Y1667900D01*
Y1669233D01*
X1594463Y1669899D01*
Y1665900D02*
X1593797Y1665234D01*
Y1663901D01*
X1594463Y1663234D01*
X1597129D01*
X1597795Y1663901D01*
Y1665234D01*
X1597129Y1665900D01*
X1594463D01*
X1466238Y1503228D02*
X1470236Y1500563D01*
X1466238D02*
X1470236Y1503228D01*
Y1496564D02*
Y1499230D01*
X1467570Y1496564D01*
X1466904D01*
X1466238Y1497230D01*
Y1498563D01*
X1466904Y1499230D01*
X1487658Y1466479D02*
X1484992Y1462480D01*
Y1466479D02*
X1487658Y1462480D01*
X1483659D02*
X1482326D01*
X1482992D01*
Y1466479D01*
X1483659Y1465813D01*
X1498915Y1494468D02*
X1502247D01*
X1502913Y1493802D01*
Y1492469D01*
X1502247Y1491803D01*
X1498915D01*
X1499581Y1490470D02*
X1498915Y1489803D01*
Y1488470D01*
X1499581Y1487804D01*
X1500248D01*
X1500914Y1488470D01*
Y1489137D01*
Y1488470D01*
X1501581Y1487804D01*
X1502247D01*
X1502913Y1488470D01*
Y1489803D01*
X1502247Y1490470D01*
X1451156Y1500563D02*
X1450490Y1501229D01*
Y1502562D01*
X1451156Y1503228D01*
X1453822D01*
X1454488Y1502562D01*
Y1501229D01*
X1453822Y1500563D01*
X1454488Y1499230D02*
Y1497897D01*
Y1498563D01*
X1450490D01*
X1451156Y1499230D01*
X1454488Y1495897D02*
Y1494565D01*
Y1495231D01*
X1450490D01*
X1451156Y1495897D01*
Y1486783D02*
X1450490Y1487449D01*
Y1488782D01*
X1451156Y1489449D01*
X1453822D01*
X1454488Y1488782D01*
Y1487449D01*
X1453822Y1486783D01*
X1454488Y1485450D02*
Y1484117D01*
Y1484784D01*
X1450490D01*
X1451156Y1485450D01*
Y1482118D02*
X1450490Y1481451D01*
Y1480118D01*
X1451156Y1479452D01*
X1453822D01*
X1454488Y1480118D01*
Y1481451D01*
X1453822Y1482118D01*
X1451156D01*
X1485008Y1477258D02*
X1484342Y1476592D01*
X1483009D01*
X1482343Y1477258D01*
Y1479924D01*
X1483009Y1480591D01*
X1484342D01*
X1485008Y1479924D01*
X1489007Y1476592D02*
X1486341D01*
Y1478591D01*
X1487674Y1477925D01*
X1488341D01*
X1489007Y1478591D01*
Y1479924D01*
X1488341Y1480591D01*
X1487008D01*
X1486341Y1479924D01*
X1459030Y1473988D02*
X1458364Y1474654D01*
Y1475987D01*
X1459030Y1476653D01*
X1461696D01*
X1462362Y1475987D01*
Y1474654D01*
X1461696Y1473988D01*
X1462362Y1470656D02*
X1458364D01*
X1460363Y1472655D01*
Y1469989D01*
X1593797Y1652244D02*
X1597129D01*
X1597795Y1651578D01*
Y1650245D01*
X1597129Y1649578D01*
X1593797D01*
X1597795Y1646246D02*
X1593797D01*
X1595796Y1648245D01*
Y1645580D01*
X1682137Y1587269D02*
X1682804Y1587936D01*
X1684137D01*
X1684803Y1587269D01*
Y1586603D01*
X1684137Y1585936D01*
X1682804D01*
X1682137Y1585270D01*
Y1584604D01*
X1682804Y1583937D01*
X1684137D01*
X1684803Y1584604D01*
X1680804Y1587936D02*
Y1583937D01*
X1679472Y1585270D01*
X1678139Y1583937D01*
Y1587936D01*
X1674140Y1583937D02*
X1676806D01*
X1674140Y1586603D01*
Y1587269D01*
X1674806Y1587936D01*
X1676139D01*
X1676806Y1587269D01*
X1682137Y1537072D02*
X1682804Y1537739D01*
X1684137D01*
X1684803Y1537072D01*
Y1536406D01*
X1684137Y1535740D01*
X1682804D01*
X1682137Y1535073D01*
Y1534407D01*
X1682804Y1533740D01*
X1684137D01*
X1684803Y1534407D01*
X1680804Y1537739D02*
Y1533740D01*
X1679472Y1535073D01*
X1678139Y1533740D01*
Y1537739D01*
X1676806Y1533740D02*
X1675473D01*
X1676139D01*
Y1537739D01*
X1676806Y1537072D01*
X1634311Y1653917D02*
X1630312D01*
Y1651918D01*
X1630979Y1651251D01*
X1632312D01*
X1632978Y1651918D01*
Y1653917D01*
Y1652584D02*
X1634311Y1651251D01*
Y1649919D02*
Y1648586D01*
Y1649252D01*
X1630312D01*
X1630979Y1649919D01*
X1630312Y1643921D02*
X1630979Y1645254D01*
X1632312Y1646586D01*
X1633645D01*
X1634311Y1645920D01*
Y1644587D01*
X1633645Y1643921D01*
X1632978D01*
X1632312Y1644587D01*
Y1646586D01*
X1619843Y1610512D02*
Y1614511D01*
X1617843D01*
X1617177Y1613844D01*
Y1612511D01*
X1617843Y1611845D01*
X1619843D01*
X1618510D02*
X1617177Y1610512D01*
X1615844D02*
X1614511D01*
X1615177D01*
Y1614511D01*
X1615844Y1613844D01*
X1609846Y1614511D02*
X1612511D01*
Y1612511D01*
X1611179Y1613178D01*
X1610512D01*
X1609846Y1612511D01*
Y1611178D01*
X1610512Y1610512D01*
X1611845D01*
X1612511Y1611178D01*
X1619843Y1604606D02*
Y1608605D01*
X1617843D01*
X1617177Y1607939D01*
Y1606606D01*
X1617843Y1605939D01*
X1619843D01*
X1618510D02*
X1617177Y1604606D01*
X1615844D02*
X1614511D01*
X1615177D01*
Y1608605D01*
X1615844Y1607939D01*
X1610512Y1604606D02*
Y1608605D01*
X1612511Y1606606D01*
X1609846D01*
X1556850Y1482559D02*
X1552852D01*
Y1480560D01*
X1553518Y1479893D01*
X1554851D01*
X1555517Y1480560D01*
Y1482559D01*
Y1481226D02*
X1556850Y1479893D01*
Y1478560D02*
Y1477227D01*
Y1477894D01*
X1552852D01*
X1553518Y1478560D01*
Y1475228D02*
X1552852Y1474562D01*
Y1473229D01*
X1553518Y1472562D01*
X1554185D01*
X1554851Y1473229D01*
Y1473895D01*
Y1473229D01*
X1555517Y1472562D01*
X1556184D01*
X1556850Y1473229D01*
Y1474562D01*
X1556184Y1475228D01*
X1556850Y1497323D02*
X1552852D01*
Y1495323D01*
X1553518Y1494657D01*
X1554851D01*
X1555517Y1495323D01*
Y1497323D01*
Y1495990D02*
X1556850Y1494657D01*
Y1493324D02*
Y1491991D01*
Y1492658D01*
X1552852D01*
X1553518Y1493324D01*
X1556850Y1487326D02*
Y1489992D01*
X1554185Y1487326D01*
X1553518D01*
X1552852Y1487992D01*
Y1489325D01*
X1553518Y1489992D01*
X1526339Y1524882D02*
Y1528881D01*
X1524339D01*
X1523673Y1528214D01*
Y1526881D01*
X1524339Y1526215D01*
X1526339D01*
X1525006D02*
X1523673Y1524882D01*
X1522340D02*
X1521007D01*
X1521673D01*
Y1528881D01*
X1522340Y1528214D01*
X1519008Y1524882D02*
X1517675D01*
X1518341D01*
Y1528881D01*
X1519008Y1528214D01*
X1513543Y1524882D02*
Y1528881D01*
X1511544D01*
X1510878Y1528214D01*
Y1526881D01*
X1511544Y1526215D01*
X1513543D01*
X1512210D02*
X1510878Y1524882D01*
X1509545D02*
X1508212D01*
X1508878D01*
Y1528881D01*
X1509545Y1528214D01*
X1506212D02*
X1505546Y1528881D01*
X1504213D01*
X1503547Y1528214D01*
Y1525548D01*
X1504213Y1524882D01*
X1505546D01*
X1506212Y1525548D01*
Y1528214D01*
X1681850Y1572126D02*
Y1576125D01*
X1679851D01*
X1679185Y1575458D01*
Y1574125D01*
X1679851Y1573459D01*
X1681850D01*
X1680518D02*
X1679185Y1572126D01*
X1677852Y1572792D02*
X1677185Y1572126D01*
X1675852D01*
X1675186Y1572792D01*
Y1575458D01*
X1675852Y1576125D01*
X1677185D01*
X1677852Y1575458D01*
Y1574792D01*
X1677185Y1574125D01*
X1675186D01*
X1681850Y1578032D02*
Y1582030D01*
X1679851D01*
X1679185Y1581364D01*
Y1580031D01*
X1679851Y1579364D01*
X1681850D01*
X1680518D02*
X1679185Y1578032D01*
X1677852Y1581364D02*
X1677185Y1582030D01*
X1675852D01*
X1675186Y1581364D01*
Y1580697D01*
X1675852Y1580031D01*
X1675186Y1579364D01*
Y1578698D01*
X1675852Y1578032D01*
X1677185D01*
X1677852Y1578698D01*
Y1579364D01*
X1677185Y1580031D01*
X1677852Y1580697D01*
Y1581364D01*
X1677185Y1580031D02*
X1675852D01*
X1491890Y1544567D02*
Y1548566D01*
X1489890D01*
X1489224Y1547899D01*
Y1546566D01*
X1489890Y1545900D01*
X1491890D01*
X1490557D02*
X1489224Y1544567D01*
X1487891Y1548566D02*
X1485225D01*
Y1547899D01*
X1487891Y1545233D01*
Y1544567D01*
X1491890Y1538661D02*
Y1542660D01*
X1489890D01*
X1489224Y1541994D01*
Y1540661D01*
X1489890Y1539994D01*
X1491890D01*
X1490557D02*
X1489224Y1538661D01*
X1485225Y1542660D02*
X1486558Y1541994D01*
X1487891Y1540661D01*
Y1539328D01*
X1487225Y1538661D01*
X1485892D01*
X1485225Y1539328D01*
Y1539994D01*
X1485892Y1540661D01*
X1487891D01*
X1491890Y1531772D02*
Y1535770D01*
X1489890D01*
X1489224Y1535104D01*
Y1533771D01*
X1489890Y1533105D01*
X1491890D01*
X1490557D02*
X1489224Y1531772D01*
X1485225Y1535770D02*
X1487891D01*
Y1533771D01*
X1486558Y1534437D01*
X1485892D01*
X1485225Y1533771D01*
Y1532438D01*
X1485892Y1531772D01*
X1487225D01*
X1487891Y1532438D01*
X1472402Y1492795D02*
X1468403D01*
Y1490796D01*
X1469069Y1490129D01*
X1470402D01*
X1471069Y1490796D01*
Y1492795D01*
Y1491462D02*
X1472402Y1490129D01*
Y1486797D02*
X1468403D01*
X1470402Y1488797D01*
Y1486131D01*
X1483622Y1494665D02*
Y1498664D01*
X1481623D01*
X1480956Y1497998D01*
Y1496665D01*
X1481623Y1495998D01*
X1483622D01*
X1482289D02*
X1480956Y1494665D01*
X1479623Y1497998D02*
X1478957Y1498664D01*
X1477624D01*
X1476958Y1497998D01*
Y1497331D01*
X1477624Y1496665D01*
X1478290D01*
X1477624D01*
X1476958Y1495998D01*
Y1495332D01*
X1477624Y1494665D01*
X1478957D01*
X1479623Y1495332D01*
X1578504Y1609528D02*
Y1613526D01*
X1576505D01*
X1575838Y1612860D01*
Y1611527D01*
X1576505Y1610860D01*
X1578504D01*
X1577171D02*
X1575838Y1609528D01*
X1571839D02*
X1574505D01*
X1571839Y1612193D01*
Y1612860D01*
X1572506Y1613526D01*
X1573839D01*
X1574505Y1612860D01*
X1578504Y1615433D02*
Y1619432D01*
X1576505D01*
X1575838Y1618765D01*
Y1617432D01*
X1576505Y1616766D01*
X1578504D01*
X1577171D02*
X1575838Y1615433D01*
X1574505D02*
X1573172D01*
X1573839D01*
Y1619432D01*
X1574505Y1618765D01*
X1531198Y1458937D02*
X1535197D01*
Y1456271D01*
Y1452273D02*
Y1454938D01*
X1532531Y1452273D01*
X1531865D01*
X1531198Y1452939D01*
Y1454272D01*
X1531865Y1454938D01*
X1508560Y1454016D02*
X1512559D01*
Y1451350D01*
Y1450017D02*
Y1448684D01*
Y1449351D01*
X1508560D01*
X1509227Y1450017D01*
X1435529Y1522807D02*
Y1524139D01*
Y1523473D01*
X1438861D01*
X1439528Y1524139D01*
Y1524806D01*
X1438861Y1525472D01*
X1439528Y1521474D02*
Y1520141D01*
Y1520807D01*
X1435529D01*
X1436195Y1521474D01*
X1633167Y1672807D02*
Y1674140D01*
Y1673473D01*
X1636499D01*
X1637165Y1674140D01*
Y1674806D01*
X1636499Y1675472D01*
X1633833Y1671474D02*
X1633167Y1670807D01*
Y1669474D01*
X1633833Y1668808D01*
X1634500D01*
X1635166Y1669474D01*
Y1670141D01*
Y1669474D01*
X1635832Y1668808D01*
X1636499D01*
X1637165Y1669474D01*
Y1670807D01*
X1636499Y1671474D01*
X1607896Y1591024D02*
X1603898D01*
Y1593023D01*
X1604564Y1593689D01*
X1607230D01*
X1607896Y1593023D01*
Y1591024D01*
X1603898Y1595022D02*
Y1596355D01*
Y1595689D01*
X1607896D01*
X1607230Y1595022D01*
X1607896Y1598355D02*
Y1601020D01*
X1607230D01*
X1604564Y1598355D01*
X1603898D01*
X1608031Y1614511D02*
Y1610512D01*
X1606032D01*
X1605366Y1611178D01*
Y1613844D01*
X1606032Y1614511D01*
X1608031D01*
X1604033Y1610512D02*
X1602700D01*
X1603366D01*
Y1614511D01*
X1604033Y1613844D01*
X1600701Y1611178D02*
X1600034Y1610512D01*
X1598701D01*
X1598035Y1611178D01*
Y1613844D01*
X1598701Y1614511D01*
X1600034D01*
X1600701Y1613844D01*
Y1613178D01*
X1600034Y1612511D01*
X1598035D01*
X1584409Y1601715D02*
Y1597717D01*
X1582410D01*
X1581744Y1598383D01*
Y1601049D01*
X1582410Y1601715D01*
X1584409D01*
X1580411Y1597717D02*
X1579078D01*
X1579744D01*
Y1601715D01*
X1580411Y1601049D01*
X1574413Y1601715D02*
X1575746Y1601049D01*
X1577079Y1599716D01*
Y1598383D01*
X1576412Y1597717D01*
X1575079D01*
X1574413Y1598383D01*
Y1599049D01*
X1575079Y1599716D01*
X1577079D01*
X1596220Y1605652D02*
Y1601653D01*
X1594221D01*
X1593555Y1602320D01*
Y1604986D01*
X1594221Y1605652D01*
X1596220D01*
X1592222Y1601653D02*
X1590889D01*
X1591555D01*
Y1605652D01*
X1592222Y1604986D01*
X1586224Y1605652D02*
X1588890D01*
Y1603653D01*
X1587557Y1604319D01*
X1586890D01*
X1586224Y1603653D01*
Y1602320D01*
X1586890Y1601653D01*
X1588223D01*
X1588890Y1602320D01*
X1596220Y1599747D02*
Y1595748D01*
X1594221D01*
X1593555Y1596414D01*
Y1599080D01*
X1594221Y1599747D01*
X1596220D01*
X1592222Y1595748D02*
X1590889D01*
X1591555D01*
Y1599747D01*
X1592222Y1599080D01*
X1586890Y1595748D02*
Y1599747D01*
X1588890Y1597747D01*
X1586224D01*
X1572598Y1599747D02*
Y1595748D01*
X1570599D01*
X1569933Y1596414D01*
Y1599080D01*
X1570599Y1599747D01*
X1572598D01*
X1568600Y1595748D02*
X1567267D01*
X1567933D01*
Y1599747D01*
X1568600Y1599080D01*
X1562602Y1595748D02*
X1565267D01*
X1562602Y1598414D01*
Y1599080D01*
X1563268Y1599747D01*
X1564601D01*
X1565267Y1599080D01*
X1572598Y1605652D02*
Y1601653D01*
X1570599D01*
X1569933Y1602320D01*
Y1604986D01*
X1570599Y1605652D01*
X1572598D01*
X1568600Y1601653D02*
X1567267D01*
X1567933D01*
Y1605652D01*
X1568600Y1604986D01*
X1565267Y1601653D02*
X1563935D01*
X1564601D01*
Y1605652D01*
X1565267Y1604986D01*
X1584409Y1607621D02*
Y1603622D01*
X1582410D01*
X1581744Y1604288D01*
Y1606954D01*
X1582410Y1607621D01*
X1584409D01*
X1580411Y1603622D02*
X1579078D01*
X1579744D01*
Y1607621D01*
X1580411Y1606954D01*
X1577079D02*
X1576412Y1607621D01*
X1575079D01*
X1574413Y1606954D01*
Y1604288D01*
X1575079Y1603622D01*
X1576412D01*
X1577079Y1604288D01*
Y1606954D01*
X1552913Y1601715D02*
Y1597717D01*
X1550914D01*
X1550248Y1598383D01*
Y1601049D01*
X1550914Y1601715D01*
X1552913D01*
X1548915Y1598383D02*
X1548248Y1597717D01*
X1546915D01*
X1546249Y1598383D01*
Y1601049D01*
X1546915Y1601715D01*
X1548248D01*
X1548915Y1601049D01*
Y1600382D01*
X1548248Y1599716D01*
X1546249D01*
X1560787Y1605652D02*
Y1601653D01*
X1558788D01*
X1558122Y1602320D01*
Y1604986D01*
X1558788Y1605652D01*
X1560787D01*
X1556789Y1604986D02*
X1556122Y1605652D01*
X1554789D01*
X1554123Y1604986D01*
Y1604319D01*
X1554789Y1603653D01*
X1554123Y1602986D01*
Y1602320D01*
X1554789Y1601653D01*
X1556122D01*
X1556789Y1602320D01*
Y1602986D01*
X1556122Y1603653D01*
X1556789Y1604319D01*
Y1604986D01*
X1556122Y1603653D02*
X1554789D01*
X1560787Y1599747D02*
Y1595748D01*
X1558788D01*
X1558122Y1596414D01*
Y1599080D01*
X1558788Y1599747D01*
X1560787D01*
X1556789D02*
X1554123D01*
Y1599080D01*
X1556789Y1596414D01*
Y1595748D01*
X1552913Y1595810D02*
Y1591811D01*
X1550914D01*
X1550248Y1592478D01*
Y1595143D01*
X1550914Y1595810D01*
X1552913D01*
X1546249D02*
X1547582Y1595143D01*
X1548915Y1593810D01*
Y1592478D01*
X1548248Y1591811D01*
X1546915D01*
X1546249Y1592478D01*
Y1593144D01*
X1546915Y1593810D01*
X1548915D01*
X1545039Y1599747D02*
Y1595748D01*
X1543040D01*
X1542374Y1596414D01*
Y1599080D01*
X1543040Y1599747D01*
X1545039D01*
X1538375D02*
X1541041D01*
Y1597747D01*
X1539708Y1598414D01*
X1539041D01*
X1538375Y1597747D01*
Y1596414D01*
X1539041Y1595748D01*
X1540374D01*
X1541041Y1596414D01*
X1545039Y1605652D02*
Y1601653D01*
X1543040D01*
X1542374Y1602320D01*
Y1604986D01*
X1543040Y1605652D01*
X1545039D01*
X1539041Y1601653D02*
Y1605652D01*
X1541041Y1603653D01*
X1538375D01*
X1552913Y1607621D02*
Y1603622D01*
X1550914D01*
X1550248Y1604288D01*
Y1606954D01*
X1550914Y1607621D01*
X1552913D01*
X1548915Y1606954D02*
X1548248Y1607621D01*
X1546915D01*
X1546249Y1606954D01*
Y1606288D01*
X1546915Y1605621D01*
X1547582D01*
X1546915D01*
X1546249Y1604955D01*
Y1604288D01*
X1546915Y1603622D01*
X1548248D01*
X1548915Y1604288D01*
X1741828Y1593779D02*
X1745827D01*
Y1591780D01*
X1745160Y1591114D01*
X1742495D01*
X1741828Y1591780D01*
Y1593779D01*
X1745827Y1587115D02*
Y1589781D01*
X1743161Y1587115D01*
X1742495D01*
X1741828Y1587782D01*
Y1589114D01*
X1742495Y1589781D01*
X1730017Y1593779D02*
X1734016D01*
Y1591780D01*
X1733349Y1591114D01*
X1730684D01*
X1730017Y1591780D01*
Y1593779D01*
X1734016Y1589781D02*
Y1588448D01*
Y1589114D01*
X1730017D01*
X1730684Y1589781D01*
X1625959Y1669263D02*
X1625293Y1669930D01*
Y1671263D01*
X1625959Y1671929D01*
X1628625D01*
X1629291Y1671263D01*
Y1669930D01*
X1628625Y1669263D01*
X1629291Y1667930D02*
Y1666598D01*
Y1667264D01*
X1625293D01*
X1625959Y1667930D01*
X1625293Y1664598D02*
Y1661932D01*
X1625959D01*
X1628625Y1664598D01*
X1629291D01*
X1594463Y1634848D02*
X1593797Y1635515D01*
Y1636847D01*
X1594463Y1637514D01*
X1597129D01*
X1597795Y1636847D01*
Y1635515D01*
X1597129Y1634848D01*
X1597795Y1633515D02*
Y1632182D01*
Y1632849D01*
X1593797D01*
X1594463Y1633515D01*
X1593797Y1627517D02*
X1594463Y1628850D01*
X1595796Y1630183D01*
X1597129D01*
X1597795Y1629516D01*
Y1628184D01*
X1597129Y1627517D01*
X1596462D01*
X1595796Y1628184D01*
Y1630183D01*
X1630880Y1639736D02*
X1630214Y1640402D01*
Y1641735D01*
X1630880Y1642402D01*
X1633546D01*
X1634213Y1641735D01*
Y1640402D01*
X1633546Y1639736D01*
X1634213Y1638403D02*
Y1637070D01*
Y1637736D01*
X1630214D01*
X1630880Y1638403D01*
X1630214Y1632405D02*
Y1635071D01*
X1632213D01*
X1631547Y1633738D01*
Y1633071D01*
X1632213Y1632405D01*
X1633546D01*
X1634213Y1633071D01*
Y1634404D01*
X1633546Y1635071D01*
X1537770Y1457255D02*
X1537104Y1457922D01*
Y1459255D01*
X1537770Y1459921D01*
X1540436D01*
X1541102Y1459255D01*
Y1457922D01*
X1540436Y1457255D01*
X1541102Y1455923D02*
Y1454590D01*
Y1455256D01*
X1537104D01*
X1537770Y1455923D01*
X1541102Y1450591D02*
X1537104D01*
X1539103Y1452590D01*
Y1449924D01*
X1543676Y1457255D02*
X1543009Y1457922D01*
Y1459255D01*
X1543676Y1459921D01*
X1546341D01*
X1547008Y1459255D01*
Y1457922D01*
X1546341Y1457255D01*
X1547008Y1455923D02*
Y1454590D01*
Y1455256D01*
X1543009D01*
X1543676Y1455923D01*
Y1452590D02*
X1543009Y1451924D01*
Y1450591D01*
X1543676Y1449924D01*
X1544342D01*
X1545008Y1450591D01*
Y1451257D01*
Y1450591D01*
X1545675Y1449924D01*
X1546341D01*
X1547008Y1450591D01*
Y1451924D01*
X1546341Y1452590D01*
X1509227Y1464145D02*
X1508560Y1464812D01*
Y1466145D01*
X1509227Y1466811D01*
X1511893D01*
X1512559Y1466145D01*
Y1464812D01*
X1511893Y1464145D01*
X1512559Y1462812D02*
Y1461479D01*
Y1462146D01*
X1508560D01*
X1509227Y1462812D01*
X1512559Y1456814D02*
Y1459480D01*
X1509893Y1456814D01*
X1509227D01*
X1508560Y1457481D01*
Y1458814D01*
X1509227Y1459480D01*
X1500067Y1463380D02*
X1499401Y1462714D01*
X1498068D01*
X1497402Y1463380D01*
Y1466046D01*
X1498068Y1466713D01*
X1499401D01*
X1500067Y1466046D01*
X1501400D02*
X1502067Y1466713D01*
X1503400D01*
X1504066Y1466046D01*
Y1463380D01*
X1503400Y1462714D01*
X1502067D01*
X1501400Y1463380D01*
Y1464047D01*
X1502067Y1464713D01*
X1504066D01*
X1542374Y1504592D02*
X1543040Y1505258D01*
X1544373D01*
X1545039Y1504592D01*
Y1501926D01*
X1544373Y1501260D01*
X1543040D01*
X1542374Y1501926D01*
X1541041Y1504592D02*
X1540374Y1505258D01*
X1539041D01*
X1538375Y1504592D01*
Y1503926D01*
X1539041Y1503259D01*
X1538375Y1502593D01*
Y1501926D01*
X1539041Y1501260D01*
X1540374D01*
X1541041Y1501926D01*
Y1502593D01*
X1540374Y1503259D01*
X1541041Y1503926D01*
Y1504592D01*
X1540374Y1503259D02*
X1539041D01*
X1543676Y1471035D02*
X1543009Y1471701D01*
Y1473034D01*
X1543676Y1473701D01*
X1546341D01*
X1547008Y1473034D01*
Y1471701D01*
X1546341Y1471035D01*
X1543009Y1469702D02*
Y1467036D01*
X1543676D01*
X1546341Y1469702D01*
X1547008D01*
X1491012Y1486806D02*
X1490346Y1486139D01*
X1489013D01*
X1488346Y1486806D01*
Y1489471D01*
X1489013Y1490138D01*
X1490346D01*
X1491012Y1489471D01*
X1495011Y1486139D02*
X1493678Y1486806D01*
X1492345Y1488138D01*
Y1489471D01*
X1493012Y1490138D01*
X1494345D01*
X1495011Y1489471D01*
Y1488805D01*
X1494345Y1488138D01*
X1492345D01*
X1607331Y1590863D02*
Y1586864D01*
X1605332D01*
X1604666Y1587531D01*
Y1588197D01*
X1605332Y1588864D01*
X1607331D01*
X1605332D01*
X1604666Y1589530D01*
Y1590197D01*
X1605332Y1590863D01*
X1607331D01*
X1603333Y1586864D02*
X1602000D01*
X1602666D01*
Y1590863D01*
X1603333Y1590197D01*
X1507638Y1440236D02*
X1504972D01*
X1503639Y1438903D01*
X1504972Y1437570D01*
X1507638D01*
X1505639D01*
Y1440236D01*
X1507638Y1436238D02*
X1503639D01*
X1507638Y1433572D01*
X1503639D01*
Y1432239D02*
Y1429573D01*
Y1430906D01*
X1507638D01*
Y1428240D02*
Y1426907D01*
Y1427574D01*
X1503639D01*
X1504305Y1428240D01*
X1547665Y1486742D02*
Y1482744D01*
X1545666D01*
X1544999Y1483410D01*
Y1484077D01*
X1545666Y1484743D01*
X1547665D01*
X1545666D01*
X1544999Y1485410D01*
Y1486076D01*
X1545666Y1486742D01*
X1547665D01*
X1543666Y1482744D02*
Y1485410D01*
X1542334Y1486742D01*
X1541001Y1485410D01*
Y1482744D01*
Y1484743D01*
X1543666D01*
X1539668Y1486742D02*
Y1482744D01*
X1537002D01*
X1535669D02*
X1534336D01*
X1535003D01*
Y1486742D01*
X1535669Y1486076D01*
D54*
X1605669Y1652244D02*
G03*
X1605669Y1652244I-394J0D01*
G01*
X1540413Y1473307D02*
Y1474094D01*
X1537854Y1473307D02*
Y1474094D01*
X1536476Y1502835D02*
Y1503622D01*
X1533917Y1502835D02*
Y1503622D01*
X1501732Y1471929D02*
Y1472717D01*
X1499173Y1471929D02*
Y1472717D01*
X1516949Y1456024D02*
Y1456811D01*
X1514390Y1456024D02*
Y1456811D01*
X1534803Y1465827D02*
Y1466614D01*
X1532244Y1465827D02*
Y1466614D01*
X1528898Y1465827D02*
Y1466614D01*
X1526339Y1465827D02*
Y1466614D01*
X1626043Y1636890D02*
Y1637677D01*
X1628602Y1636890D02*
Y1637677D01*
X1606457Y1628917D02*
X1607244D01*
X1606457Y1631476D02*
X1607244D01*
X1618169Y1663661D02*
Y1664449D01*
X1620728Y1663661D02*
Y1664449D01*
X1604390Y1618484D02*
X1605177D01*
X1604390Y1615925D02*
X1605177D01*
X1604390Y1623209D02*
X1605177D01*
X1604390Y1620650D02*
X1605177D01*
X1522894Y1450177D02*
X1523681D01*
X1522894Y1452736D02*
X1523681D01*
X1587559Y1623996D02*
X1588346D01*
X1587559Y1621437D02*
X1588346D01*
X1587559Y1616122D02*
X1588346D01*
X1587559Y1613563D02*
X1588346D01*
X1479291Y1488268D02*
Y1489055D01*
X1481850Y1488268D02*
Y1489055D01*
X1474173Y1488268D02*
Y1489055D01*
X1476732Y1488268D02*
Y1489055D01*
X1497402Y1527539D02*
X1498189D01*
X1497402Y1530098D02*
X1498189D01*
X1497402Y1533051D02*
X1498189D01*
X1497402Y1535610D02*
X1498189D01*
X1497402Y1538957D02*
X1498189D01*
X1497402Y1541516D02*
X1498189D01*
X1686378Y1564941D02*
X1687165D01*
X1686378Y1567500D02*
X1687165D01*
X1686378Y1559035D02*
X1687165D01*
X1686378Y1561594D02*
X1687165D01*
X1613346Y1618484D02*
X1614134D01*
X1613346Y1615925D02*
X1614134D01*
X1613346Y1623209D02*
X1614134D01*
X1613346Y1620650D02*
X1614134D01*
X1626043Y1647913D02*
Y1648701D01*
X1628602Y1647913D02*
Y1648701D01*
X1475650Y1480492D02*
X1476437D01*
X1475650Y1478130D02*
X1476437D01*
X1460098Y1482067D02*
X1460886D01*
X1460098Y1479705D02*
X1460886D01*
X1460000Y1502835D02*
X1460787D01*
X1460000Y1500472D02*
X1460787D01*
X1717677Y1575571D02*
X1718465D01*
X1717677Y1578130D02*
X1718465D01*
X1717185Y1552835D02*
X1717973D01*
X1717185Y1555394D02*
X1717973D01*
X1617579Y1650472D02*
X1619646D01*
Y1648405D02*
Y1650472D01*
Y1634331D02*
Y1636398D01*
X1617579Y1634331D02*
X1619646D01*
X1603504D02*
X1605571D01*
X1603504D02*
Y1636398D01*
Y1648405D02*
Y1650472D01*
X1605571D01*
X1601929Y1662283D02*
Y1665827D01*
X1613346Y1662283D02*
Y1665827D01*
X1601929D02*
X1613346D01*
X1601929Y1662283D02*
X1613346D01*
X1491398Y1481968D02*
X1492185D01*
X1491398Y1484528D02*
X1492185D01*
X1467579Y1471338D02*
Y1472126D01*
X1465217Y1471338D02*
Y1472126D01*
X1506536Y1475571D02*
X1508504D01*
X1506536D02*
Y1477540D01*
X1528189Y1475571D02*
X1530157D01*
Y1477540D01*
X1506536Y1497225D02*
X1508504Y1499193D01*
X1530157Y1497225D02*
Y1499193D01*
X1528189D02*
X1530157D01*
X1516949Y1446024D02*
Y1446811D01*
X1514390Y1446024D02*
Y1446811D01*
X1618071Y1600472D02*
X1618858D01*
Y1589449D02*
Y1600472D01*
X1618071Y1589449D02*
X1618858D01*
X1612559D02*
X1613346D01*
X1612559D02*
Y1600472D01*
X1613346D01*
X1463346Y1489055D02*
Y1493779D01*
X1457441Y1489055D02*
Y1493779D01*
D55*
X1599272Y1615925D02*
Y1618484D01*
Y1620650D02*
Y1623209D01*
D91*
X1601142Y1668878D02*
G03*
X1601142Y1668878I-492J0D01*
G01*
X1510177Y1502736D02*
G03*
X1510177Y1502736I-492J0D01*
G01*
D92*
X1453996Y1533051D02*
G03*
X1453996Y1533051I-1181J0D01*
G01*
D93*
X1516386Y1513508D02*
Y1520508D01*
X1530386Y1513508D02*
Y1520508D01*
X1559256Y1498417D02*
X1566256D01*
X1559256Y1484417D02*
X1566256D01*
X1559256Y1482669D02*
X1566256D01*
X1559256Y1468669D02*
X1566256D01*
X1628307Y1681476D02*
Y1684331D01*
X1598583Y1681476D02*
Y1684331D01*
X1620138Y1676358D02*
X1622205D01*
X1604783D02*
X1606949D01*
X1598583Y1691122D02*
Y1693386D01*
X1628307Y1691220D02*
Y1693386D01*
X1500638Y1513508D02*
Y1520508D01*
X1514638Y1513508D02*
Y1520508D01*
D94*
X1477028Y1481279D02*
X1480669D01*
X1471417D02*
X1475059D01*
X1480669Y1477343D02*
Y1481279D01*
X1477028Y1477343D02*
X1480669D01*
X1471417D02*
Y1481279D01*
Y1477343D02*
X1475059D01*
X1461476Y1482854D02*
X1465118D01*
X1455866D02*
X1459508D01*
X1465118Y1478917D02*
Y1482854D01*
X1461476Y1478917D02*
X1465118D01*
X1455866D02*
Y1482854D01*
Y1478917D02*
X1459508D01*
X1461378Y1503622D02*
X1465020D01*
X1455768D02*
X1459410D01*
X1465020Y1499685D02*
Y1503622D01*
X1461378Y1499685D02*
X1465020D01*
X1455768D02*
Y1503622D01*
Y1499685D02*
X1459410D01*
X1475453Y1464055D02*
X1476831D01*
X1481358Y1467244D02*
X1481358Y1473110D01*
X1470925Y1467205D02*
Y1473110D01*
X1475374Y1476161D02*
X1476831Y1476161D01*
X1468366Y1467106D02*
Y1470748D01*
Y1472717D02*
Y1476358D01*
X1464429Y1467106D02*
X1468366D01*
X1464429D02*
Y1470748D01*
Y1476358D02*
X1468366D01*
X1464429Y1472717D02*
Y1476358D01*
X1651791Y1552933D02*
X1654153D01*
X1651870Y1558445D02*
X1654153D01*
X1651791Y1552933D02*
Y1558445D01*
X1654153Y1552933D02*
Y1558445D01*
X1639035Y1548602D02*
Y1562776D01*
X1657067Y1551752D02*
Y1559626D01*
X1648878Y1551752D02*
Y1559626D01*
X1639035Y1562776D02*
X1674468D01*
X1648878Y1559626D02*
X1664626D01*
X1648878Y1551752D02*
X1664626D01*
Y1559626D01*
X1639035Y1548602D02*
X1674468D01*
Y1562776D01*
D95*
X1462658Y1533051D02*
X1472500D01*
M02*
