G04 Layer_Physical_Order=2*
G04 Layer_Color=16711680*
%FSLAX25Y25*%
%MOIN*%
G70*
G01*
G75*
%ADD10C,0.03937*%
%ADD11R,0.03347X0.03150*%
%ADD12R,0.03150X0.03347*%
%ADD14C,0.00700*%
%ADD15C,0.00709*%
%ADD16C,0.02000*%
%ADD17C,0.01200*%
%ADD18C,0.01000*%
%ADD19C,0.02500*%
%ADD21C,0.27559*%
%ADD22C,0.03150*%
%ADD23C,0.02800*%
%ADD24C,0.02598*%
%ADD25R,0.02520X0.02756*%
%ADD26R,0.01969X0.02756*%
%ADD27R,0.02756X0.02520*%
%ADD28R,0.02756X0.01969*%
%ADD29R,0.02953X0.03150*%
%ADD30R,0.01181X0.03347*%
%ADD31R,0.06299X0.03150*%
%ADD32R,0.01575X0.00984*%
%ADD33R,0.10630X0.10630*%
%ADD34O,0.02362X0.00984*%
%ADD35O,0.00984X0.02362*%
%ADD36R,0.02362X0.04331*%
%ADD37O,0.02362X0.04331*%
%ADD38R,0.12598X0.16535*%
%ADD39R,0.04331X0.04724*%
%ADD40R,0.03150X0.02953*%
%ADD41R,0.01575X0.05315*%
%ADD42R,0.06299X0.05512*%
%ADD43R,0.07480X0.07480*%
%ADD44R,0.05709X0.05118*%
%ADD45R,0.02992X0.09449*%
%ADD46R,0.04724X0.09843*%
%ADD47O,0.00787X0.02559*%
%ADD48O,0.02559X0.00787*%
%ADD49R,0.18504X0.18504*%
%ADD50R,0.02756X0.04724*%
%ADD51R,0.07087X0.03937*%
%ADD52C,0.00800*%
%ADD53C,0.05000*%
G36*
X1554720Y1527932D02*
X1554622Y1527441D01*
X1554726Y1526922D01*
X1541985Y1514182D01*
X1541289Y1514250D01*
X1541213Y1514363D01*
X1541164Y1514396D01*
X1541086Y1515287D01*
X1554075Y1528276D01*
X1554720Y1527932D01*
D02*
G37*
G36*
X1494808Y1525599D02*
X1492954Y1523744D01*
X1492677Y1523331D01*
X1492580Y1522843D01*
Y1516815D01*
X1492613Y1516650D01*
X1492511Y1516497D01*
X1492319Y1515532D01*
X1492511Y1514566D01*
X1493018Y1513807D01*
X1492932Y1513566D01*
X1492662Y1513177D01*
X1491890Y1513330D01*
X1490924Y1513138D01*
X1490106Y1512591D01*
X1489699Y1511983D01*
X1484803D01*
X1484315Y1511886D01*
X1483902Y1511610D01*
X1480622Y1508329D01*
X1479975Y1508597D01*
Y1512188D01*
X1481177Y1513390D01*
X1481453Y1513804D01*
X1481550Y1514291D01*
Y1514905D01*
X1492891Y1526246D01*
X1494540D01*
X1494808Y1525599D01*
D02*
G37*
G36*
X1498444Y1515849D02*
Y1509105D01*
X1498444Y1509105D01*
X1498553Y1508558D01*
X1498656Y1508404D01*
X1498389Y1507668D01*
X1498353Y1507635D01*
X1497814Y1507528D01*
X1496995Y1506981D01*
X1496759D01*
X1496430Y1507473D01*
X1495611Y1508020D01*
X1494646Y1508212D01*
X1493680Y1508020D01*
X1492861Y1507473D01*
X1492315Y1506655D01*
X1492122Y1505689D01*
X1492315Y1504723D01*
X1492861Y1503905D01*
X1493680Y1503358D01*
X1494646Y1503166D01*
X1494973Y1502947D01*
X1494980Y1502912D01*
X1495257Y1502498D01*
X1496421Y1501334D01*
X1496153Y1500688D01*
X1474689D01*
X1474201Y1500591D01*
X1473787Y1500314D01*
X1469216Y1495743D01*
X1464837D01*
Y1499179D01*
X1465428D01*
Y1504119D01*
X1479488D01*
X1479976Y1504216D01*
X1480389Y1504492D01*
X1485331Y1509434D01*
X1489831D01*
X1490106Y1509023D01*
X1490924Y1508476D01*
X1491890Y1508284D01*
X1492855Y1508476D01*
X1493674Y1509023D01*
X1494221Y1509842D01*
X1494413Y1510807D01*
X1494221Y1511773D01*
X1493714Y1512531D01*
X1493800Y1512773D01*
X1494071Y1513162D01*
X1494843Y1513008D01*
X1495808Y1513200D01*
X1496627Y1513747D01*
X1497174Y1514566D01*
X1497366Y1515532D01*
X1497281Y1515956D01*
X1497364Y1516194D01*
X1497749Y1516332D01*
X1498444Y1515849D01*
D02*
G37*
G36*
X1563352Y1581715D02*
Y1555528D01*
X1562663Y1554840D01*
X1561963Y1555130D01*
Y1581320D01*
X1562473Y1581661D01*
X1562652Y1581927D01*
X1563352Y1581715D01*
D02*
G37*
G36*
X1505669Y1550472D02*
X1506233Y1550144D01*
Y1548728D01*
X1485787D01*
X1484949Y1548561D01*
X1484237Y1548085D01*
X1474151Y1537999D01*
X1469744D01*
X1468905Y1537832D01*
X1468194Y1537357D01*
X1466029Y1535192D01*
X1465553Y1534481D01*
X1465387Y1533642D01*
Y1533244D01*
X1465075Y1532673D01*
X1463079D01*
Y1526949D01*
X1462079D01*
Y1532673D01*
X1460083D01*
Y1532673D01*
X1459975Y1532573D01*
X1455183D01*
Y1528354D01*
X1453693D01*
X1453485Y1528493D01*
X1452520Y1528685D01*
X1451554Y1528493D01*
X1450735Y1527946D01*
X1450189Y1527127D01*
X1449996Y1526161D01*
X1450189Y1525196D01*
X1450735Y1524377D01*
X1451554Y1523830D01*
X1452520Y1523638D01*
X1453485Y1523830D01*
X1453693Y1523969D01*
X1455183D01*
Y1521562D01*
X1454488D01*
X1453649Y1521395D01*
X1452938Y1520920D01*
X1450674Y1518656D01*
X1450199Y1517945D01*
X1450032Y1517106D01*
Y1504606D01*
Y1486400D01*
X1450199Y1485561D01*
X1450674Y1484850D01*
X1455358Y1480166D01*
Y1478311D01*
X1455643D01*
Y1476555D01*
X1455809Y1475716D01*
X1456285Y1475005D01*
X1458450Y1472840D01*
X1459161Y1472365D01*
X1460000Y1472198D01*
X1463241D01*
X1463823Y1471913D01*
X1463923Y1471451D01*
X1463923D01*
X1463923Y1471451D01*
Y1466698D01*
X1468873D01*
Y1466958D01*
X1470321D01*
Y1463549D01*
X1473265D01*
X1475041Y1461773D01*
X1475291Y1461605D01*
X1475107Y1460905D01*
X1463346D01*
Y1463858D01*
X1454488D01*
Y1473701D01*
X1448583D01*
Y1487480D01*
X1445630D01*
Y1501260D01*
X1436772D01*
Y1512087D01*
X1414134D01*
Y1519961D01*
X1393465D01*
Y1539646D01*
X1420039D01*
Y1528819D01*
X1430866D01*
Y1536693D01*
X1465315D01*
Y1550472D01*
X1505669D01*
D02*
G37*
G36*
X1548113Y1532053D02*
X1548096Y1531921D01*
X1548184Y1531249D01*
X1548444Y1530622D01*
X1548857Y1530084D01*
X1549394Y1529672D01*
X1550021Y1529412D01*
X1550547Y1529343D01*
X1550766Y1528956D01*
X1550829Y1528636D01*
X1538528Y1516334D01*
X1538252Y1515921D01*
X1538155Y1515433D01*
Y1514704D01*
X1537645Y1514363D01*
X1537225Y1513734D01*
X1536625Y1513605D01*
X1536402Y1513634D01*
X1535670Y1514123D01*
X1534705Y1514315D01*
X1533739Y1514123D01*
X1532920Y1513576D01*
X1532374Y1512757D01*
X1532181Y1511791D01*
X1532374Y1510826D01*
X1532920Y1510007D01*
X1533739Y1509460D01*
X1534705Y1509268D01*
X1535670Y1509460D01*
X1536489Y1510007D01*
X1536491Y1510007D01*
X1537339Y1509159D01*
X1537253Y1508749D01*
X1537075Y1508459D01*
X1532624D01*
Y1507310D01*
X1532047D01*
X1531540Y1507209D01*
X1531110Y1506921D01*
X1530578Y1506390D01*
X1529931Y1506658D01*
Y1511974D01*
X1530546D01*
Y1516530D01*
X1516226D01*
Y1511974D01*
X1517060D01*
Y1507789D01*
X1516428Y1507395D01*
X1516360Y1507392D01*
X1515901Y1507484D01*
X1515198D01*
X1513963Y1508718D01*
Y1511974D01*
X1514798D01*
Y1516530D01*
X1501299D01*
Y1517486D01*
X1514798D01*
Y1522042D01*
X1513912D01*
Y1529945D01*
X1514957Y1530989D01*
X1521147D01*
X1521414Y1530343D01*
X1517377Y1526305D01*
X1517067Y1525842D01*
X1516958Y1525295D01*
X1516958Y1525295D01*
Y1522042D01*
X1516226D01*
Y1517486D01*
X1530546D01*
Y1522042D01*
X1529660D01*
Y1524137D01*
X1535331Y1529808D01*
X1544350D01*
X1544838Y1529905D01*
X1545252Y1530182D01*
X1547450Y1532380D01*
X1548113Y1532053D01*
D02*
G37*
G36*
X1667830Y1529052D02*
X1667900Y1528999D01*
X1667986Y1528350D01*
X1668245Y1527724D01*
X1668658Y1527186D01*
X1669196Y1526773D01*
X1669822Y1526514D01*
X1669994Y1526491D01*
Y1529022D01*
X1670994D01*
Y1526491D01*
X1671166Y1526514D01*
X1671793Y1526773D01*
X1672292Y1527156D01*
X1672466Y1527127D01*
X1672992Y1526898D01*
Y1522913D01*
X1671024D01*
Y1515039D01*
X1662165D01*
Y1512087D01*
X1641496D01*
Y1498307D01*
X1630669D01*
Y1485512D01*
X1618858D01*
Y1474685D01*
X1595236D01*
Y1463858D01*
X1569646D01*
Y1447126D01*
X1518242D01*
Y1448884D01*
X1523006D01*
X1523006Y1448883D01*
X1523468Y1448783D01*
X1523468Y1448783D01*
X1523665Y1448783D01*
X1525543D01*
Y1451457D01*
X1526043D01*
Y1451957D01*
X1528618D01*
Y1454130D01*
X1528235D01*
Y1460890D01*
X1530291D01*
Y1460890D01*
X1530850D01*
Y1460890D01*
X1533024D01*
Y1463465D01*
X1534024D01*
Y1460890D01*
X1536197D01*
Y1461273D01*
X1537953D01*
X1538792Y1461439D01*
X1539428Y1461865D01*
X1540003Y1461940D01*
X1540629Y1462200D01*
X1541167Y1462612D01*
X1541580Y1463150D01*
X1541839Y1463777D01*
X1541862Y1463949D01*
X1539331D01*
Y1464949D01*
X1541862D01*
X1541839Y1465121D01*
X1541580Y1465747D01*
X1541167Y1466285D01*
X1540663Y1466672D01*
Y1468370D01*
X1541807D01*
Y1470445D01*
X1539134D01*
Y1471445D01*
X1541807D01*
Y1473520D01*
X1541807Y1473520D01*
X1542034Y1474126D01*
X1542697D01*
X1543286Y1473732D01*
X1544252Y1473540D01*
X1545218Y1473732D01*
X1546036Y1474279D01*
X1546583Y1475097D01*
X1546775Y1476063D01*
X1546583Y1477029D01*
X1546036Y1477847D01*
X1545218Y1478394D01*
X1544252Y1478586D01*
X1543286Y1478394D01*
X1542697Y1478000D01*
X1541707D01*
Y1478932D01*
X1541707Y1478932D01*
X1541707D01*
X1541963Y1479536D01*
X1542154Y1479822D01*
X1542346Y1480787D01*
X1542279Y1481126D01*
X1542766Y1481799D01*
X1543256Y1481845D01*
X1555336Y1469765D01*
X1555751Y1469488D01*
X1556240Y1469390D01*
X1557722D01*
Y1468509D01*
X1562278D01*
Y1472210D01*
Y1475360D01*
Y1478509D01*
Y1482829D01*
X1557722D01*
Y1482478D01*
X1557022Y1482195D01*
X1551942Y1487275D01*
X1552172Y1488035D01*
X1552324Y1488065D01*
X1554909Y1485480D01*
X1555339Y1485193D01*
X1555847Y1485092D01*
X1557722D01*
Y1484258D01*
X1562278D01*
Y1487958D01*
Y1491108D01*
Y1494258D01*
Y1498577D01*
X1557722D01*
Y1497743D01*
X1541969D01*
X1541461Y1497642D01*
X1541031Y1497355D01*
X1539471Y1495794D01*
X1533452D01*
X1533184Y1496441D01*
X1534641Y1497898D01*
X1534697D01*
Y1500473D01*
X1535697D01*
Y1497898D01*
X1537870D01*
X1537870Y1497898D01*
X1538570Y1497953D01*
X1538660Y1497941D01*
Y1500473D01*
Y1503004D01*
X1538570Y1502992D01*
X1538410Y1503005D01*
X1538017Y1503738D01*
X1538184Y1504047D01*
X1552028D01*
X1552769Y1504195D01*
X1553397Y1504614D01*
X1570637Y1521854D01*
X1571230Y1521457D01*
X1571139Y1521238D01*
X1571117Y1521065D01*
X1573648D01*
Y1520565D01*
X1574148D01*
Y1518034D01*
X1574320Y1518057D01*
X1574946Y1518316D01*
X1575053Y1518398D01*
X1575753Y1518053D01*
Y1506178D01*
X1568046Y1498471D01*
X1567790Y1498577D01*
Y1498577D01*
X1563234D01*
Y1494258D01*
Y1491108D01*
Y1487958D01*
Y1484258D01*
X1566383D01*
X1566651Y1483611D01*
X1565869Y1482829D01*
X1563234D01*
Y1478509D01*
Y1475360D01*
Y1472210D01*
Y1468509D01*
X1567790D01*
Y1469390D01*
X1572126D01*
X1572615Y1469488D01*
X1573030Y1469765D01*
X1625687Y1522422D01*
X1659803D01*
X1660293Y1522519D01*
X1660707Y1522797D01*
X1667230Y1529319D01*
X1667830Y1529052D01*
D02*
G37*
G36*
X1505551Y1477401D02*
X1507323D01*
X1507395Y1477416D01*
X1508095Y1477130D01*
X1508380Y1476430D01*
X1508366Y1476358D01*
Y1475505D01*
X1508360Y1475473D01*
Y1473712D01*
X1508149Y1473670D01*
X1507330Y1473123D01*
X1506783Y1472304D01*
X1506591Y1471339D01*
X1506783Y1470373D01*
X1506952Y1470120D01*
X1506578Y1469420D01*
X1503209D01*
X1503126Y1469503D01*
Y1471945D01*
X1503126Y1472142D01*
X1503126Y1472142D01*
X1503026Y1472604D01*
X1503026Y1472604D01*
Y1477442D01*
X1505349D01*
X1505551Y1477401D01*
D02*
G37*
G36*
X1519457Y1464532D02*
X1520744D01*
Y1464532D01*
X1521426Y1464488D01*
X1523459Y1462455D01*
X1523459Y1462455D01*
X1523905Y1462158D01*
X1523851Y1461890D01*
Y1454671D01*
X1523468Y1454130D01*
X1523006Y1454030D01*
Y1454030D01*
X1523006Y1454030D01*
X1518242D01*
Y1456136D01*
X1518242D01*
Y1456699D01*
X1518242D01*
Y1461648D01*
X1517038D01*
Y1463886D01*
X1517169Y1464532D01*
X1518457D01*
Y1466024D01*
X1519457D01*
Y1464532D01*
D02*
G37*
G36*
X1492714Y1476742D02*
X1492511Y1476438D01*
X1492319Y1475472D01*
X1492511Y1474507D01*
X1493058Y1473688D01*
X1493877Y1473141D01*
X1494843Y1472949D01*
X1495808Y1473141D01*
X1496016Y1473280D01*
X1497822D01*
X1497880Y1472604D01*
X1497779Y1472142D01*
X1497779D01*
Y1471096D01*
X1497402D01*
X1496816Y1470980D01*
X1496320Y1470648D01*
X1494949Y1469277D01*
Y1466614D01*
Y1464083D01*
X1495121Y1464106D01*
X1495747Y1464365D01*
X1496285Y1464778D01*
X1496698Y1465316D01*
X1496957Y1465942D01*
X1497036Y1466542D01*
X1497117Y1466659D01*
X1497698Y1467026D01*
X1497779Y1466992D01*
Y1466992D01*
X1499953D01*
Y1469567D01*
X1500953D01*
Y1466992D01*
X1501599D01*
X1501609Y1466983D01*
X1502072Y1466673D01*
X1502618Y1466565D01*
X1502618Y1466565D01*
X1514020D01*
Y1466500D01*
X1514120D01*
Y1464631D01*
X1514183D01*
Y1461648D01*
X1513096D01*
Y1456699D01*
X1513096D01*
Y1456136D01*
X1513096D01*
Y1451187D01*
Y1447126D01*
X1506653D01*
Y1460905D01*
X1482885D01*
X1482701Y1461605D01*
X1482952Y1461773D01*
X1487282Y1466103D01*
X1487560Y1466518D01*
X1487657Y1467008D01*
Y1476015D01*
X1489083Y1477442D01*
X1492340D01*
X1492714Y1476742D01*
D02*
G37*
G36*
X1495872Y1496565D02*
X1495926Y1496033D01*
X1495224Y1495564D01*
X1494677Y1494745D01*
X1494485Y1493779D01*
X1494677Y1492814D01*
X1494770Y1492675D01*
X1494418Y1491942D01*
X1494003Y1491893D01*
X1491511Y1494385D01*
X1491098Y1494662D01*
X1490610Y1494759D01*
X1487420D01*
X1487080Y1495269D01*
X1486261Y1495815D01*
X1485295Y1496008D01*
X1484330Y1495815D01*
X1484074Y1495644D01*
X1483306Y1495910D01*
X1483244Y1496099D01*
X1483686Y1496733D01*
X1495809D01*
X1495872Y1496565D01*
D02*
G37*
G36*
X1455260Y1499079D02*
D01*
X1455950Y1499056D01*
Y1493470D01*
X1461508D01*
X1461776Y1493291D01*
X1462264Y1493194D01*
X1468305D01*
X1468573Y1492547D01*
X1465228Y1489202D01*
X1464837Y1489365D01*
Y1489365D01*
X1455950D01*
Y1486689D01*
X1455304Y1486421D01*
X1454416Y1487308D01*
Y1498512D01*
X1455100Y1499102D01*
X1455260Y1499079D01*
D02*
G37*
G36*
X1531835Y1477327D02*
X1532248Y1477051D01*
X1532736Y1476954D01*
X1535787D01*
X1535861Y1476968D01*
X1536561Y1476464D01*
Y1473982D01*
X1536561Y1473982D01*
X1536461Y1473520D01*
X1536461Y1473520D01*
X1536461Y1473323D01*
Y1472001D01*
X1536097Y1471451D01*
X1532278D01*
X1531069Y1472661D01*
X1530606Y1472970D01*
X1530060Y1473079D01*
X1530060Y1473079D01*
X1528334D01*
X1528167Y1473323D01*
X1528024Y1473779D01*
X1528226Y1474082D01*
X1528327Y1474587D01*
Y1476358D01*
X1528313Y1476430D01*
X1528598Y1477130D01*
X1529298Y1477416D01*
X1529370Y1477401D01*
X1531142D01*
X1531366Y1477446D01*
X1531716D01*
X1531835Y1477327D01*
D02*
G37*
G36*
X1602310Y1581759D02*
X1603129Y1581212D01*
X1604095Y1581020D01*
X1605060Y1581212D01*
X1605879Y1581759D01*
X1606007Y1581951D01*
X1606956Y1582112D01*
X1607079Y1582020D01*
Y1546339D01*
X1607226Y1545597D01*
X1607646Y1544969D01*
X1623197Y1529418D01*
X1623826Y1528998D01*
X1624567Y1528850D01*
X1647470D01*
X1647912Y1528555D01*
X1648878Y1528363D01*
X1649844Y1528555D01*
X1650286Y1528850D01*
X1655866D01*
X1656607Y1528998D01*
X1657236Y1529418D01*
X1665985Y1538167D01*
X1666595Y1538086D01*
X1667482Y1538203D01*
X1668309Y1538546D01*
X1668954Y1539041D01*
X1669857D01*
Y1540507D01*
X1669907Y1540628D01*
X1670024Y1541516D01*
Y1544862D01*
Y1564579D01*
X1672500D01*
X1673241Y1564726D01*
X1673870Y1565146D01*
X1677633Y1568909D01*
X1678585D01*
X1678798Y1568209D01*
X1678491Y1568005D01*
X1677944Y1567186D01*
X1677752Y1566220D01*
X1677944Y1565255D01*
X1678491Y1564436D01*
X1679310Y1563889D01*
X1680276Y1563697D01*
X1680841Y1563810D01*
X1681541Y1563647D01*
Y1563647D01*
X1686353D01*
X1686490Y1563647D01*
X1686823D01*
X1687014Y1563268D01*
X1686823Y1562888D01*
X1686490D01*
X1686353Y1562888D01*
X1681541D01*
Y1562888D01*
X1680841Y1562745D01*
X1680374Y1562838D01*
X1679408Y1562646D01*
X1678590Y1562099D01*
X1678043Y1561281D01*
X1677851Y1560315D01*
X1678043Y1559349D01*
X1678590Y1558531D01*
X1679408Y1557984D01*
X1680374Y1557792D01*
X1680841Y1557885D01*
X1681541Y1557742D01*
Y1557742D01*
X1686353D01*
X1686490Y1557742D01*
X1687053D01*
X1687191Y1557742D01*
X1688100D01*
Y1555492D01*
X1688100Y1555492D01*
X1688209Y1554946D01*
X1688518Y1554483D01*
X1694325Y1548676D01*
X1694325Y1548676D01*
X1694788Y1548366D01*
X1695335Y1548258D01*
X1715906D01*
X1715906Y1548258D01*
X1716452Y1548366D01*
X1716915Y1548676D01*
X1719780Y1551541D01*
X1720556D01*
X1720824Y1550894D01*
X1718056Y1548126D01*
X1717779Y1547712D01*
X1717741Y1547518D01*
X1717172Y1547139D01*
X1716626Y1546320D01*
X1716433Y1545354D01*
X1716626Y1544389D01*
X1717172Y1543570D01*
X1717991Y1543023D01*
X1718957Y1542831D01*
X1719922Y1543023D01*
X1720741Y1543570D01*
X1721288Y1544389D01*
X1721468Y1545294D01*
X1722142Y1545220D01*
X1722334Y1544255D01*
X1722881Y1543436D01*
X1723700Y1542889D01*
X1723891Y1542851D01*
X1724122Y1542092D01*
X1720297Y1538267D01*
X1669941D01*
X1669452Y1538170D01*
X1669037Y1537893D01*
X1657895Y1526751D01*
X1623386D01*
X1622896Y1526654D01*
X1622482Y1526377D01*
X1571478Y1475373D01*
X1567790D01*
Y1477027D01*
X1585704Y1494941D01*
X1585981Y1495355D01*
X1586078Y1495842D01*
Y1531138D01*
X1597239Y1542300D01*
X1597515Y1542713D01*
X1597612Y1543201D01*
Y1556656D01*
X1597515Y1557144D01*
X1597239Y1557557D01*
X1593361Y1561435D01*
Y1573183D01*
X1593969Y1573590D01*
X1594516Y1574408D01*
X1594708Y1575374D01*
X1594516Y1576340D01*
X1593969Y1577158D01*
X1593151Y1577705D01*
X1592185Y1577897D01*
X1591219Y1577705D01*
X1590401Y1577158D01*
X1589854Y1576340D01*
X1589662Y1575374D01*
X1589854Y1574408D01*
X1590401Y1573590D01*
X1590812Y1573315D01*
Y1560907D01*
X1590909Y1560420D01*
X1591185Y1560006D01*
X1594951Y1556240D01*
X1594902Y1555830D01*
X1594177Y1555565D01*
X1585389Y1564354D01*
Y1575043D01*
X1592713Y1582367D01*
X1601904D01*
X1602310Y1581759D01*
D02*
G37*
G36*
X1653307Y1663661D02*
X1644449D01*
Y1639055D01*
X1635591D01*
Y1626260D01*
X1621811D01*
Y1580000D01*
X1612953D01*
Y1563268D01*
X1630669D01*
Y1577047D01*
X1647402D01*
Y1574094D01*
X1671024D01*
Y1589843D01*
X1684803D01*
Y1601653D01*
X1696614D01*
Y1609528D01*
X1748779D01*
Y1601653D01*
X1756654D01*
Y1544567D01*
X1748779D01*
Y1530787D01*
X1672992D01*
X1672992Y1530787D01*
Y1530787D01*
X1672331Y1530859D01*
X1671793Y1531271D01*
X1671166Y1531531D01*
X1670517Y1531616D01*
X1670464Y1531687D01*
X1670197Y1532286D01*
X1671652Y1533741D01*
X1721319D01*
X1721808Y1533838D01*
X1722223Y1534115D01*
X1730707Y1542599D01*
X1731326Y1542228D01*
X1731246Y1541964D01*
X1731114Y1540630D01*
X1731246Y1539296D01*
X1731635Y1538013D01*
X1732267Y1536831D01*
X1733117Y1535794D01*
X1734154Y1534944D01*
X1735336Y1534312D01*
X1736619Y1533923D01*
X1737953Y1533792D01*
X1739287Y1533923D01*
X1740570Y1534312D01*
X1741752Y1534944D01*
X1742788Y1535794D01*
X1743639Y1536831D01*
X1744271Y1538013D01*
X1744660Y1539296D01*
X1744791Y1540630D01*
X1744660Y1541964D01*
X1744271Y1543247D01*
X1743639Y1544429D01*
X1742788Y1545465D01*
X1741752Y1546316D01*
X1740570Y1546948D01*
X1739287Y1547337D01*
X1737953Y1547468D01*
X1736619Y1547337D01*
X1736355Y1547257D01*
X1735984Y1547876D01*
X1746534Y1558426D01*
X1746811Y1558841D01*
X1746909Y1559331D01*
Y1590378D01*
X1747414Y1590716D01*
X1747961Y1591534D01*
X1748153Y1592500D01*
X1747961Y1593466D01*
X1747414Y1594284D01*
X1746596Y1594831D01*
X1745630Y1595023D01*
X1744664Y1594831D01*
X1743846Y1594284D01*
X1743299Y1593466D01*
X1743107Y1592500D01*
X1743299Y1591534D01*
X1743846Y1590716D01*
X1744351Y1590378D01*
Y1566853D01*
X1743651Y1566563D01*
X1729488Y1580727D01*
Y1590378D01*
X1729993Y1590716D01*
X1730540Y1591534D01*
X1730732Y1592500D01*
X1730540Y1593466D01*
X1729993Y1594284D01*
X1729174Y1594831D01*
X1728209Y1595023D01*
X1727243Y1594831D01*
X1726424Y1594284D01*
X1725877Y1593466D01*
X1725685Y1592500D01*
X1725877Y1591534D01*
X1726424Y1590716D01*
X1726930Y1590378D01*
Y1580197D01*
X1727027Y1579707D01*
X1727304Y1579292D01*
X1741890Y1564707D01*
Y1559860D01*
X1731759Y1549729D01*
X1731215Y1550175D01*
X1731229Y1550196D01*
X1731421Y1551161D01*
X1731229Y1552127D01*
X1730682Y1552946D01*
X1730172Y1553286D01*
Y1562382D01*
X1730075Y1562870D01*
X1729799Y1563283D01*
X1726086Y1566996D01*
X1725959Y1567643D01*
X1725959D01*
Y1572790D01*
X1725310D01*
X1725042Y1573437D01*
X1725183Y1573577D01*
X1725183Y1573577D01*
X1725492Y1574040D01*
X1725601Y1574587D01*
X1725601Y1574587D01*
Y1579016D01*
X1725601Y1579016D01*
X1725492Y1579562D01*
X1725183Y1580025D01*
X1724198Y1581009D01*
X1723735Y1581319D01*
X1723189Y1581427D01*
X1723189Y1581427D01*
X1717481D01*
X1714553Y1584356D01*
X1714090Y1584665D01*
X1713543Y1584774D01*
X1713543Y1584774D01*
X1703784D01*
X1703470Y1585183D01*
X1702932Y1585596D01*
X1702306Y1585855D01*
X1702134Y1585878D01*
Y1583346D01*
Y1580815D01*
X1702306Y1580838D01*
X1702932Y1581097D01*
X1703470Y1581510D01*
X1703784Y1581919D01*
X1712952D01*
X1714601Y1580270D01*
Y1579854D01*
X1714358Y1579524D01*
X1712740D01*
Y1577350D01*
X1715315D01*
Y1576350D01*
X1712740D01*
Y1574177D01*
X1713507D01*
X1714183Y1574094D01*
X1714292Y1573548D01*
X1714601Y1573085D01*
X1715004Y1572682D01*
Y1570716D01*
X1716595D01*
Y1569716D01*
X1715004D01*
Y1567543D01*
X1715167D01*
Y1563126D01*
X1715004D01*
Y1560953D01*
X1716595D01*
Y1559953D01*
X1715004D01*
Y1558873D01*
X1713814Y1557683D01*
X1713504Y1557220D01*
X1713418Y1556787D01*
X1712248D01*
Y1554614D01*
X1714823D01*
Y1553614D01*
X1712248D01*
Y1551441D01*
X1711684Y1551112D01*
X1695926D01*
X1690955Y1556083D01*
Y1557742D01*
X1692002D01*
Y1562888D01*
X1691465D01*
Y1563647D01*
X1692002D01*
Y1568794D01*
X1691465D01*
Y1570551D01*
X1691317Y1571292D01*
X1690897Y1571921D01*
X1690602Y1572216D01*
X1689974Y1572636D01*
X1689232Y1572784D01*
X1676831D01*
X1676089Y1572636D01*
X1675461Y1572216D01*
X1671698Y1568453D01*
X1669857D01*
Y1572337D01*
X1663332D01*
Y1567525D01*
X1663282Y1567403D01*
X1663165Y1566516D01*
Y1544862D01*
Y1541516D01*
X1663245Y1540906D01*
X1655064Y1532725D01*
X1650580D01*
X1649844Y1533217D01*
X1648878Y1533409D01*
X1647912Y1533217D01*
X1647175Y1532725D01*
X1625369D01*
X1610953Y1547141D01*
Y1582825D01*
X1611445Y1583562D01*
X1611637Y1584528D01*
X1611592Y1584758D01*
X1612574Y1585740D01*
X1613431D01*
Y1584415D01*
X1617987D01*
Y1590939D01*
X1613431D01*
Y1589614D01*
X1611772D01*
X1611030Y1589467D01*
X1610402Y1589047D01*
X1608230Y1586875D01*
X1608149Y1586859D01*
X1607330Y1586312D01*
X1606783Y1585493D01*
X1606743Y1585294D01*
X1606000Y1585146D01*
X1605879Y1585328D01*
X1605060Y1585874D01*
X1604095Y1586067D01*
X1603129Y1585874D01*
X1602310Y1585328D01*
X1602035Y1584916D01*
X1592185D01*
X1591697Y1584819D01*
X1591284Y1584543D01*
X1583213Y1576472D01*
X1582937Y1576059D01*
X1582840Y1575571D01*
Y1563826D01*
X1582937Y1563338D01*
X1583213Y1562924D01*
X1590529Y1555608D01*
X1590359Y1554789D01*
X1589810Y1554422D01*
X1589263Y1553603D01*
X1589071Y1552638D01*
X1589263Y1551672D01*
X1589810Y1550854D01*
X1590418Y1550447D01*
Y1545488D01*
X1584937Y1540007D01*
X1584177Y1540237D01*
X1584083Y1540710D01*
X1583536Y1541528D01*
X1582718Y1542075D01*
X1581752Y1542267D01*
X1580786Y1542075D01*
X1580593Y1541946D01*
X1579975Y1542276D01*
Y1556677D01*
X1580374Y1557004D01*
X1581340Y1557196D01*
X1582158Y1557743D01*
X1582705Y1558562D01*
X1582897Y1559528D01*
X1582705Y1560493D01*
X1582158Y1561312D01*
X1581340Y1561859D01*
X1580374Y1562051D01*
X1579408Y1561859D01*
X1579002Y1561587D01*
X1578302Y1561961D01*
Y1579964D01*
X1579658Y1581320D01*
X1580177Y1581217D01*
X1581143Y1581409D01*
X1581961Y1581956D01*
X1582508Y1582775D01*
X1582700Y1583740D01*
X1582508Y1584706D01*
X1581961Y1585524D01*
X1581143Y1586071D01*
X1580177Y1586263D01*
X1579212Y1586071D01*
X1578393Y1585524D01*
X1577846Y1584706D01*
X1577654Y1583740D01*
X1577790Y1583057D01*
X1576126Y1581393D01*
X1575850Y1580980D01*
X1575753Y1580492D01*
Y1523078D01*
X1575053Y1522733D01*
X1574946Y1522814D01*
X1574320Y1523074D01*
X1573648Y1523162D01*
X1573518Y1523145D01*
X1573229Y1523508D01*
X1573074Y1523793D01*
X1573252Y1524685D01*
X1573060Y1525651D01*
X1572513Y1526469D01*
X1571694Y1527016D01*
X1570728Y1527208D01*
X1569763Y1527016D01*
X1568944Y1526469D01*
X1568397Y1525651D01*
X1568259Y1524955D01*
X1551225Y1507922D01*
X1538584D01*
X1538558Y1507983D01*
X1539020Y1508683D01*
X1540515D01*
X1541003Y1508780D01*
X1541416Y1509056D01*
X1542952Y1510592D01*
X1543228Y1511005D01*
X1543325Y1511493D01*
Y1511917D01*
X1545182Y1513774D01*
X1545921Y1513523D01*
X1545924Y1513499D01*
X1546184Y1512873D01*
X1546597Y1512335D01*
X1547134Y1511922D01*
X1547761Y1511663D01*
X1547933Y1511640D01*
Y1514171D01*
X1548433D01*
Y1514671D01*
X1550964D01*
X1550941Y1514843D01*
X1550682Y1515470D01*
X1550269Y1516008D01*
X1549732Y1516420D01*
X1549105Y1516680D01*
X1549082Y1516683D01*
X1548831Y1517422D01*
X1556462Y1525054D01*
X1557146Y1524918D01*
X1558111Y1525110D01*
X1558930Y1525657D01*
X1559477Y1526475D01*
X1559669Y1527441D01*
X1559477Y1528407D01*
X1558930Y1529225D01*
X1558111Y1529772D01*
X1557362Y1529921D01*
X1557060Y1530463D01*
X1557029Y1530647D01*
X1557030Y1530649D01*
X1557146Y1530626D01*
X1558111Y1530818D01*
X1558930Y1531365D01*
X1559477Y1532184D01*
X1559669Y1533150D01*
X1559477Y1534115D01*
X1558930Y1534934D01*
X1558111Y1535481D01*
X1557146Y1535673D01*
X1556180Y1535481D01*
X1555361Y1534934D01*
X1554815Y1534115D01*
X1554622Y1533150D01*
X1554742Y1532548D01*
X1553978Y1531784D01*
X1553657Y1531848D01*
X1553271Y1532067D01*
X1553201Y1532593D01*
X1552942Y1533219D01*
X1552529Y1533757D01*
X1551991Y1534170D01*
X1551365Y1534429D01*
X1550693Y1534518D01*
X1550560Y1534500D01*
X1550233Y1535163D01*
X1568677Y1553607D01*
X1568953Y1554020D01*
X1569050Y1554508D01*
Y1582720D01*
X1570816Y1584486D01*
X1571417Y1584367D01*
X1572383Y1584558D01*
X1573201Y1585106D01*
X1573748Y1585924D01*
X1573941Y1586890D01*
X1573748Y1587855D01*
X1573201Y1588674D01*
X1572383Y1589221D01*
X1571417Y1589413D01*
X1570452Y1589221D01*
X1569633Y1588674D01*
X1569086Y1587855D01*
X1568894Y1586890D01*
X1569014Y1586289D01*
X1566874Y1584149D01*
X1566598Y1583736D01*
X1565901Y1583817D01*
Y1585610D01*
X1565804Y1586098D01*
X1565527Y1586511D01*
X1563756Y1588283D01*
X1563342Y1588559D01*
X1562854Y1588656D01*
X1559409D01*
X1558922Y1588559D01*
X1558508Y1588283D01*
X1548272Y1578047D01*
X1548149Y1577863D01*
X1547389Y1577355D01*
X1546842Y1576536D01*
X1546650Y1575571D01*
X1546842Y1574605D01*
X1547389Y1573787D01*
X1548208Y1573240D01*
X1549173Y1573048D01*
X1550139Y1573240D01*
X1550957Y1573787D01*
X1551504Y1574605D01*
X1551696Y1575571D01*
X1551504Y1576536D01*
X1551049Y1577219D01*
X1557496Y1583666D01*
X1557897Y1583534D01*
X1558182Y1583362D01*
X1558358Y1582479D01*
X1558905Y1581661D01*
X1559414Y1581320D01*
Y1554839D01*
X1551301Y1546725D01*
X1550601Y1547015D01*
Y1549828D01*
X1550957Y1550066D01*
X1551504Y1550885D01*
X1551696Y1551850D01*
X1551504Y1552816D01*
X1550957Y1553635D01*
X1550139Y1554182D01*
X1549173Y1554374D01*
X1548208Y1554182D01*
X1547389Y1553635D01*
X1546842Y1552816D01*
X1546650Y1551850D01*
X1546842Y1550885D01*
X1547389Y1550066D01*
X1547746Y1549828D01*
Y1546733D01*
X1539602Y1538589D01*
X1538957Y1538934D01*
X1539098Y1539646D01*
X1538906Y1540611D01*
X1538359Y1541430D01*
X1537540Y1541977D01*
X1536575Y1542169D01*
X1535609Y1541977D01*
X1534791Y1541430D01*
X1534450Y1540920D01*
X1532312D01*
X1532045Y1541567D01*
X1533539Y1543061D01*
X1533815Y1543475D01*
X1533912Y1543962D01*
Y1548545D01*
X1534422Y1548885D01*
X1534969Y1549704D01*
X1535161Y1550669D01*
X1534969Y1551635D01*
X1534422Y1552454D01*
X1533603Y1553001D01*
X1532638Y1553193D01*
X1531779Y1553022D01*
X1531532Y1553274D01*
X1531366Y1553599D01*
X1534720Y1556953D01*
X1534996Y1557367D01*
X1535093Y1557854D01*
Y1579472D01*
X1536072Y1580451D01*
X1536673Y1580331D01*
X1537639Y1580523D01*
X1538457Y1581070D01*
X1539004Y1581889D01*
X1539196Y1582854D01*
X1539004Y1583820D01*
X1538653Y1584346D01*
X1539144Y1584845D01*
X1539156Y1584853D01*
X1540118Y1584662D01*
X1541084Y1584854D01*
X1541902Y1585401D01*
X1542449Y1586219D01*
X1542641Y1587185D01*
X1542449Y1588151D01*
X1541902Y1588969D01*
X1541084Y1589516D01*
X1540118Y1589708D01*
X1539153Y1589516D01*
X1538334Y1588969D01*
X1537862Y1588263D01*
X1535787D01*
X1535300Y1588166D01*
X1534886Y1587889D01*
X1531343Y1584346D01*
X1531067Y1583933D01*
X1530970Y1583445D01*
Y1559071D01*
X1526717Y1554819D01*
X1526167Y1555222D01*
X1526190Y1555394D01*
X1524158D01*
Y1553363D01*
X1524331Y1553386D01*
X1524957Y1553645D01*
X1525495Y1554058D01*
X1525715Y1554345D01*
X1526370Y1554048D01*
X1526344Y1553917D01*
Y1543422D01*
X1520693Y1537771D01*
X1508327D01*
X1507839Y1537673D01*
X1507426Y1537397D01*
X1503673Y1533644D01*
X1503026Y1533912D01*
Y1536904D01*
X1502488D01*
Y1537663D01*
X1503026D01*
Y1542809D01*
X1498076D01*
Y1542809D01*
X1497514D01*
Y1542809D01*
X1492565D01*
Y1541511D01*
X1490512D01*
X1490024Y1541414D01*
X1489611Y1541137D01*
X1486658Y1538185D01*
X1486382Y1537771D01*
X1486285Y1537284D01*
Y1527969D01*
X1480775Y1522459D01*
X1480075Y1522749D01*
Y1526449D01*
X1477579D01*
Y1527449D01*
X1480075D01*
Y1532673D01*
X1479771D01*
Y1533287D01*
X1479604Y1534126D01*
X1479129Y1534838D01*
X1478159Y1535807D01*
X1486695Y1544343D01*
X1506233D01*
Y1539506D01*
X1513032D01*
Y1548774D01*
Y1558042D01*
X1506233D01*
X1505669Y1558370D01*
Y1561299D01*
X1529291D01*
Y1574094D01*
X1523386D01*
Y1601653D01*
X1535197D01*
Y1652835D01*
X1538150D01*
Y1663661D01*
X1555866D01*
Y1665630D01*
X1569646D01*
Y1660709D01*
X1581457D01*
Y1682362D01*
X1596220D01*
Y1684118D01*
X1599559D01*
Y1687677D01*
Y1691236D01*
X1596220D01*
Y1693189D01*
X1633622D01*
Y1698110D01*
X1653307D01*
Y1663661D01*
D02*
G37*
%LPC*%
G36*
X1613459Y1692317D02*
Y1692317D01*
X1604179D01*
Y1691826D01*
X1603913Y1691236D01*
X1600559D01*
Y1687677D01*
Y1684118D01*
X1600780D01*
X1602564Y1682334D01*
X1602296Y1681687D01*
X1596895D01*
Y1674376D01*
X1602228D01*
X1602585Y1673676D01*
X1602437Y1673472D01*
X1602261D01*
X1602261Y1673472D01*
X1601715Y1673364D01*
X1601251Y1673054D01*
X1601251Y1673054D01*
X1599936Y1671738D01*
X1599626Y1671275D01*
X1599517Y1670729D01*
X1599517Y1670729D01*
Y1665236D01*
X1599517Y1665236D01*
X1599626Y1664690D01*
X1599936Y1664227D01*
X1602298Y1661865D01*
X1602298Y1661865D01*
X1602328Y1661712D01*
X1601937Y1661127D01*
X1601776Y1660315D01*
Y1658346D01*
X1601937Y1657534D01*
X1602397Y1656846D01*
X1602538Y1656752D01*
X1602579Y1656546D01*
X1602888Y1656083D01*
X1603419Y1655552D01*
X1603335Y1655131D01*
X1603403Y1654792D01*
X1602856Y1654151D01*
X1602723Y1654126D01*
X1602243Y1654493D01*
X1601617Y1654753D01*
X1601445Y1654775D01*
Y1652244D01*
Y1649713D01*
X1601617Y1649736D01*
X1602243Y1649995D01*
X1602781Y1650408D01*
X1603095Y1650817D01*
X1605194D01*
X1605234Y1650768D01*
Y1649390D01*
X1605237Y1649314D01*
X1604662Y1648739D01*
X1604587Y1648742D01*
X1603209D01*
X1602666Y1648634D01*
X1602205Y1648326D01*
X1601897Y1647866D01*
X1601789Y1647323D01*
X1601897Y1646780D01*
X1602192Y1646339D01*
X1601897Y1645897D01*
X1601789Y1645354D01*
X1601897Y1644811D01*
X1602192Y1644370D01*
X1601897Y1643929D01*
X1601789Y1643386D01*
X1601798Y1643342D01*
X1601631Y1642595D01*
X1601218Y1642319D01*
X1589808Y1630908D01*
X1589531Y1630495D01*
X1589434Y1630007D01*
Y1625290D01*
X1588372D01*
X1588234Y1625290D01*
Y1625290D01*
X1587672D01*
Y1625290D01*
X1582722D01*
Y1620143D01*
X1583260D01*
Y1617416D01*
X1582722D01*
Y1615107D01*
X1581826Y1614211D01*
X1580885Y1614024D01*
X1580066Y1613477D01*
X1579519Y1612659D01*
X1579327Y1611693D01*
X1579519Y1610727D01*
X1580066Y1609909D01*
X1580885Y1609362D01*
X1581850Y1609170D01*
X1582816Y1609362D01*
X1583635Y1609909D01*
X1584182Y1610727D01*
X1584271Y1611177D01*
X1585363Y1612269D01*
X1586777D01*
Y1610449D01*
X1573252Y1596924D01*
X1546748D01*
X1546236Y1597437D01*
X1545822Y1597713D01*
X1545335Y1597810D01*
X1539921D01*
X1539433Y1597713D01*
X1539020Y1597437D01*
X1538275Y1596692D01*
X1537756Y1596795D01*
X1536790Y1596603D01*
X1535972Y1596056D01*
X1535425Y1595237D01*
X1535233Y1594272D01*
X1535425Y1593306D01*
X1535972Y1592487D01*
X1536790Y1591940D01*
X1537756Y1591748D01*
X1538721Y1591940D01*
X1539540Y1592487D01*
X1539859Y1592964D01*
X1540602Y1592816D01*
X1540641Y1592617D01*
X1541188Y1591798D01*
X1542007Y1591251D01*
X1542972Y1591059D01*
X1543938Y1591251D01*
X1544757Y1591798D01*
X1545097Y1592308D01*
X1574075D01*
X1574562Y1592405D01*
X1574976Y1592682D01*
X1591610Y1609315D01*
X1591886Y1609729D01*
X1591983Y1610217D01*
Y1612269D01*
X1593184D01*
Y1615515D01*
X1594366Y1616697D01*
X1594642Y1617111D01*
X1594685Y1617326D01*
X1595328Y1617576D01*
X1595428Y1617572D01*
X1596697Y1616303D01*
X1597111Y1616027D01*
X1597598Y1615930D01*
X1599553D01*
Y1614631D01*
X1604502D01*
Y1614631D01*
X1605065D01*
Y1614631D01*
X1613321D01*
X1613459Y1614631D01*
Y1614631D01*
X1614021D01*
Y1614631D01*
X1615069D01*
Y1609666D01*
X1614699Y1609297D01*
X1614390Y1608834D01*
X1614281Y1608288D01*
X1614281Y1608288D01*
Y1605506D01*
X1613431D01*
Y1598982D01*
X1617987D01*
Y1605506D01*
X1617136D01*
Y1607696D01*
X1617505Y1608066D01*
X1617505Y1608066D01*
X1617815Y1608529D01*
X1617924Y1609075D01*
X1617924Y1609075D01*
Y1614631D01*
X1618971D01*
Y1619356D01*
X1618971D01*
Y1624502D01*
X1617924D01*
Y1625694D01*
X1624419Y1632190D01*
X1624750Y1632053D01*
Y1632053D01*
X1629896D01*
Y1633120D01*
X1630342Y1633209D01*
X1630806Y1633518D01*
X1631482Y1634194D01*
X1631482Y1634194D01*
X1631791Y1634657D01*
X1631900Y1635204D01*
X1631900Y1635204D01*
Y1650147D01*
X1631791Y1650694D01*
X1631482Y1651157D01*
X1631482Y1651157D01*
X1630566Y1652072D01*
X1630103Y1652382D01*
X1629896Y1652423D01*
Y1653538D01*
X1624750D01*
X1624750Y1653538D01*
X1624157Y1653796D01*
X1624021Y1653887D01*
X1623474Y1653996D01*
X1623474Y1653996D01*
X1618047D01*
X1617590Y1654633D01*
X1617656Y1654868D01*
X1618397Y1655158D01*
X1618483Y1655100D01*
X1619449Y1654908D01*
X1620414Y1655100D01*
X1621233Y1655647D01*
X1621780Y1656466D01*
X1621972Y1657431D01*
X1621834Y1658124D01*
X1622022Y1658824D01*
X1622022D01*
Y1663774D01*
X1622022Y1663774D01*
X1622122Y1664236D01*
X1622122Y1664236D01*
X1622122Y1664433D01*
Y1666311D01*
X1619449D01*
Y1667311D01*
X1622122D01*
Y1669386D01*
X1620968D01*
X1620881Y1670086D01*
X1620945Y1670169D01*
X1621204Y1670795D01*
X1621227Y1670967D01*
X1618695D01*
Y1671967D01*
X1621227D01*
X1621204Y1672139D01*
X1620945Y1672766D01*
X1620812Y1672939D01*
X1620449Y1673488D01*
Y1676646D01*
X1618661D01*
Y1677646D01*
X1620449D01*
Y1680344D01*
X1622092D01*
Y1674376D01*
X1630191D01*
Y1681687D01*
X1625054D01*
X1624786Y1682334D01*
X1626527Y1684076D01*
Y1687677D01*
Y1691236D01*
X1623173D01*
X1622908Y1691826D01*
Y1692317D01*
X1613628D01*
Y1692317D01*
X1613459D01*
D02*
G37*
G36*
X1643465Y1695106D02*
X1642130Y1694975D01*
X1640848Y1694586D01*
X1639665Y1693954D01*
X1638629Y1693103D01*
X1637779Y1692067D01*
X1637147Y1690885D01*
X1636757Y1689602D01*
X1636626Y1688268D01*
X1636757Y1686934D01*
X1637147Y1685651D01*
X1637779Y1684468D01*
X1638629Y1683432D01*
X1639665Y1682582D01*
X1640848Y1681950D01*
X1642130Y1681561D01*
X1643465Y1681429D01*
X1644799Y1681561D01*
X1646082Y1681950D01*
X1647264Y1682582D01*
X1648300Y1683432D01*
X1649150Y1684468D01*
X1649783Y1685651D01*
X1650172Y1686934D01*
X1650303Y1688268D01*
X1650172Y1689602D01*
X1649783Y1690885D01*
X1649150Y1692067D01*
X1648300Y1693103D01*
X1647264Y1693954D01*
X1646082Y1694586D01*
X1644799Y1694975D01*
X1643465Y1695106D01*
D02*
G37*
G36*
X1632904Y1690208D02*
Y1688177D01*
X1634935D01*
X1634913Y1688349D01*
X1634653Y1688976D01*
X1634241Y1689514D01*
X1633703Y1689926D01*
X1633076Y1690186D01*
X1632904Y1690208D01*
D02*
G37*
G36*
X1600445Y1654775D02*
X1600273Y1654753D01*
X1599646Y1654493D01*
X1599109Y1654080D01*
X1598696Y1653543D01*
X1598436Y1652916D01*
X1598414Y1652744D01*
X1600445D01*
Y1654775D01*
D02*
G37*
G36*
X1541691Y1499973D02*
X1539660D01*
Y1497941D01*
X1539832Y1497964D01*
X1540458Y1498223D01*
X1540996Y1498636D01*
X1541409Y1499174D01*
X1541668Y1499800D01*
X1541691Y1499973D01*
D02*
G37*
G36*
X1627527Y1691236D02*
Y1687677D01*
Y1684118D01*
X1630882D01*
Y1684763D01*
X1631582Y1685231D01*
X1631732Y1685169D01*
X1631904Y1685146D01*
Y1687677D01*
Y1690208D01*
X1631732Y1690186D01*
X1631582Y1690124D01*
X1630882Y1690591D01*
Y1691236D01*
X1627527D01*
D02*
G37*
G36*
X1634935Y1687177D02*
X1632904D01*
Y1685146D01*
X1633076Y1685169D01*
X1633703Y1685428D01*
X1634241Y1685841D01*
X1634653Y1686379D01*
X1634913Y1687005D01*
X1634935Y1687177D01*
D02*
G37*
G36*
X1556850Y1466760D02*
X1555516Y1466628D01*
X1554233Y1466239D01*
X1553051Y1465607D01*
X1552015Y1464757D01*
X1551164Y1463721D01*
X1550533Y1462538D01*
X1550143Y1461255D01*
X1550012Y1459921D01*
X1550143Y1458587D01*
X1550533Y1457304D01*
X1551164Y1456122D01*
X1552015Y1455086D01*
X1553051Y1454235D01*
X1554233Y1453603D01*
X1555516Y1453214D01*
X1556850Y1453083D01*
X1558185Y1453214D01*
X1559467Y1453603D01*
X1560650Y1454235D01*
X1561686Y1455086D01*
X1562536Y1456122D01*
X1563168Y1457304D01*
X1563557Y1458587D01*
X1563689Y1459921D01*
X1563557Y1461255D01*
X1563168Y1462538D01*
X1562536Y1463721D01*
X1561686Y1464757D01*
X1560650Y1465607D01*
X1559467Y1466239D01*
X1558185Y1466628D01*
X1556850Y1466760D01*
D02*
G37*
G36*
X1493949Y1466114D02*
X1491918D01*
X1491940Y1465942D01*
X1492200Y1465316D01*
X1492612Y1464778D01*
X1493150Y1464365D01*
X1493777Y1464106D01*
X1493949Y1464083D01*
Y1466114D01*
D02*
G37*
G36*
X1528618Y1450957D02*
X1526543D01*
Y1448783D01*
X1528618D01*
Y1450957D01*
D02*
G37*
G36*
X1493949Y1469145D02*
X1493777Y1469123D01*
X1493150Y1468863D01*
X1492612Y1468451D01*
X1492200Y1467913D01*
X1491940Y1467286D01*
X1491918Y1467114D01*
X1493949D01*
Y1469145D01*
D02*
G37*
G36*
X1539660Y1503004D02*
Y1500972D01*
X1541691D01*
X1541668Y1501145D01*
X1541409Y1501771D01*
X1540996Y1502309D01*
X1540458Y1502722D01*
X1539832Y1502981D01*
X1539660Y1503004D01*
D02*
G37*
G36*
X1650172Y1572337D02*
X1643647D01*
Y1560695D01*
X1650172D01*
Y1572337D01*
D02*
G37*
G36*
X1520831Y1548274D02*
X1514032D01*
Y1539506D01*
X1520831D01*
Y1548274D01*
D02*
G37*
G36*
X1650172Y1550683D02*
X1643647D01*
Y1539041D01*
X1650172D01*
Y1550683D01*
D02*
G37*
G36*
X1523158Y1558426D02*
X1522986Y1558403D01*
X1522360Y1558143D01*
X1521822Y1557731D01*
X1521531Y1557352D01*
X1520831Y1557535D01*
Y1558042D01*
X1514032D01*
Y1549274D01*
X1520831D01*
Y1554253D01*
X1521531Y1554436D01*
X1521822Y1554058D01*
X1522360Y1553645D01*
X1522986Y1553386D01*
X1523158Y1553363D01*
Y1555894D01*
Y1558426D01*
D02*
G37*
G36*
X1660014Y1572337D02*
X1653490D01*
Y1567525D01*
X1653440Y1567403D01*
X1653323Y1566516D01*
Y1559807D01*
X1640906D01*
X1640018Y1559690D01*
X1639191Y1559348D01*
X1638481Y1558803D01*
X1636733Y1557055D01*
X1636086Y1557323D01*
Y1557942D01*
X1621687D01*
Y1539606D01*
X1636086D01*
Y1546708D01*
X1642326Y1552949D01*
X1653323D01*
Y1544862D01*
X1653440Y1543975D01*
X1653490Y1543853D01*
Y1539041D01*
X1660014D01*
Y1543853D01*
X1660065Y1543975D01*
X1660181Y1544862D01*
Y1556378D01*
Y1566516D01*
X1660065Y1567403D01*
X1660014Y1567525D01*
Y1572337D01*
D02*
G37*
G36*
X1524158Y1558426D02*
Y1556394D01*
X1526190D01*
X1526167Y1556567D01*
X1525907Y1557193D01*
X1525495Y1557731D01*
X1524957Y1558143D01*
X1524331Y1558403D01*
X1524158Y1558426D01*
D02*
G37*
G36*
X1554587Y1659390D02*
X1552283Y1659209D01*
X1550036Y1658670D01*
X1547902Y1657785D01*
X1545932Y1656578D01*
X1544174Y1655077D01*
X1542674Y1653320D01*
X1541467Y1651350D01*
X1540582Y1649216D01*
X1540043Y1646969D01*
X1539862Y1644665D01*
X1540043Y1642362D01*
X1540582Y1640115D01*
X1541467Y1637980D01*
X1542674Y1636010D01*
X1544174Y1634253D01*
X1545932Y1632753D01*
X1547902Y1631545D01*
X1550036Y1630661D01*
X1552283Y1630122D01*
X1554587Y1629940D01*
X1556890Y1630122D01*
X1559137Y1630661D01*
X1561272Y1631545D01*
X1563242Y1632753D01*
X1564999Y1634253D01*
X1566499Y1636010D01*
X1567707Y1637980D01*
X1568591Y1640115D01*
X1569130Y1642362D01*
X1569312Y1644665D01*
X1569130Y1646969D01*
X1568591Y1649216D01*
X1567707Y1651350D01*
X1566499Y1653320D01*
X1564999Y1655077D01*
X1563242Y1656578D01*
X1561272Y1657785D01*
X1559137Y1658670D01*
X1556890Y1659209D01*
X1554587Y1659390D01*
D02*
G37*
G36*
X1600445Y1651744D02*
X1598414D01*
X1598436Y1651572D01*
X1598696Y1650946D01*
X1599109Y1650408D01*
X1599646Y1649995D01*
X1600273Y1649736D01*
X1600445Y1649713D01*
Y1651744D01*
D02*
G37*
G36*
X1550964Y1513671D02*
X1548933D01*
Y1511640D01*
X1549105Y1511663D01*
X1549732Y1511922D01*
X1550269Y1512335D01*
X1550682Y1512873D01*
X1550941Y1513499D01*
X1550964Y1513671D01*
D02*
G37*
G36*
X1573148Y1520065D02*
X1571117D01*
X1571139Y1519893D01*
X1571399Y1519267D01*
X1571811Y1518729D01*
X1572349Y1518316D01*
X1572976Y1518057D01*
X1573148Y1518034D01*
Y1520065D01*
D02*
G37*
G36*
X1701134Y1582847D02*
X1699103D01*
X1699125Y1582674D01*
X1699385Y1582048D01*
X1699797Y1581510D01*
X1700335Y1581097D01*
X1700962Y1580838D01*
X1701134Y1580815D01*
Y1582847D01*
D02*
G37*
G36*
Y1585878D02*
X1700962Y1585855D01*
X1700335Y1585596D01*
X1699797Y1585183D01*
X1699385Y1584645D01*
X1699125Y1584019D01*
X1699103Y1583846D01*
X1701134D01*
Y1585878D01*
D02*
G37*
%LPD*%
D10*
X1556850Y1459921D02*
D03*
X1737953Y1540630D02*
D03*
X1643465Y1688268D02*
D03*
D11*
X1539134Y1470945D02*
D03*
Y1476457D02*
D03*
X1535197Y1500473D02*
D03*
Y1505984D02*
D03*
X1500453Y1469567D02*
D03*
Y1475079D02*
D03*
X1515669Y1453661D02*
D03*
Y1459173D02*
D03*
X1533524Y1463465D02*
D03*
Y1468976D02*
D03*
X1527618Y1463465D02*
D03*
Y1468976D02*
D03*
X1627323Y1640039D02*
D03*
Y1634528D02*
D03*
X1619449Y1666811D02*
D03*
Y1661299D02*
D03*
X1480571Y1491417D02*
D03*
Y1485905D02*
D03*
X1475453Y1491417D02*
D03*
Y1485905D02*
D03*
X1627323Y1651063D02*
D03*
Y1645551D02*
D03*
X1515669Y1443661D02*
D03*
Y1449173D02*
D03*
D12*
X1604095Y1630197D02*
D03*
X1609606D02*
D03*
X1607539Y1617205D02*
D03*
X1602028D02*
D03*
X1607539Y1621929D02*
D03*
X1602028D02*
D03*
X1520531Y1451457D02*
D03*
X1526043D02*
D03*
X1590709Y1622717D02*
D03*
X1585197D02*
D03*
X1590709Y1614842D02*
D03*
X1585197D02*
D03*
X1495039Y1528819D02*
D03*
X1500551D02*
D03*
X1495039Y1534331D02*
D03*
X1500551D02*
D03*
X1495039Y1540236D02*
D03*
X1500551D02*
D03*
X1684016Y1566220D02*
D03*
X1689528D02*
D03*
X1684016Y1560315D02*
D03*
X1689528D02*
D03*
X1616496Y1617205D02*
D03*
X1610984D02*
D03*
X1616496Y1621929D02*
D03*
X1610984D02*
D03*
X1715315Y1576850D02*
D03*
X1720827D02*
D03*
X1714823Y1554114D02*
D03*
X1720335D02*
D03*
X1489035Y1483248D02*
D03*
X1494547D02*
D03*
D14*
X1503173Y1520299D02*
Y1531342D01*
X1502638Y1519764D02*
X1503173Y1520299D01*
Y1531342D02*
X1508327Y1536496D01*
X1506063Y1532245D02*
X1508917Y1535099D01*
X1506063Y1519764D02*
Y1532245D01*
X1509213Y1532067D02*
X1510848Y1533702D01*
X1509213Y1519764D02*
Y1532067D01*
X1508917Y1535099D02*
X1521799D01*
X1529193Y1542493D01*
X1521220Y1536496D02*
X1527618Y1542894D01*
X1508327Y1536496D02*
X1521220D01*
X1680374Y1560315D02*
X1684016D01*
X1680276Y1566220D02*
X1684016D01*
X1496158Y1503399D02*
Y1504177D01*
X1494646Y1505689D02*
X1496158Y1504177D01*
Y1503399D02*
X1504955Y1494603D01*
X1498779Y1503701D02*
X1506437Y1496043D01*
X1498779Y1503701D02*
Y1505197D01*
X1498067Y1499413D02*
X1504587Y1492894D01*
X1474689Y1499413D02*
X1498067D01*
X1497008Y1493779D02*
X1499037Y1491750D01*
X1597598Y1617205D02*
X1602028D01*
X1595728Y1619075D02*
X1597598Y1617205D01*
X1595728Y1619075D02*
Y1623799D01*
X1598681Y1626752D01*
X1611083D01*
X1614528Y1630197D01*
Y1634724D01*
X1593465Y1630787D02*
X1602126Y1639449D01*
X1593465Y1617598D02*
Y1630787D01*
X1590709Y1614842D02*
X1593465Y1617598D01*
X1463350Y1517366D02*
X1466831Y1520846D01*
X1460649Y1517366D02*
X1463350D01*
X1460036Y1516753D02*
X1460649Y1517366D01*
X1460036Y1514052D02*
Y1516753D01*
X1457579Y1511594D02*
X1460036Y1514052D01*
X1467035Y1519075D02*
X1481358D01*
X1462579Y1514619D02*
X1467035Y1519075D01*
X1462579Y1511594D02*
Y1514619D01*
X1466831Y1520846D02*
X1480965D01*
X1722500Y1560453D02*
X1722831Y1560122D01*
Y1558346D02*
Y1560122D01*
Y1558346D02*
X1723287Y1557890D01*
Y1551555D02*
Y1557890D01*
X1718957Y1547224D02*
X1723287Y1551555D01*
X1718957Y1545354D02*
Y1547224D01*
X1724468Y1566811D02*
Y1570216D01*
Y1566811D02*
X1728898Y1562382D01*
Y1551161D02*
Y1562382D01*
X1539429Y1515433D02*
X1557146Y1533150D01*
X1539429Y1512579D02*
Y1515433D01*
X1542051Y1512444D02*
X1557047Y1527441D01*
X1542051Y1511493D02*
Y1512444D01*
X1540515Y1509957D02*
X1542051Y1511493D01*
X1538343Y1509957D02*
X1540515D01*
X1536509Y1511791D02*
X1538343Y1509957D01*
X1534705Y1511791D02*
X1536509D01*
X1480571Y1491417D02*
Y1495354D01*
X1469744Y1494468D02*
X1474689Y1499413D01*
X1499037Y1491750D02*
X1499726D01*
X1504587Y1492894D02*
X1506437D01*
X1504955Y1494603D02*
X1506303D01*
X1506437Y1494468D01*
X1582009Y1502497D02*
Y1535277D01*
X1565929Y1486417D02*
X1582009Y1502497D01*
X1565512Y1480669D02*
X1583406Y1498564D01*
X1566205Y1477244D02*
X1584803Y1495842D01*
X1532736Y1478228D02*
X1535787D01*
X1532244Y1478720D02*
X1532736Y1478228D01*
X1530256Y1478720D02*
X1532244D01*
X1538346Y1480787D02*
X1539823D01*
X1535787Y1478228D02*
X1538346Y1480787D01*
X1534016Y1480295D02*
X1534606Y1480886D01*
X1530256Y1480295D02*
X1534016D01*
X1484803Y1510709D02*
X1491791D01*
X1479488Y1505394D02*
X1484803Y1510709D01*
X1461079Y1505394D02*
X1479488D01*
X1460036Y1506437D02*
X1461079Y1505394D01*
X1460036Y1506437D02*
Y1509137D01*
X1457579Y1511594D02*
X1460036Y1509137D01*
X1497661Y1526649D02*
Y1530926D01*
X1495039Y1533547D02*
X1497661Y1530926D01*
X1495039Y1533547D02*
Y1534331D01*
X1493661Y1528819D02*
X1495039D01*
X1480276Y1515433D02*
X1493661Y1528819D01*
X1480276Y1514291D02*
Y1515433D01*
X1477579Y1511594D02*
X1480276Y1514291D01*
X1491890Y1534331D02*
X1495039D01*
X1489232Y1531673D02*
X1491890Y1534331D01*
X1489232Y1526949D02*
Y1531673D01*
X1481358Y1519075D02*
X1489232Y1526949D01*
X1490512Y1540236D02*
X1495039D01*
X1487559Y1537284D02*
X1490512Y1540236D01*
X1487559Y1527441D02*
Y1537284D01*
X1480965Y1520846D02*
X1487559Y1527441D01*
X1537658Y1594272D02*
X1539921Y1596535D01*
X1490512Y1489843D02*
X1491102Y1490433D01*
X1490610Y1493484D02*
X1493741Y1490353D01*
X1485295Y1493484D02*
X1490610D01*
X1493741Y1490353D02*
X1498669D01*
X1487277Y1487382D02*
X1497316D01*
X1490321Y1490033D02*
Y1490047D01*
Y1490033D02*
X1490512Y1489843D01*
X1491102Y1490433D02*
X1492579Y1488957D01*
X1483241Y1491417D02*
X1487277Y1487382D01*
X1492579Y1488957D02*
X1498091D01*
X1460394Y1496339D02*
X1462264Y1494468D01*
X1469744D01*
X1499726Y1491750D02*
X1501732Y1489744D01*
X1506437D01*
X1498669Y1490353D02*
X1500853Y1488169D01*
X1506437D01*
X1498091Y1488957D02*
X1500453Y1486594D01*
X1480571Y1491417D02*
X1483241D01*
X1497316Y1487382D02*
X1499678Y1485020D01*
X1506437D01*
X1494547Y1483248D02*
X1495531D01*
X1496909Y1481870D01*
X1506437D01*
X1500453Y1486594D02*
X1506437D01*
X1539921Y1596535D02*
X1545335D01*
X1546220Y1595650D01*
X1573779D01*
X1588051Y1609921D01*
Y1620059D01*
X1590709Y1622717D01*
Y1630007D01*
X1602119Y1641417D01*
X1603898D01*
X1590709Y1610217D02*
Y1614842D01*
X1574075Y1593583D02*
X1590709Y1610217D01*
X1542972Y1593583D02*
X1574075D01*
X1602126Y1639449D02*
X1603898D01*
X1592087Y1560907D02*
Y1575374D01*
X1592185D01*
X1592087Y1560907D02*
X1596338Y1556656D01*
X1565512Y1477244D02*
X1566205D01*
X1592185Y1583642D02*
X1604095D01*
X1565512Y1486417D02*
X1565929D01*
X1580177Y1538169D02*
X1581752Y1539744D01*
X1580177Y1503815D02*
Y1538169D01*
X1566205Y1489843D02*
X1580177Y1503815D01*
X1565512Y1489843D02*
X1566205D01*
X1578701Y1557854D02*
X1580374Y1559528D01*
X1578701Y1505000D02*
Y1557854D01*
X1566693Y1492992D02*
X1578701Y1505000D01*
X1565512Y1492992D02*
X1566693D01*
X1577028Y1580492D02*
X1580276Y1583740D01*
X1577028Y1505650D02*
Y1580492D01*
X1567795Y1496417D02*
X1577028Y1505650D01*
X1565512Y1496417D02*
X1567795D01*
X1527618Y1542894D02*
Y1553917D01*
X1532244Y1558543D01*
X1539921Y1586988D02*
X1540118Y1587185D01*
X1529193Y1542493D02*
Y1553228D01*
X1533819Y1557854D01*
Y1580000D01*
X1536673Y1582854D01*
X1537165D01*
X1532244Y1558543D02*
Y1583445D01*
X1535787Y1586988D01*
X1539921D01*
X1510848Y1533702D02*
X1522378D01*
X1532638Y1543962D01*
Y1550669D01*
X1512638Y1519764D02*
Y1530472D01*
X1514429Y1532264D01*
X1523091D01*
X1530472Y1539646D01*
X1536575D01*
X1521811Y1519764D02*
Y1524882D01*
X1531555Y1534626D01*
X1541004D01*
X1524961Y1519764D02*
Y1525079D01*
X1532933Y1533051D01*
X1542677D01*
X1564626Y1555000D02*
Y1585610D01*
X1562854Y1587382D02*
X1564626Y1585610D01*
X1559409Y1587382D02*
X1562854D01*
X1549173Y1577146D02*
X1559409Y1587382D01*
X1549173Y1575571D02*
Y1577146D01*
X1528386Y1519764D02*
Y1524665D01*
X1534803Y1531083D01*
X1544350D01*
X1567776Y1554508D01*
Y1583248D01*
X1571417Y1586890D01*
X1542677Y1533051D02*
X1564626Y1555000D01*
X1541004Y1534626D02*
X1560689Y1554311D01*
Y1583642D01*
X1583406Y1498564D02*
Y1532245D01*
X1594941Y1543779D02*
Y1552999D01*
X1583406Y1532245D02*
X1594941Y1543779D01*
X1596338Y1543201D02*
Y1556656D01*
X1584803Y1495842D02*
Y1531666D01*
X1596338Y1543201D01*
X1584114Y1575571D02*
X1592185Y1583642D01*
X1584114Y1563826D02*
X1594941Y1552999D01*
X1584114Y1563826D02*
Y1575571D01*
X1582009Y1535277D02*
X1591693Y1544961D01*
Y1552933D01*
X1493855Y1516815D02*
X1494941Y1515728D01*
X1493855Y1516815D02*
Y1522843D01*
X1497661Y1526649D01*
D15*
X1497303Y1498012D02*
X1503996Y1491319D01*
X1475846Y1498012D02*
X1497303D01*
X1478701Y1473701D02*
X1478898Y1473504D01*
X1478701Y1473701D02*
Y1479311D01*
X1482047Y1462677D02*
X1486378Y1467008D01*
X1475945Y1462677D02*
X1482047D01*
X1473386Y1465236D02*
X1475945Y1462677D01*
X1669941Y1536988D02*
X1720827D01*
X1658425Y1525472D02*
X1669941Y1536988D01*
X1623386Y1525472D02*
X1658425D01*
X1671122Y1535020D02*
X1721319D01*
X1659803Y1523701D02*
X1671122Y1535020D01*
X1625158Y1523701D02*
X1659803D01*
X1724468Y1560453D02*
X1725846Y1559075D01*
Y1551752D02*
Y1559075D01*
X1724665Y1550571D02*
X1725846Y1551752D01*
X1724665Y1545220D02*
Y1550571D01*
X1728209Y1580197D02*
X1743169Y1565236D01*
X1728209Y1580197D02*
Y1592500D01*
X1743169Y1559331D02*
Y1565236D01*
X1720827Y1536988D02*
X1743169Y1559331D01*
X1572008Y1474094D02*
X1623386Y1525472D01*
X1565512Y1474094D02*
X1572008D01*
X1745630Y1559331D02*
Y1592500D01*
X1721319Y1535020D02*
X1745630Y1559331D01*
X1572126Y1470669D02*
X1625158Y1523701D01*
X1565512Y1470669D02*
X1572126D01*
X1470728Y1488760D02*
X1473386Y1491417D01*
X1475453D01*
X1464331Y1486496D02*
X1475846Y1498012D01*
X1503996Y1491319D02*
X1506437D01*
X1486705Y1485972D02*
X1496744D01*
X1460394Y1486496D02*
X1464331D01*
X1475453Y1491417D02*
X1478307Y1488563D01*
X1484114D01*
X1486705Y1485972D01*
X1496744D02*
X1499272Y1483445D01*
X1506437D01*
X1556240Y1470669D02*
X1560000D01*
X1543465Y1483445D02*
X1556240Y1470669D01*
X1530256Y1483445D02*
X1543465D01*
X1463150Y1480886D02*
Y1483740D01*
X1460394Y1486496D02*
X1463150Y1483740D01*
X1480079Y1475079D02*
X1485197Y1480197D01*
X1506339D01*
X1506437Y1480295D01*
X1488554Y1478720D02*
X1506437D01*
X1486378Y1476545D02*
X1488554Y1478720D01*
X1486378Y1467008D02*
Y1476545D01*
X1473386Y1465236D02*
Y1468386D01*
D16*
X1499872Y1522628D02*
X1500551Y1523307D01*
Y1528819D01*
Y1534331D01*
Y1540236D01*
X1552028Y1505984D02*
X1570728Y1524685D01*
X1535197Y1505984D02*
X1552028D01*
X1655866Y1530787D02*
X1666595Y1541516D01*
X1624567Y1530787D02*
X1655866D01*
X1609016Y1546339D02*
Y1584528D01*
X1581850Y1611693D02*
X1582047D01*
X1585197Y1614842D01*
Y1622717D01*
X1609016Y1546339D02*
X1624567Y1530787D01*
X1609016Y1584921D02*
X1611772Y1587677D01*
X1615709D01*
X1472501Y1485905D02*
X1475453D01*
X1471025Y1484429D02*
X1472501Y1485905D01*
X1468858Y1484429D02*
X1471025D01*
X1689528Y1560315D02*
Y1566220D01*
Y1570551D01*
X1689232Y1570846D02*
X1689528Y1570551D01*
X1676831Y1570846D02*
X1689232D01*
X1672500Y1566516D02*
X1676831Y1570846D01*
X1666595Y1566516D02*
X1672500D01*
X1539134Y1476457D02*
X1539528Y1476063D01*
X1544252D01*
D17*
X1515669Y1451653D02*
X1515866Y1451457D01*
X1520531D01*
X1539134Y1464646D02*
Y1470945D01*
X1494449Y1466614D02*
X1497402Y1469567D01*
X1500453D01*
X1607539Y1617205D02*
X1610984D01*
X1607539Y1621929D02*
X1610984D01*
X1468858Y1478228D02*
Y1479606D01*
Y1478228D02*
X1472697Y1474390D01*
X1473386Y1473701D01*
Y1473504D02*
Y1473701D01*
X1481457Y1466811D02*
X1483425Y1468779D01*
X1478898Y1466811D02*
X1481457D01*
X1474254Y1483034D02*
X1489035D01*
X1473386Y1479311D02*
Y1482165D01*
X1474254Y1483034D01*
X1489035D02*
Y1483248D01*
D18*
X1499872Y1509105D02*
Y1522628D01*
Y1509105D02*
X1509685Y1499291D01*
X1518957Y1466024D02*
X1521909D01*
X1518760D02*
X1518957D01*
X1530768Y1496043D02*
X1535197Y1500473D01*
X1530256Y1496043D02*
X1530768D01*
X1600551Y1631968D02*
X1602323Y1630197D01*
X1604095D01*
X1715610Y1574094D02*
Y1578720D01*
X1713543Y1583346D02*
X1716890Y1580000D01*
X1701634Y1583346D02*
X1713543D01*
X1722319Y1570035D02*
X1722500Y1570216D01*
X1722319Y1564722D02*
Y1570035D01*
X1720531Y1562935D02*
X1722319Y1564722D01*
X1720531Y1560453D02*
Y1562935D01*
X1722500Y1570216D02*
X1722681Y1570398D01*
Y1573094D01*
X1720531Y1576260D02*
X1721122Y1576850D01*
X1720531Y1570216D02*
Y1576260D01*
X1722681Y1573094D02*
X1724173Y1574587D01*
Y1579016D01*
X1723189Y1580000D02*
X1724173Y1579016D01*
X1716890Y1580000D02*
X1723189D01*
X1715610Y1578720D02*
X1716890Y1580000D01*
X1714823Y1554114D02*
Y1556673D01*
X1716595Y1558445D01*
Y1560453D01*
Y1570216D01*
X1720335Y1554114D02*
Y1556575D01*
X1718563Y1558346D02*
X1720335Y1556575D01*
X1718563Y1558346D02*
Y1560453D01*
Y1563366D01*
X1720531Y1565335D01*
Y1570216D01*
X1716595D02*
Y1573110D01*
X1715610Y1574094D02*
X1716595Y1573110D01*
X1606850Y1672717D02*
X1610000D01*
X1610984Y1673701D01*
X1600945Y1670729D02*
X1602261Y1672045D01*
X1607638Y1666811D02*
X1609606Y1664842D01*
X1612559Y1650079D02*
Y1652441D01*
X1607313Y1652360D02*
X1608622Y1651051D01*
Y1650079D02*
Y1651051D01*
X1605763Y1652244D02*
X1605878Y1652360D01*
X1607313D01*
X1622598Y1639252D02*
X1623386D01*
X1624173Y1640039D01*
X1602261Y1672045D02*
X1603423D01*
X1603898Y1669764D02*
X1606850Y1672717D01*
X1617480Y1664842D02*
X1619449Y1666811D01*
X1603307Y1662874D02*
X1609213D01*
X1609606Y1664842D02*
X1617480D01*
X1609213Y1662874D02*
X1617874D01*
X1600945Y1665236D02*
X1603307Y1662874D01*
X1610591Y1653622D02*
X1611378Y1654409D01*
Y1659331D01*
X1625748Y1645551D02*
X1627323D01*
X1600945Y1652244D02*
X1605763D01*
X1619252Y1647323D02*
X1622008D01*
X1619252Y1643386D02*
X1623583D01*
X1624173Y1640039D02*
X1627323D01*
X1618661Y1677146D02*
Y1681772D01*
X1616102Y1677146D02*
Y1681575D01*
X1608425Y1677047D02*
Y1677146D01*
X1610984Y1673701D02*
Y1677146D01*
X1623583Y1643386D02*
X1625748Y1645551D01*
X1607638Y1666811D02*
Y1668780D01*
Y1661299D02*
X1609213Y1662874D01*
X1607638Y1659331D02*
Y1661299D01*
X1610591Y1650079D02*
Y1653622D01*
X1600945Y1665236D02*
Y1670729D01*
X1611378Y1668780D02*
X1613543Y1670945D01*
X1617874Y1662874D02*
X1619449Y1661299D01*
X1613543Y1670945D02*
Y1677146D01*
X1630472Y1635204D02*
Y1650147D01*
X1603423Y1672045D02*
X1608425Y1677047D01*
X1525433Y1494468D02*
X1527008Y1496043D01*
X1515984Y1485020D02*
X1518347Y1487382D01*
X1520709Y1489744D01*
X1532734Y1468976D02*
X1533524D01*
X1525177Y1471339D02*
X1525489Y1471651D01*
X1522894Y1471339D02*
X1525177D01*
X1522894Y1468976D02*
X1527618D01*
X1517559Y1471161D02*
X1518760Y1469961D01*
X1515610D02*
X1515984Y1470335D01*
X1512658Y1470078D02*
Y1471339D01*
X1501240Y1469370D02*
X1502618Y1467992D01*
X1524469Y1463465D02*
X1527618D01*
X1527008Y1496043D02*
X1530256D01*
X1502618Y1467992D02*
X1514744D01*
X1530060Y1471651D02*
X1532734Y1468976D01*
X1525489Y1471651D02*
X1530060D01*
X1512658Y1470078D02*
X1514744Y1467992D01*
X1521909Y1466024D02*
X1524469Y1463465D01*
X1515610Y1459232D02*
X1515669Y1459173D01*
X1515610Y1459232D02*
Y1466024D01*
X1514410Y1483445D02*
X1515984Y1485020D01*
X1520709Y1489744D02*
X1525433Y1494468D01*
X1512835Y1475473D02*
X1514384D01*
X1514410D02*
Y1483445D01*
X1525433Y1499291D02*
Y1502618D01*
X1528504Y1505689D01*
Y1514134D01*
X1528386Y1514252D02*
X1528504Y1514134D01*
X1463051Y1498996D02*
Y1501654D01*
X1460394Y1496339D02*
X1463051Y1498996D01*
X1467087Y1468386D02*
X1473386D01*
X1466398Y1469075D02*
X1467087Y1468386D01*
X1518386Y1519764D02*
Y1525295D01*
X1529685Y1536594D01*
X1539626D01*
X1549173Y1546142D01*
Y1551850D01*
X1715906Y1549685D02*
X1720335Y1554114D01*
X1689528Y1555492D02*
Y1560315D01*
Y1555492D02*
X1695335Y1549685D01*
X1715906D01*
X1622205Y1681772D02*
X1627028Y1686595D01*
Y1687677D01*
X1600059Y1686858D02*
Y1687677D01*
Y1686858D02*
X1605145Y1681772D01*
X1622205D01*
X1619252Y1645354D02*
X1622036D01*
Y1648639D01*
X1622671Y1649274D02*
Y1649365D01*
X1619449Y1657431D02*
Y1661299D01*
X1603898Y1657092D02*
Y1659331D01*
Y1657092D02*
X1605859Y1655131D01*
X1612559Y1652441D02*
X1615512Y1655394D01*
X1627028Y1687677D02*
X1632404D01*
X1618661Y1671501D02*
Y1677146D01*
X1619449Y1666811D02*
Y1670714D01*
X1618661Y1671501D02*
X1618695Y1671467D01*
X1619449Y1670714D01*
X1535197Y1500473D02*
X1539160D01*
X1614528Y1650079D02*
Y1652147D01*
X1614949Y1652568D01*
X1616496Y1650079D02*
Y1652498D01*
X1614949Y1652568D02*
X1623474D01*
X1624980Y1651063D01*
X1627323D01*
X1629557D02*
X1630472Y1650147D01*
X1627323Y1651063D02*
X1629557D01*
X1629796Y1634528D02*
X1630472Y1635204D01*
X1627323Y1634528D02*
X1629796D01*
X1624738D02*
X1627323D01*
X1616496Y1626286D02*
X1624738Y1634528D01*
X1616496Y1621929D02*
Y1626286D01*
Y1617205D02*
Y1621929D01*
X1616496Y1617205D02*
X1616496Y1617205D01*
X1616496Y1609075D02*
Y1617205D01*
X1615709Y1608288D02*
X1616496Y1609075D01*
X1615709Y1602244D02*
Y1608288D01*
D19*
X1515669Y1453484D02*
X1515905Y1453720D01*
X1515669Y1451653D02*
Y1453484D01*
Y1449173D02*
Y1451653D01*
Y1453484D02*
Y1453661D01*
Y1439291D02*
X1515709Y1439252D01*
X1515669Y1439291D02*
Y1443661D01*
X1537953Y1463465D02*
X1539134Y1464646D01*
X1533524Y1463465D02*
X1537953D01*
X1466398Y1474390D02*
X1472697D01*
X1473386Y1473701D02*
Y1479311D01*
X1473386Y1479311D02*
X1473386Y1479311D01*
X1475453Y1485905D02*
X1480571D01*
X1457835Y1476555D02*
Y1480886D01*
Y1476555D02*
X1460000Y1474390D01*
X1466398D01*
X1452224Y1486400D02*
Y1504606D01*
Y1486400D02*
X1457739Y1480886D01*
X1457835D01*
X1455177Y1501654D02*
X1457736D01*
X1452224Y1504606D02*
X1455177Y1501654D01*
X1452224Y1504606D02*
Y1517106D01*
X1454488Y1519370D01*
X1459114D01*
X1462579Y1522835D01*
Y1526949D01*
X1514035Y1546535D02*
X1514134Y1546634D01*
X1485787Y1546535D02*
X1514035D01*
X1475059Y1535807D02*
X1485787Y1546535D01*
X1477579Y1526949D02*
Y1533287D01*
X1475059Y1535807D02*
X1477579Y1533287D01*
X1469744Y1535807D02*
X1475059D01*
X1467579Y1533642D02*
X1469744Y1535807D01*
X1467579Y1526949D02*
Y1533642D01*
X1462579Y1526949D02*
X1467579D01*
X1452520Y1526161D02*
X1456791D01*
X1457579Y1526949D01*
X1500059Y1475472D02*
X1500453Y1475079D01*
X1494843Y1475472D02*
X1500059D01*
X1526043Y1461890D02*
X1527618Y1463465D01*
X1533524D01*
X1526043Y1451457D02*
Y1461890D01*
D21*
X1554587Y1644665D02*
D03*
D22*
X1600945Y1652244D02*
D03*
X1623386Y1639252D02*
D03*
X1614921Y1655394D02*
D03*
X1605859Y1655131D02*
D03*
X1509114Y1471339D02*
D03*
X1680374Y1560315D02*
D03*
X1680276Y1566220D02*
D03*
X1498779Y1505197D02*
D03*
X1497008Y1493779D02*
D03*
X1494646Y1505689D02*
D03*
X1499475Y1522628D02*
D03*
X1539331Y1464449D02*
D03*
X1494449Y1466614D02*
D03*
X1570728Y1524685D02*
D03*
X1648878Y1530886D02*
D03*
X1600354Y1632067D02*
D03*
X1609114Y1584528D02*
D03*
X1581850Y1611693D02*
D03*
X1468858Y1479606D02*
D03*
X1483720Y1468878D02*
D03*
X1701634Y1583346D02*
D03*
X1452520Y1526161D02*
D03*
X1468858Y1484429D02*
D03*
X1494843Y1475472D02*
D03*
X1544252Y1476063D02*
D03*
X1728898Y1551161D02*
D03*
X1724665Y1545220D02*
D03*
X1718957Y1545354D02*
D03*
X1557146Y1533150D02*
D03*
Y1527441D02*
D03*
X1728209Y1592500D02*
D03*
X1745630D02*
D03*
X1470728Y1488760D02*
D03*
X1480571Y1495354D02*
D03*
X1534705Y1511791D02*
D03*
X1539429Y1512579D02*
D03*
X1539823Y1480787D02*
D03*
X1534606Y1480886D02*
D03*
X1491890Y1510807D02*
D03*
X1494843Y1515532D02*
D03*
X1485295Y1493484D02*
D03*
X1490321Y1490047D02*
D03*
X1537756Y1594272D02*
D03*
X1542972Y1593583D02*
D03*
X1592185Y1575374D02*
D03*
X1604095Y1583543D02*
D03*
X1591595Y1552638D02*
D03*
X1581752Y1539744D02*
D03*
X1580374Y1559528D02*
D03*
X1580177Y1583740D02*
D03*
X1540118Y1587185D02*
D03*
X1536673Y1582854D02*
D03*
X1532638Y1550669D02*
D03*
X1536575Y1539646D02*
D03*
X1549173Y1551850D02*
D03*
X1560689Y1583445D02*
D03*
X1549173Y1575571D02*
D03*
X1571417Y1586890D02*
D03*
X1618695Y1671467D02*
D03*
X1622671Y1649274D02*
D03*
X1619449Y1657431D02*
D03*
X1632404Y1687677D02*
D03*
X1539160Y1500473D02*
D03*
X1496865Y1519204D02*
D03*
X1548433Y1514171D02*
D03*
X1573648Y1520565D02*
D03*
X1670494Y1529022D02*
D03*
X1523658Y1555894D02*
D03*
X1550693Y1531921D02*
D03*
D23*
X1613937Y1640039D02*
D03*
Y1644764D02*
D03*
X1609213Y1640039D02*
D03*
Y1644764D02*
D03*
D24*
X1515984Y1480295D02*
D03*
X1511260D02*
D03*
Y1485020D02*
D03*
X1515984D02*
D03*
X1525433Y1480295D02*
D03*
X1520709D02*
D03*
Y1485020D02*
D03*
X1525433D02*
D03*
X1511260Y1489744D02*
D03*
Y1494468D02*
D03*
X1515984Y1489744D02*
D03*
Y1494468D02*
D03*
X1525433Y1489744D02*
D03*
X1520709D02*
D03*
X1525433Y1494468D02*
D03*
X1520709D02*
D03*
D25*
X1528386Y1514252D02*
D03*
X1518386D02*
D03*
Y1519764D02*
D03*
X1528386D02*
D03*
X1512638Y1514252D02*
D03*
X1502638D02*
D03*
Y1519764D02*
D03*
X1512638D02*
D03*
D26*
X1521811D02*
D03*
X1524961D02*
D03*
Y1514252D02*
D03*
X1521811D02*
D03*
X1506063Y1519764D02*
D03*
X1509213D02*
D03*
Y1514252D02*
D03*
X1506063D02*
D03*
D27*
X1560000Y1486417D02*
D03*
Y1496417D02*
D03*
X1565512D02*
D03*
Y1486417D02*
D03*
X1560000Y1470669D02*
D03*
Y1480669D02*
D03*
X1565512D02*
D03*
Y1470669D02*
D03*
D28*
Y1492992D02*
D03*
Y1489843D02*
D03*
X1560000D02*
D03*
Y1492992D02*
D03*
X1565512Y1477244D02*
D03*
Y1474094D02*
D03*
X1560000D02*
D03*
Y1477244D02*
D03*
D29*
X1478701Y1479311D02*
D03*
X1473386D02*
D03*
X1463150Y1480886D02*
D03*
X1457835D02*
D03*
X1463051Y1501654D02*
D03*
X1457736D02*
D03*
D30*
X1716595Y1560453D02*
D03*
X1718563D02*
D03*
X1720531D02*
D03*
X1722500D02*
D03*
X1724468D02*
D03*
Y1570216D02*
D03*
X1722500D02*
D03*
X1720531D02*
D03*
X1718563D02*
D03*
X1716595D02*
D03*
D31*
X1515709Y1439252D02*
D03*
Y1425866D02*
D03*
D32*
X1515807Y1466024D02*
D03*
Y1467992D02*
D03*
Y1469961D02*
D03*
X1518957Y1466024D02*
D03*
Y1467992D02*
D03*
Y1469961D02*
D03*
D33*
X1611575Y1642402D02*
D03*
D34*
X1603898Y1647323D02*
D03*
Y1645354D02*
D03*
Y1643386D02*
D03*
Y1641417D02*
D03*
Y1639449D02*
D03*
Y1637480D02*
D03*
X1619252D02*
D03*
Y1639449D02*
D03*
Y1641417D02*
D03*
Y1643386D02*
D03*
Y1645354D02*
D03*
Y1647323D02*
D03*
D35*
X1606654Y1634724D02*
D03*
X1608622D02*
D03*
X1610591D02*
D03*
X1612559D02*
D03*
X1614528D02*
D03*
X1616496D02*
D03*
Y1650079D02*
D03*
X1614528D02*
D03*
X1612559D02*
D03*
X1610591D02*
D03*
X1608622D02*
D03*
X1606654D02*
D03*
D36*
X1603898Y1668780D02*
D03*
D37*
X1607638D02*
D03*
X1611378D02*
D03*
Y1659331D02*
D03*
X1607638D02*
D03*
X1603898D02*
D03*
D38*
X1513532Y1548774D02*
D03*
X1628887D02*
D03*
D39*
X1478898Y1466811D02*
D03*
X1473386D02*
D03*
X1478898Y1473504D02*
D03*
X1473386D02*
D03*
D40*
X1466398Y1469075D02*
D03*
Y1474390D02*
D03*
D41*
X1608425Y1677146D02*
D03*
X1610984D02*
D03*
X1613543D02*
D03*
X1618661D02*
D03*
X1616102D02*
D03*
D42*
X1626142Y1678032D02*
D03*
X1600945D02*
D03*
D43*
X1608819Y1687677D02*
D03*
X1618268D02*
D03*
D44*
X1600059D02*
D03*
X1627028D02*
D03*
D45*
X1457579Y1526949D02*
D03*
Y1511594D02*
D03*
X1462579Y1526949D02*
D03*
Y1511594D02*
D03*
X1467579Y1526949D02*
D03*
Y1511594D02*
D03*
X1472579Y1526949D02*
D03*
Y1511594D02*
D03*
X1477579Y1526949D02*
D03*
Y1511594D02*
D03*
D46*
X1646909Y1566516D02*
D03*
X1656752D02*
D03*
X1646909Y1544862D02*
D03*
X1656752D02*
D03*
X1666595Y1566516D02*
D03*
Y1544862D02*
D03*
D47*
X1509685Y1475473D02*
D03*
X1512835D02*
D03*
X1511260D02*
D03*
X1515984D02*
D03*
X1514410D02*
D03*
X1519134D02*
D03*
X1517559D02*
D03*
X1520709D02*
D03*
X1523858D02*
D03*
X1522283D02*
D03*
X1527008D02*
D03*
X1525433D02*
D03*
X1511260Y1499291D02*
D03*
X1509685D02*
D03*
X1517559D02*
D03*
X1515984D02*
D03*
X1519134D02*
D03*
X1512835D02*
D03*
X1514410D02*
D03*
X1523858D02*
D03*
X1520709D02*
D03*
X1522283D02*
D03*
X1525433D02*
D03*
X1527008D02*
D03*
D48*
X1506437Y1478720D02*
D03*
Y1481870D02*
D03*
Y1483445D02*
D03*
Y1480295D02*
D03*
Y1486594D02*
D03*
Y1488169D02*
D03*
Y1485020D02*
D03*
X1530256Y1478720D02*
D03*
Y1480295D02*
D03*
Y1481870D02*
D03*
Y1485020D02*
D03*
Y1486594D02*
D03*
Y1483445D02*
D03*
Y1489744D02*
D03*
Y1488169D02*
D03*
X1506437Y1491319D02*
D03*
Y1492894D02*
D03*
Y1489744D02*
D03*
Y1494468D02*
D03*
Y1496043D02*
D03*
X1530256Y1492894D02*
D03*
Y1494468D02*
D03*
Y1491319D02*
D03*
Y1496043D02*
D03*
D49*
X1518347Y1487382D02*
D03*
D50*
X1615709Y1587677D02*
D03*
Y1602244D02*
D03*
D51*
X1460394Y1486496D02*
D03*
Y1496339D02*
D03*
D52*
X1532047Y1505984D02*
X1535197D01*
X1527030Y1500967D02*
X1532047Y1505984D01*
X1527030Y1499291D02*
Y1500967D01*
X1602028Y1621929D02*
X1605079Y1624980D01*
X1611968D01*
X1616496Y1629508D01*
Y1634724D01*
X1609606Y1630197D02*
X1610591Y1631181D01*
Y1634724D01*
X1509114Y1471339D02*
X1509468Y1471693D01*
Y1471732D01*
X1509685Y1471949D01*
X1521909Y1467992D02*
X1522894Y1468976D01*
X1518760Y1467992D02*
X1521909D01*
X1520709Y1473524D02*
X1522894Y1471339D01*
X1519134Y1472736D02*
X1522894Y1468976D01*
X1512658Y1471339D02*
X1514410Y1473091D01*
X1520709Y1473524D02*
Y1475473D01*
X1519134Y1472736D02*
Y1475473D01*
X1517559Y1471161D02*
Y1475473D01*
X1515984Y1470335D02*
Y1475473D01*
X1509685Y1471949D02*
Y1475473D01*
X1511260D01*
X1514410Y1473091D02*
Y1475473D01*
X1514325Y1499376D02*
X1514410Y1499291D01*
X1514325Y1499376D02*
Y1501384D01*
X1514041Y1501668D02*
X1514325Y1501384D01*
X1512217Y1501668D02*
X1514041D01*
X1502638Y1511247D02*
X1512217Y1501668D01*
X1502638Y1511247D02*
Y1514252D01*
X1515984Y1499291D02*
Y1501842D01*
X1514661Y1503164D02*
X1515984Y1501842D01*
X1512837Y1503164D02*
X1514661D01*
X1506063Y1509939D02*
X1512837Y1503164D01*
X1506063Y1509939D02*
Y1514252D01*
X1517481Y1499369D02*
X1517559Y1499291D01*
X1517481Y1499369D02*
Y1502462D01*
X1515281Y1504661D02*
X1517481Y1502462D01*
X1513457Y1504661D02*
X1515281D01*
X1509213Y1508906D02*
X1513457Y1504661D01*
X1509213Y1508906D02*
Y1514252D01*
X1519134Y1499291D02*
Y1502926D01*
X1515901Y1506158D02*
X1519134Y1502926D01*
X1514649Y1506158D02*
X1515901D01*
X1512638Y1508169D02*
X1514649Y1506158D01*
X1512638Y1508169D02*
Y1514252D01*
X1520709Y1499291D02*
Y1503839D01*
X1518386Y1506161D02*
X1520709Y1503839D01*
X1518386Y1506161D02*
Y1514252D01*
X1522283Y1499291D02*
Y1504528D01*
X1521713Y1505098D02*
X1522283Y1504528D01*
X1521713Y1505098D02*
Y1514153D01*
X1521811Y1514252D01*
X1523858Y1499291D02*
Y1504193D01*
X1525059Y1505394D01*
Y1514153D01*
X1524961Y1514252D02*
X1525059Y1514153D01*
X1530256Y1494468D02*
X1540020D01*
X1541969Y1496417D01*
X1560000D01*
X1530256Y1492894D02*
X1559902D01*
X1560000Y1492992D01*
X1530256Y1491319D02*
X1553406D01*
X1554882Y1489843D01*
X1560000D01*
X1530256Y1489744D02*
X1552520D01*
X1555847Y1486417D01*
X1560000D01*
X1530256Y1488169D02*
X1549173D01*
X1556673Y1480669D01*
X1560000D01*
X1530256Y1486594D02*
X1547303D01*
X1556653Y1477244D01*
X1560000D01*
X1530256Y1485020D02*
X1545728D01*
X1556653Y1474094D01*
X1560000D01*
D53*
X1666595Y1541516D02*
Y1544862D01*
Y1566516D01*
X1656752Y1556378D02*
Y1566516D01*
Y1544862D02*
Y1556378D01*
X1640906D02*
X1656752D01*
X1631161Y1546634D02*
X1640906Y1556378D01*
X1629488Y1546634D02*
X1631161D01*
M02*
