M48
;Layer_Color=9474304
;FILE_FORMAT=2:5
INCH,LZ
;TYPE=PLATED
T1F00S00C0.01299
T2F00S00C0.01500
T3F00S00C0.01575
T4F00S00C0.13386
;TYPE=NON_PLATED
T5F00S00C0.13386
%
T01
X1525433Y1494468
Y1489744
Y148502
Y1480295
X1520709
X1515984
X151126
Y148502
X1515984
X1520709
Y1489744
X1515984
X151126
Y1494468
X1515984
X1520709
T02
X1613937Y1644764
Y1640039
X1609213
Y1644764
T03
X1728898Y1551161
X1724665Y154522
X1718957Y1545354
X1680374Y1560315
X1670494Y1529022
X1648878Y1530886
X1581752Y1539744
X1580374Y1559528
X1591595Y1552638
X1570728Y1524685
X1573648Y1520565
X1557146Y1527441
Y153315
X1550693Y1531921
X1548433Y1514171
X1539429Y1512579
X1534705Y1511791
X153916Y1500473
X1539823Y1480787
X1534606Y1480886
X1544252Y1476063
X1539331Y1464449
X1509114Y1471339
X1494843Y1475472
X1494449Y1466614
X148372Y1468878
X1468858Y1479606
Y1484429
X1470728Y148876
X1480571Y1495354
X1485295Y1493484
X1490321Y1490047
X1497008Y1493779
X1498779Y1505197
X1494646Y1505689
X149189Y1510807
X1494843Y1515532
X1496865Y1519204
X1499475Y1522628
X145252Y1526161
X1536575Y1539646
X1532638Y1550669
X1523658Y1555894
X1549173Y155185
Y1575571
X1560689Y1583445
X1540118Y1587185
X1536673Y1582854
X1537756Y1594272
X1542972Y1593583
X1571417Y158689
X1580177Y158374
X1592185Y1575374
X1604095Y1583543
X1609114Y1584528
X158185Y1611693
X1600354Y1632067
X1600945Y1652244
X1605859Y1655131
X1614921Y1655394
X1619449Y1657431
X1622671Y1649274
X1623386Y1639252
X1618695Y1671467
X1632404Y1687677
X1680276Y156622
X1701634Y1583346
X1728209Y15925
X174563
T04
X1554587Y1644665
T05
X1492874Y1427441
X177437Y1564252
M30
